<mxfile host="65bd71144e">
    <diagram id="DoS-wC7tUYlgWvyeiiUw" name="Page-1">
        <mxGraphModel dx="2191" dy="1004" grid="1" gridSize="10" guides="1" tooltips="1" connect="1" arrows="1" fold="1" page="1" pageScale="1" pageWidth="1600" pageHeight="1600" math="0" shadow="0">
            <root>
                <mxCell id="0"/>
                <mxCell id="1" parent="0"/>
                <mxCell id="2" value="" style="rounded=1;whiteSpace=wrap;html=1;strokeColor=#0070F2;fillColor=#EBF8FF;arcSize=32;absoluteArcSize=1;imageWidth=64;imageHeight=64;strokeWidth=1.5;" vertex="1" parent="1">
                    <mxGeometry x="240" y="70" width="850" height="522" as="geometry"/>
                </mxCell>
                <mxCell id="3" value="" style="shape=image;verticalLabelPosition=bottom;verticalAlign=top;imageAspect=0;aspect=fixed;image=data:image/svg+xml,PHN2ZyB4bWxucz0iaHR0cDovL3d3dy53My5vcmcvMjAwMC9zdmciIGZpbGw9Im5vbmUiIHZpZXdCb3g9IjAgMCAxNyAxNyIgaGVpZ2h0PSIxNyIgd2lkdGg9IjE3Ij4mI3hhOzxwYXRoIGZpbGw9InVybCgjcGFpbnQwX2xpbmVhcl8yXzI4Nzk4KSIgZD0iTTAuMjEzODY3IDguNTUyNzNDMC4yMTM4NjcgNy40Njk0IDAuNDIyMjAxIDYuNDU4OTggMC44Mzg4NjcgNS41MjE0OEMxLjI1NTUzIDQuNTYzMTUgMS44MTgwMyAzLjcyOTgyIDIuNTI2MzcgMy4wMjE0OEMzLjIzNDcgMi4zMTMxNSA0LjA2ODAzIDEuNzUwNjUgNS4wMjYzNyAxLjMzMzk4QzUuOTg0NyAwLjkxNzMxOCA3LjAwNTUzIDAuNzA4OTg0IDguMDg4ODcgMC43MDg5ODRDOS4xNzIyIDAuNzA4OTg0IDEwLjE4MjYgMC45MTczMTggMTEuMTIwMSAxLjMzMzk4QzEyLjA3ODUgMS43NTA2NSAxMi45MTE4IDIuMzEzMTUgMTMuNjIwMSAzLjAyMTQ4QzE0LjMyODUgMy43Mjk4MiAxNC44OTEgNC41NjMxNSAxNS4zMDc2IDUuNTIxNDhDMTUuNzI0MyA2LjQ1ODk4IDE1LjkzMjYgNy40Njk0IDE1LjkzMjYgOC41NTI3M0MxNS45MzI2IDkuNjM2MDcgMTUuNzI0MyAxMC42NTY5IDE1LjMwNzYgMTEuNjE1MkMxNC44OTEgMTIuNTczNiAxNC4zMjg1IDEzLjQwNjkgMTMuNjIwMSAxNC4xMTUyQzEyLjkxMTggMTQuODIzNiAxMi4wNzg1IDE1LjM4NjEgMTEuMTIwMSAxNS44MDI3QzEwLjE4MjYgMTYuMjE5NCA5LjE3MjIgMTYuNDI3NyA4LjA4ODg3IDE2LjQyNzdDNy4wMDU1MyAxNi40Mjc3IDUuOTg0NyAxNi4yMTk0IDUuMDI2MzcgMTUuODAyN0M0LjA2ODAzIDE1LjM4NjEgMy4yMzQ3IDE0LjgyMzYgMi41MjYzNyAxNC4xMTUyQzEuODE4MDMgMTMuNDA2OSAxLjI1NTUzIDEyLjU3MzYgMC44Mzg4NjcgMTEuNjE1MkMwLjQyMjIwMSAxMC42NTY5IDAuMjEzODY3IDkuNjM2MDcgMC4yMTM4NjcgOC41NTI3M1pNOS42NTEzNyAxMC45Mjc3QzEwLjMxOCAxMC45Mjc3IDEwLjkzMjYgMTEuMDg0IDExLjQ5NTEgMTEuMzk2NUMxMi4wNTc2IDExLjY4ODIgMTIuNTE2IDEyLjA5NDQgMTIuODcwMSAxMi42MTUyQzEzLjM0OTMgMTIuMDczNiAxMy43MTM5IDExLjQ1OSAxMy45NjM5IDEwLjc3MTVDMTQuMjM0NyAxMC4wODQgMTQuMzcwMSA5LjM0NDQgMTQuMzcwMSA4LjU1MjczQzE0LjM3MDEgNy42Nzc3MyAxNC4yMDM1IDYuODY1MjMgMTMuODcwMSA2LjExNTIzQzEzLjUzNjggNS4zNDQ0IDEzLjA4ODkgNC42Nzc3MyAxMi41MjY0IDQuMTE1MjNDMTEuOTYzOSAzLjU1MjczIDExLjI5NzIgMy4xMDQ4MiAxMC41MjY0IDIuNzcxNDhDOS43NzYzNyAyLjQzODE1IDguOTYzODcgMi4yNzE0OCA4LjA4ODg3IDIuMjcxNDhDNy4yMTM4NyAyLjI3MTQ4IDYuMzkwOTUgMi40MzgxNSA1LjYyMDEyIDIuNzcxNDhDNC44NzAxMiAzLjEwNDgyIDQuMjAzNDUgMy41NTI3MyAzLjYyMDEyIDQuMTE1MjNDMy4wNTc2MiA0LjY3NzczIDIuNjA5NyA1LjM0NDQgMi4yNzYzNyA2LjExNTIzQzEuOTQzMDMgNi44NjUyMyAxLjc3NjM3IDcuNjc3NzMgMS43NzYzNyA4LjU1MjczQzEuNzc2MzcgOS4zNDQ0IDEuOTAxMzcgMTAuMDg0IDIuMTUxMzcgMTAuNzcxNUMyLjQyMjIgMTEuNDU5IDIuNzk3MiAxMi4wNzM2IDMuMjc2MzcgMTIuNjE1MkMzLjYzMDUzIDEyLjA5NDQgNC4wODg4NyAxMS42ODgyIDQuNjUxMzcgMTEuMzk2NUM1LjIxMzg3IDExLjA4NCA1LjgyODQ1IDEwLjkyNzcgNi40OTUxMiAxMC45Mjc3SDkuNjUxMzdaTTExLjIxMzkgNi45OTAyM0MxMS4yMTM5IDcuNDI3NzMgMTEuMTMwNSA3Ljg0NDQgMTAuOTYzOSA4LjI0MDIzQzEwLjc5NzIgOC42MTUyMyAxMC41NjggOC45NDg1NyAxMC4yNzY0IDkuMjQwMjNDMTAuMDA1NSA5LjUxMTA3IDkuNjgyNjIgOS43Mjk4MiA5LjMwNzYyIDkuODk2NDhDOC45MzI2MiAxMC4wNjMyIDguNTI2MzcgMTAuMTQ2NSA4LjA4ODg3IDEwLjE0NjVDNy42NTEzNyAxMC4xNDY1IDcuMjM0NyAxMC4wNjMyIDYuODM4ODcgOS44OTY0OEM2LjQ2Mzg3IDkuNzI5ODIgNi4xMzA1MyA5LjUxMTA3IDUuODM4ODcgOS4yNDAyM0M1LjU2ODAzIDguOTQ4NTcgNS4zNDkyOCA4LjYxNTIzIDUuMTgyNjIgOC4yNDAyM0M1LjAxNTk1IDcuODQ0NCA0LjkzMjYyIDcuNDI3NzMgNC45MzI2MiA2Ljk5MDIzQzQuOTMyNjIgNi41NTI3MyA1LjAxNTk1IDYuMTQ2NDggNS4xODI2MiA1Ljc3MTQ4QzUuMzQ5MjggNS4zOTY0OCA1LjU2ODAzIDUuMDYzMTUgNS44Mzg4NyA0Ljc3MTQ4QzYuMTMwNTMgNC40Nzk4MiA2LjQ2Mzg3IDQuMjUwNjUgNi44Mzg4NyA0LjA4Mzk4QzcuMjM0NyAzLjkxNzMyIDcuNjUxMzcgMy44MzM5OCA4LjA4ODg3IDMuODMzOThDOC41MjYzNyAzLjgzMzk4IDguOTMyNjIgMy45MTczMiA5LjMwNzYyIDQuMDgzOThDOS42ODI2MiA0LjI1MDY1IDEwLjAwNTUgNC40Nzk4MiAxMC4yNzY0IDQuNzcxNDhDMTAuNTY4IDUuMDYzMTUgMTAuNzk3MiA1LjM5NjQ4IDEwLjk2MzkgNS43NzE0OEMxMS4xMzA1IDYuMTQ2NDggMTEuMjEzOSA2LjU1MjczIDExLjIxMzkgNi45OTAyM1pNOS42NTEzNyA2Ljk5MDIzQzkuNjUxMzcgNi41NTI3MyA5LjQ5NTEyIDYuMTg4MTUgOS4xODI2MiA1Ljg5NjQ4QzguODcwMTIgNS41ODM5OCA4LjUwNTUzIDUuNDI3NzMgOC4wODg4NyA1LjQyNzczQzcuNjUxMzcgNS40Mjc3MyA3LjI3NjM3IDUuNTgzOTggNi45NjM4NyA1Ljg5NjQ4QzYuNjUxMzcgNi4xODgxNSA2LjQ5NTEyIDYuNTUyNzMgNi40OTUxMiA2Ljk5MDIzQzYuNDk1MTIgNy40Mjc3MyA2LjY1MTM3IDcuODAyNzMgNi45NjM4NyA4LjExNTIzQzcuMjc2MzcgOC40MDY5IDcuNjUxMzcgOC41NTI3MyA4LjA4ODg3IDguNTUyNzNDOC41MDU1MyA4LjU1MjczIDguODcwMTIgOC40MDY5IDkuMTgyNjIgOC4xMTUyM0M5LjQ5NTEyIDcuODAyNzMgOS42NTEzNyA3LjQyNzczIDkuNjUxMzcgNi45OTAyM1pNNC40NjM4NyAxMy43MDlDNC45NjM4NyAxNC4wNjMyIDUuNTE1OTUgMTQuMzQ0NCA2LjEyMDEyIDE0LjU1MjdDNi43NDUxMiAxNC43NjExIDcuNDAxMzcgMTQuODY1MiA4LjA4ODg3IDE0Ljg2NTJDOC43NTU1MyAxNC44NjUyIDkuMzkwOTUgMTQuNzYxMSA5Ljk5NTEyIDE0LjU1MjdDMTAuNjIwMSAxNC4zNDQ0IDExLjE4MjYgMTQuMDYzMiAxMS42ODI2IDEzLjcwOUMxMS40NzQzIDEzLjMzNCAxMS4xODI2IDEzLjA0MjMgMTAuODA3NiAxMi44MzRDMTAuNDUzNSAxMi42MDQ4IDEwLjA2OCAxMi40OTAyIDkuNjUxMzcgMTIuNDkwMkg2LjQ5NTEyQzYuMDc4NDUgMTIuNDkwMiA1LjY4MjYyIDEyLjYwNDggNS4zMDc2MiAxMi44MzRDNC45NTM0NSAxMy4wNDIzIDQuNjcyMiAxMy4zMzQgNC40NjM4NyAxMy43MDlaIi8+JiN4YTs8ZGVmcz4mI3hhOzxsaW5lYXJHcmFkaWVudCBncmFkaWVudFVuaXRzPSJ1c2VyU3BhY2VPblVzZSIgeTI9IjE2LjQyNzciIHgyPSI4LjA3MzI0IiB5MT0iMC43MDg5ODQiIHgxPSI4LjA3MzI0IiBpZD0icGFpbnQwX2xpbmVhcl8yXzI4Nzk4Ij4mI3hhOzxzdG9wIHN0b3AtY29sb3I9IiM1QjczOEIiLz4mI3hhOzxzdG9wIHN0b3AtY29sb3I9IiMyMjM1NDgiIG9mZnNldD0iMSIvPiYjeGE7PC9saW5lYXJHcmFkaWVudD4mI3hhOzwvZGVmcz4mI3hhOzwvc3ZnPg==" vertex="1" parent="1">
                    <mxGeometry x="96" y="190" width="48" height="48" as="geometry"/>
                </mxCell>
                <mxCell id="4" value="&lt;b style=&quot;border-color: var(--border-color); font-family: arial; font-style: normal; font-variant-ligatures: normal; font-variant-caps: normal; letter-spacing: normal; orphans: 2; text-indent: 0px; text-transform: none; widows: 2; word-spacing: 0px; -webkit-text-stroke-width: 0px; background-color: rgb(251, 251, 251); text-decoration-thickness: initial; text-decoration-style: initial; text-decoration-color: initial; font-size: 14px;&quot;&gt;&lt;font color=&quot;#1d2d3e&quot;&gt;End User&lt;/font&gt;&lt;/b&gt;" style="text;whiteSpace=wrap;html=1;align=center;verticalAlign=top;points=[[0,0,0,0,0],[0,0.25,0,0,0],[0,0.5,0,0,0],[0,0.75,0,0,0],[0,1,0,0,0],[0.25,0,0,0,0],[0.25,1,0,0,0],[0.5,0,0,0,0],[0.5,1,0,0,0],[0.75,0,0,0,0],[0.75,1,0,0,0],[1,0,0,0,0],[1,0.25,0,0,0],[1,0.5,0,0,0],[1,0.75,0,0,0],[1,1,0,0,0]];" vertex="1" parent="1">
                    <mxGeometry x="85.5" y="238" width="69" height="30" as="geometry"/>
                </mxCell>
                <mxCell id="5" value="" style="shape=image;verticalLabelPosition=bottom;labelBackgroundColor=default;verticalAlign=top;aspect=fixed;imageAspect=0;image=data:image/svg+xml,PHN2ZyB4bWxucz0iaHR0cDovL3d3dy53My5vcmcvMjAwMC9zdmciIGZpbGw9Im5vbmUiIHZpZXdCb3g9IjAgMCAxNiAxNCIgaGVpZ2h0PSIxNCIgd2lkdGg9IjE2Ij4mI3hhOzxwYXRoIGZpbGw9InVybCgjcGFpbnQwX2xpbmVhcl83ODlfMzcpIiBkPSJNOC4wMjU2OCAxMC44MjAyVjEyLjEzMjJIOC42ODE2OEM5LjExOTY4IDEyLjEzMjIgOS4zMzc2OCAxMi4zNjIyIDkuMzM3NjggMTIuODIwMkM5LjM0MDE4IDEyLjkwNyA5LjMyNDg4IDEyLjk5MzQgOS4yOTI3MiAxMy4wNzRDOS4yNjA1NiAxMy4xNTQ3IDkuMjEyMjIgMTMuMjI3OSA5LjE1MDY4IDEzLjI4OTJDOS4wNDY2OCAxMy40MTMyIDguODkwNjggMTMuNDc2MiA4LjY4MTY4IDEzLjQ3NjJINC42ODE2OEM0LjU5NDk4IDEzLjQ3ODQgNC41MDg3MyAxMy40NjI5IDQuNDI4MjUgMTMuNDMwNUM0LjM0Nzc3IDEzLjM5ODIgNC4yNzQ3NSAxMy4zNDk4IDQuMjEzNjggMTMuMjg4MkM0LjE1MjA5IDEzLjIyNzEgNC4xMDM2NCAxMy4xNTQxIDQuMDcxMzEgMTMuMDczNkM0LjAzODk4IDEyLjk5MzEgNC4wMjM0NSAxMi45MDY5IDQuMDI1NjggMTIuODIwMkM0LjAyNTY4IDEyLjYxMTIgNC4wODg2OCAxMi40NDUyIDQuMjEzNjggMTIuMzIwMkM0LjI3NDc1IDEyLjI1ODYgNC4zNDc3NyAxMi4yMTAxIDQuNDI4MjUgMTIuMTc3OEM0LjUwODczIDEyLjE0NTUgNC41OTQ5OCAxMi4xMjk5IDQuNjgxNjggMTIuMTMyMkg2LjY4MTY4VjEwLjgyMDJIMi4wMjU2OEMxLjc2MDc0IDEwLjgyNTUgMS40OTczNCAxMC43Nzg2IDEuMjUwNTggMTAuNjgyQzEuMDAzODIgMTAuNTg1NCAwLjc3ODU0OSAxMC40NDEgMC41ODc2ODQgMTAuMjU3MkMwLjQwNDE1MSAxMC4wNjYzIDAuMjYwMDQ1IDkuODQxMiAwLjE2MzYxMSA5LjU5NDYyQzAuMDY3MTc2OCA5LjM0ODA0IDAuMDIwMzA3MyA5LjA4NDg3IDAuMDI1NjgzOSA4LjgyMDE2VjIuMTY0MTZDMC4wMjU2ODM5IDEuNjAxMTYgMC4yMTM2ODQgMS4xMzIxNiAwLjU4ODY4NCAwLjc1NzE2NEMwLjc3NDk0NyAwLjU2NTI2OCAwLjk5ODU0NSAwLjQxMzU2MiAxLjI0NTY5IDAuMzExNDAyQzEuNDkyODQgMC4yMDkyNDEgMS43NTgyOSAwLjE1ODc5MiAyLjAyNTY4IDAuMTYzMTY1SDEyLjY4MTdDMTMuMjQ0NyAwLjE2MzE2NSAxMy43MTI3IDAuMzYxMTY0IDE0LjA4NzcgMC43NTcxNjRDMTQuNDgzNyAxLjEzMjE2IDE0LjY4MTcgMS42MDExNiAxNC42ODE3IDIuMTYzMTZWMy41MDcxNkMxNC42ODQyIDMuNTkzOTYgMTQuNjY4OSAzLjY4MDM2IDE0LjYzNjcgMy43NjEwMkMxNC42MDQ2IDMuODQxNjggMTQuNTU2MiAzLjkxNDkgMTQuNDk0NyAzLjk3NjE2QzE0LjQyODUgNC4wMzk4MiAxNC4zNSA0LjA4OTMyIDE0LjI2NCA0LjEyMTY1QzE0LjE3ODEgNC4xNTM5NyAxNC4wODY0IDQuMTY4NDQgMTMuOTk0NyA0LjE2NDE2QzEzLjkwNzggNC4xNjY1MyAxMy44MjE0IDQuMTUxMDcgMTMuNzQwNyA0LjExODc0QzEzLjY2IDQuMDg2NCAxMy41ODY5IDQuMDM3ODggMTMuNTI1NyAzLjk3NjE2QzEzLjQ2NCAzLjkxNDk4IDEzLjQxNTQgMy44NDE4IDEzLjM4MzEgMy43NjExNEMxMy4zNTA4IDMuNjgwNDcgMTMuMzM1MyAzLjU5NDA0IDEzLjMzNzcgMy41MDcxNlYyLjE2NDE2QzEzLjMzNzcgMS43MjYxNiAxMy4xMTk3IDEuNTA3MTYgMTIuNjgxNyAxLjUwNzE2SDIuMDI1NjhDMS41ODc2OCAxLjUwNzE2IDEuMzY5NjggMS43MjYxNiAxLjM2OTY4IDIuMTYzMTZWOC44MjAxNkMxLjM2OTY4IDkuMjU3MTYgMS41ODc2OCA5LjQ3NjE2IDIuMDI1NjggOS40NzYxNkg4LjY4MTY4QzkuMTE5NjggOS40NzYxNiA5LjMzNzY4IDkuNzA2MTYgOS4zMzc2OCAxMC4xNjQyQzkuMzQwMDUgMTAuMjUwOCA5LjMyNDY4IDEwLjMzNyA5LjI5MjUyIDEwLjQxNzVDOS4yNjAzNiAxMC40OTggOS4yMTIxIDEwLjU3MSA5LjE1MDY4IDEwLjYzMjJDOS4wNDY2OCAxMC43NTcyIDguODkwNjggMTAuODIwMiA4LjY4MTY4IDEwLjgyMDJIOC4wMjU2OFpNMTUuMzM4NyA1LjQ3NjE2QzE1Ljc3NTcgNS40NzYxNiAxNS45OTQ3IDUuNzA2MTYgMTUuOTk0NyA2LjE2NDE2VjEyLjgyMDJDMTUuOTk3MSAxMi45MDcgMTUuOTgxNiAxMi45OTM1IDE1Ljk0OTMgMTMuMDc0MUMxNS45MTY5IDEzLjE1NDggMTUuODY4NCAxMy4yMjggMTUuODA2NyAxMy4yODkyQzE1LjcwMjcgMTMuNDEzMiAxNS41NDY3IDEzLjQ3NjIgMTUuMzM3NyAxMy40NzYySDExLjMzNzdDMTEuMjUxIDEzLjQ3ODQgMTEuMTY0NyAxMy40NjI5IDExLjA4NDMgMTMuNDMwNUMxMS4wMDM4IDEzLjM5ODIgMTAuOTMwOCAxMy4zNDk4IDEwLjg2OTcgMTMuMjg4MkMxMC44MDgxIDEzLjIyNzEgMTAuNzU5NiAxMy4xNTQxIDEwLjcyNzMgMTMuMDczNkMxMC42OTUgMTIuOTkzMSAxMC42Nzk1IDEyLjkwNjkgMTAuNjgxNyAxMi44MjAyVjYuMTY0MTZDMTAuNjgxNyA1Ljk1NTE2IDEwLjc0NDcgNS43ODkxNiAxMC44Njk3IDUuNjY0MTZDMTAuOTMwOSA1LjYwMjQ1IDExLjAwNCA1LjU1MzkzIDExLjA4NDcgNS41MjE1OUMxMS4xNjU0IDUuNDg5MjYgMTEuMjUxOCA1LjQ3MzggMTEuMzM4NyA1LjQ3NjE2SDE1LjMzODdaTTEyLjAyNTcgNi44MjAxNlYxMS40NzYySDE0LjY4MTdWNi44MjAxNkgxMi4wMjU3WiIvPiYjeGE7PGRlZnM+JiN4YTs8bGluZWFyR3JhZGllbnQgZ3JhZGllbnRVbml0cz0idXNlclNwYWNlT25Vc2UiIHkyPSIxMy40NzY0IiB4Mj0iOC4wMTAwOSIgeTE9IjAuMTYyOTAzIiB4MT0iOC4wMTAwOSIgaWQ9InBhaW50MF9saW5lYXJfNzg5XzM3Ij4mI3hhOzxzdG9wIHN0b3AtY29sb3I9IiM1QjczOEIiLz4mI3hhOzxzdG9wIHN0b3AtY29sb3I9IiMyMjM1NDgiIG9mZnNldD0iMSIvPiYjeGE7PC9saW5lYXJHcmFkaWVudD4mI3hhOzwvZGVmcz4mI3hhOzwvc3ZnPg==;" vertex="1" parent="1">
                    <mxGeometry x="96" y="336.5" width="48" height="42" as="geometry"/>
                </mxCell>
                <mxCell id="6" value="&lt;b style=&quot;border-color: var(--border-color); font-family: arial; font-style: normal; font-variant-ligatures: normal; font-variant-caps: normal; letter-spacing: normal; orphans: 2; text-indent: 0px; text-transform: none; widows: 2; word-spacing: 0px; -webkit-text-stroke-width: 0px; background-color: rgb(251, 251, 251); text-decoration-thickness: initial; text-decoration-style: initial; text-decoration-color: initial; font-size: 14px;&quot;&gt;&lt;font color=&quot;#1d2d3e&quot;&gt;Application Clients&lt;/font&gt;&lt;/b&gt;" style="text;whiteSpace=wrap;html=1;align=center;verticalAlign=top;points=[[0,0,0,0,0],[0,0.25,0,0,0],[0,0.5,0,0,0],[0,0.75,0,0,0],[0,1,0,0,0],[0.25,0,0,0,0],[0.25,1,0,0,0],[0.5,0,0,0,0],[0.5,1,0,0,0],[0.75,0,0,0,0],[0.75,1,0,0,0],[1,0,0,0,0],[1,0.25,0,0,0],[1,0.5,0,0,0],[1,0.75,0,0,0],[1,1,0,0,0]];" vertex="1" parent="1">
                    <mxGeometry x="85.5" y="378.5" width="69" height="30" as="geometry"/>
                </mxCell>
                <mxCell id="7" value="&lt;div style=&quot;&quot;&gt;&lt;span style=&quot;font-family: arial; font-size: x-small; background-color: initial;&quot;&gt;&lt;font&gt;Mobile or Desktop&lt;/font&gt;&lt;/span&gt;&lt;/div&gt;" style="text;html=1;align=center;verticalAlign=middle;resizable=0;points=[];autosize=1;strokeColor=none;fillColor=none;fontSize=12;fontColor=#556B82;fontFamily=Helvetica;" vertex="1" parent="1">
                    <mxGeometry x="70" y="416.5" width="100" height="30" as="geometry"/>
                </mxCell>
                <mxCell id="8" value="" style="endArrow=blockThin;html=1;strokeColor=#475e75;bendable=1;rounded=0;endFill=1;endSize=4;strokeWidth=1.5;startSize=4;startArrow=none;startFill=0;fontSize=12;curved=1;exitX=0.5;exitY=1;exitDx=0;exitDy=0;exitPerimeter=0;entryX=0.5;entryY=0;entryDx=0;entryDy=0;" edge="1" parent="1">
                    <mxGeometry width="50" height="50" relative="1" as="geometry">
                        <mxPoint x="120" y="265" as="sourcePoint"/>
                        <mxPoint x="120" y="333.5" as="targetPoint"/>
                        <Array as="points"/>
                    </mxGeometry>
                </mxCell>
                <mxCell id="9" value="" style="rounded=1;whiteSpace=wrap;html=1;strokeColor=#475E75;fillColor=#F5F6F7;arcSize=24;absoluteArcSize=1;imageWidth=64;imageHeight=64;strokeWidth=1.5;" vertex="1" parent="1">
                    <mxGeometry x="1111" y="336.5" width="190" height="220" as="geometry"/>
                </mxCell>
                <mxCell id="10" value="&lt;font face=&quot;arial&quot; style=&quot;font-size: 16px;&quot;&gt;&lt;b style=&quot;font-size: 16px;&quot;&gt;Foundational Models&lt;/b&gt;&lt;/font&gt;" style="text;html=1;align=center;verticalAlign=middle;resizable=0;points=[[0,0.5,0,0,0],[0.5,0,0,0,0],[0.5,1,0,0,0],[1,0.5,0,0,0]];autosize=1;strokeColor=none;fillColor=none;fontSize=12;fontColor=#1D2D3E;fontFamily=Helvetica;" vertex="1" parent="1">
                    <mxGeometry x="1116" y="340.5" width="180" height="30" as="geometry"/>
                </mxCell>
                <mxCell id="11" value="&lt;div style=&quot;&quot;&gt;&lt;span style=&quot;font-family: arial; background-color: initial;&quot;&gt;&lt;font size=&quot;1&quot; style=&quot;&quot;&gt;&lt;i style=&quot;font-size: 16px;&quot;&gt;Partner hosted&lt;/i&gt;&lt;/font&gt;&lt;/span&gt;&lt;/div&gt;" style="text;html=1;align=left;verticalAlign=middle;resizable=0;points=[];autosize=1;strokeColor=none;fillColor=none;fontSize=12;fontColor=#556B82;fontFamily=Helvetica;" vertex="1" parent="1">
                    <mxGeometry x="1146" y="361.5" width="130" height="30" as="geometry"/>
                </mxCell>
                <mxCell id="12" value="" style="rounded=1;whiteSpace=wrap;html=1;strokeColor=#475E75;fillColor=#ffffff;arcSize=24;absoluteArcSize=1;imageWidth=64;imageHeight=64;strokeWidth=1.5;" vertex="1" parent="1">
                    <mxGeometry x="1136" y="394.5" width="145" height="50" as="geometry"/>
                </mxCell>
                <mxCell id="13" value="&lt;font face=&quot;arial&quot; style=&quot;font-size: 16px;&quot;&gt;&lt;b style=&quot;font-size: 16px;&quot;&gt;Azure OpenAI&lt;/b&gt;&lt;/font&gt;" style="text;html=1;align=center;verticalAlign=middle;resizable=0;points=[];autosize=1;strokeColor=none;fillColor=none;fontSize=12;fontColor=#1d2d3e;fontFamily=Helvetica;" vertex="1" parent="1">
                    <mxGeometry x="1143.5" y="404.5" width="130" height="30" as="geometry"/>
                </mxCell>
                <mxCell id="14" value="" style="rounded=1;whiteSpace=wrap;html=1;strokeColor=#475E75;fillColor=#ffffff;arcSize=24;absoluteArcSize=1;imageWidth=64;imageHeight=64;strokeWidth=1.5;" vertex="1" parent="1">
                    <mxGeometry x="1136" y="454.5" width="145" height="50" as="geometry"/>
                </mxCell>
                <mxCell id="15" value="&lt;font face=&quot;arial&quot; style=&quot;font-size: 16px;&quot;&gt;&lt;b style=&quot;font-size: 16px;&quot;&gt;GCP Vertex AI&lt;/b&gt;&lt;/font&gt;" style="text;html=1;align=center;verticalAlign=middle;resizable=0;points=[];autosize=1;strokeColor=none;fillColor=none;fontSize=12;fontColor=#1d2d3e;fontFamily=Helvetica;" vertex="1" parent="1">
                    <mxGeometry x="1143.5" y="464.5" width="130" height="30" as="geometry"/>
                </mxCell>
                <mxCell id="16" value="" style="group" vertex="1" connectable="0" parent="1">
                    <mxGeometry x="240" y="70" width="910.0000000000001" height="570" as="geometry"/>
                </mxCell>
                <mxCell id="17" value="" style="rounded=1;whiteSpace=wrap;html=1;strokeColor=#0070F2;fillColor=#ffffff;arcSize=24;absoluteArcSize=1;imageWidth=64;imageHeight=64;strokeWidth=1.5;" vertex="1" parent="16">
                    <mxGeometry x="28" y="61" width="550" height="430" as="geometry"/>
                </mxCell>
                <mxCell id="18" value="" style="shape=image;verticalLabelPosition=bottom;labelBackgroundColor=default;verticalAlign=top;aspect=fixed;imageAspect=0;image=data:image/svg+xml,PHN2ZyB4bWxuczp4bGluaz0iaHR0cDovL3d3dy53My5vcmcvMTk5OS94bGluayIgeG1sbnM9Imh0dHA6Ly93d3cudzMub3JnLzIwMDAvc3ZnIiB2aWV3Qm94PSIwIDAgMTQ0Ljc0NyAzOS44MzIiIGlkPSJhIj48ZGVmcz48bGluZWFyR3JhZGllbnQgZ3JhZGllbnRVbml0cz0idXNlclNwYWNlT25Vc2UiIHkyPSIzOS44MzIiIHgyPSI0MC4yNTgiIHkxPSIwIiB4MT0iNDAuMjU4IiBpZD0iYiI+PHN0b3Agc3RvcC1jb2xvcj0iIzAwYjhmMSIgb2Zmc2V0PSIwIi8+PHN0b3Agc3RvcC1jb2xvcj0iIzAwYjVlZiIgb2Zmc2V0PSIuMDE2Ii8+PHN0b3Agc3RvcC1jb2xvcj0iIzBkOTBkOCIgb2Zmc2V0PSIuMzA4Ii8+PHN0b3Agc3RvcC1jb2xvcj0iIzE2NzVjOCIgb2Zmc2V0PSIuNTc4Ii8+PHN0b3Agc3RvcC1jb2xvcj0iIzFjNjRiZSIgb2Zmc2V0PSIuODE3Ii8+PHN0b3Agc3RvcC1jb2xvcj0iIzFlNWZiYiIgb2Zmc2V0PSIxIi8+PC9saW5lYXJHcmFkaWVudD48L2RlZnM+PHBvbHlsaW5lIGZpbGwtcnVsZT0iZXZlbm9kZCIgZmlsbD0idXJsKCNiKSIgcG9pbnRzPSIwIDM5LjgzMiA0MC42OTIgMzkuODMyIDgwLjUxNyAwIDAgMCAwIDM5LjgzMiIvPjxwYXRoIGZpbGwtcnVsZT0iZXZlbm9kZCIgZmlsbD0iI2ZmZiIgZD0ibTQ3Ljc4Miw3LjQ4OWwtNy45MjUtLjAwNXYxOC44NDVsLTYuOTI0LTE4Ljg0NWgtNi44NjVsLTUuOTEyLDE1Ljc1OWMtLjYzLTMuOTczLTQuNzQtNS4zNDUtNy45NzQtNi4zNzQtMi4xMzUtLjY4Ni00LjQwMS0xLjY5NC00LjM4LTIuODA5LjAxNy0uOTE1LDEuMjE1LTEuNzY1LDMuNTg5LTEuNjM3LDEuNTk1LjA4NCwzLjAwMS4yMTMsNS44LDEuNTYzbDIuNzUzLTQuNzk1Yy0yLjU1NS0xLjMtNi4wODYtMi4xMjEtOC45NzgtMi4xMjRoLS4wMTdjLTMuMzc0LDAtNi4xODUsMS4wOTMtNy45MjgsMi44OTQtMS4yMTQsMS4yNTgtMS44NjksMi44NTYtMS44OTYsNC42MjMtLjA0NCwyLjQzMi44NDgsNC4xNTcsMi43MjEsNS41MzMsMS41ODMsMS4xNiwzLjYwNiwxLjkxMiw1LjM5LDIuNDY1LDIuMjAxLjY4MSwzLjk5NiwxLjI3NCwzLjk3NSwyLjUzOS0uMDE2LjQ1OS0uMTkxLjg4OC0uNTIxLDEuMjM2LS41NDguNTY2LTEuMzkxLjc3OS0yLjU1NS43OTktMi4yNDQuMDQ4LTMuOTEtLjMwMy02LjU2Mi0xLjg3bC0yLjQ0OCw0Ljg2MWMyLjY0NCwxLjUwNiw1Ljc3NiwyLjM4OCw4Ljk3MiwyLjM4OGwuNDExLS4wMDZjMi43ODItLjA1LDUuMDI2LS44NDIsNi44Mi0yLjI4Ni4xMDMtLjA4MS4xOTYtLjE2Ni4yOTEtLjI1bC0uNzk1LDIuMTIzaDcuMmwxLjIwOC0zLjY3NGMxLjI2NS40MzMsMi43MDQuNjcxLDQuMjMyLjY3MSwxLjQ4NywwLDIuODg5LS4yMjksNC4xMzEtLjYzNWwxLjE2NCwzLjYzN2gxMS43NDJ2LTcuNjA3aDIuNTYxYzYuMTg4LDAsOS44NTEtMy4xNTQsOS44NTEtOC40MzYsMC01Ljg4NS0zLjU1Ny04LjU4NS0xMS4xMzItOC41ODVabS0xOC4zMTcsMTYuMTI0Yy0uOTI1LDAtMS43OTItLjE2LTIuNTM5LS40NDNsMi41MTItNy45MjZoLjA0OGwyLjQ2OCw3Ljk0OGMtLjc0Mi4yNjMtMS41ODkuNDIxLTIuNDg4LjQyMVptMTguNzgzLTQuNTUzaC0xLjc0NnYtNi4zODZoMS43NDZjMi4zMjgsMCw0LjE4NS43NzMsNC4xODUsMy4xNTEsMCwyLjQ2MS0xLjg1NywzLjIzNi00LjE4NSwzLjIzNiIvPjxwYXRoIGZpbGw9IiMwMDJhODYiIGQ9Im04MC4yMTcsNy40MDFoMTAuMDYzYzUuNTk1LDAsOC42NzQsMS45MTcsOC42NzQsNi4xNTgsMCwyLjkwMy0xLjUxMyw1LjAxNC00LjMxMSw1LjcsMy4yOS40NTgsNS4yNzgsMi41ODYsNS4yNzgsNS44OTQsMCw1LjAxNC00LjA2NCw3LjAzNy05LjE4NCw3LjAzN2gtMTAuNTIxVjcuNDAxWm0xMy45NjksNi44MjZjMC0yLjE2NC0xLjQ5Ni0yLjk3My00LjI0LTIuOTczaC01LjA0OXY2LjI5OGg0Ljg5MWMzLjIwMiwwLDQuMzk4LTEuMTYxLDQuMzk4LTMuMzI1Wm0xLjAyMSwxMC41MjFjMC0yLjM1Ny0xLjc3Ny0zLjQ2Ni00LjgzOS0zLjQ2NmgtNS40NzF2Ny4wNTVoNS41MDZjMi44MTUsMCw0LjgwNC0uNzc0LDQuODA0LTMuNTg5WiIvPjxwYXRoIGZpbGw9IiMwMDJhODYiIGQ9Im0xMDkuMDUxLDExLjVoLTcuNTgzdi00LjA5OWgxOS44NDZ2NC4wOTloLTcuNTY1djIwLjY5aC00LjY5N1YxMS41WiIvPjxwYXRoIGZpbGw9IiMwMDJhODYiIGQ9Im0xMjUuMTQ4LDcuNDAxaDEwLjUwNGM2LjE5MiwwLDkuMDk2LDMuMTg1LDkuMDk2LDcuODk5LDAsNC4zOTgtMi44MzMsOC4xNDYtOC44NSw4LjE0NmgtNi4wN3Y4Ljc0NGgtNC42OFY3LjQwMVptMTQuOTAyLDcuOTUyYzAtMi41NTEtMS42ODktMy45MjMtNC45NDQtMy45MjNoLTUuMjc4djguMDRoNS40MTljMy4yNzIsMCw0LjgwNC0xLjU4Myw0LjgwNC00LjExN1oiLz48L3N2Zz4=;strokeWidth=1.5;" vertex="1" parent="16">
                    <mxGeometry x="27.672950819672064" y="18.550000000000068" width="67.25" height="18.55" as="geometry"/>
                </mxCell>
                <mxCell id="19" value="&lt;font face=&quot;arial&quot; style=&quot;font-size: 16px;&quot;&gt;&lt;b style=&quot;font-size: 16px;&quot;&gt;Subaccount&lt;/b&gt;&lt;/font&gt;" style="text;html=1;align=center;verticalAlign=middle;resizable=0;points=[[0,0.5,0,0,0],[0.5,0,0,0,0],[0.5,1,0,0,0],[1,0.5,0,0,0]];autosize=1;strokeColor=none;fillColor=none;fontSize=12;fontColor=#1D2D3E;fontFamily=Helvetica;" vertex="1" parent="16">
                    <mxGeometry x="40" y="70" width="120" height="30" as="geometry"/>
                </mxCell>
                <mxCell id="20" value="&lt;div style=&quot;&quot;&gt;&lt;span style=&quot;font-family: arial; font-size: x-small; background-color: initial;&quot;&gt;&lt;font&gt;Multi-Cloud&lt;/font&gt;&lt;/span&gt;&lt;/div&gt;" style="text;html=1;align=left;verticalAlign=middle;resizable=0;points=[];autosize=1;strokeColor=none;fillColor=none;fontSize=12;fontColor=#556B82;fontFamily=Helvetica;" vertex="1" parent="16">
                    <mxGeometry x="53" y="90" width="70" height="30" as="geometry"/>
                </mxCell>
                <mxCell id="21" value="" style="shape=image;verticalLabelPosition=bottom;verticalAlign=top;imageAspect=0;aspect=fixed;image=data:image/svg+xml,PHN2ZyB4bWxucz0iaHR0cDovL3d3dy53My5vcmcvMjAwMC9zdmciIGZpbGw9Im5vbmUiIHZpZXdCb3g9IjAgMCAxNiAxNiIgaGVpZ2h0PSIxNiIgd2lkdGg9IjE2Ij4mI3hhOzxjaXJjbGUgc3Ryb2tlLXdpZHRoPSIwLjI4NTcwOCIgc3Ryb2tlPSIjRDVEQUREIiBmaWxsPSJ1cmwoI3BhaW50MF9saW5lYXJfMzUxNF80MDIwNSkiIHI9IjcuODU2OTYiIGN5PSI3Ljk5OTA4IiBjeD0iNy45OTgzNSIvPiYjeGE7PGcgY2xpcC1wYXRoPSJ1cmwoI2NsaXAwXzM1MTRfNDAyMDUpIj4mI3hhOzxwYXRoIGZpbGw9InVybCgjcGFpbnQxX2xpbmVhcl8zNTE0XzQwMjA1KSIgZD0iTTEwLjAwMjUgMy4yMTY4SDcuMzQ2MTlDNy4yNDY3NiAzLjIxNjggNy4xNTE0IDMuMjU2MyA3LjA4MTA5IDMuMzI2NjFDNy4wMTA3OCAzLjM5NjkyIDYuOTcxMjggMy40OTIyOCA2Ljk3MTI4IDMuNTkxNzFWNC45MDc4NkM2Ljk3MTI4IDUuMjE1MzMgNi44NjE0NyA1LjQ3ODg3IDYuNjQxODUgNS42OTg0OUM2LjQyMjIzIDUuOTE4MTEgNi4xNTg2OSA2LjAyNzkyIDUuODUxMjIgNi4wMjc5Mkg0LjUzNTA3QzQuNDM1NjQgNi4wMjc5MiA0LjM0MDI4IDYuMDY3NDIgNC4yNjk5NyA2LjEzNzczQzQuMTk5NjYgNi4yMDgwNCA0LjE2MDE2IDYuMzAzNCA0LjE2MDE2IDYuNDAyODNWMTEuMjk5MkM0LjE2MDE2IDExLjc5NjMgNC41NjMxIDEyLjE5OTIgNS4wNjAxNiAxMi4xOTkySDcuMzk4OUM3LjIzMDIgMTIuMDMxMiA3LjA3NjM2IDExLjg0ODMgNi45Mzk1MSAxMS42NTI2QzYuODMyNjkgMTEuNDk5OCA2Ljg2OTk0IDExLjI4OTQgNy4wMjI2OSAxMS4xODI2QzcuMTc1NDUgMTEuMDc1OCA3LjM4NTg3IDExLjExMyA3LjQ5MjY4IDExLjI2NThDNy43MTc5NSAxMS41ODc5IDcuOTk4NjEgMTEuODY4NiA4LjMyMDc2IDEyLjA5MzhDOC4zNjE4IDEyLjEyMjUgOC4zOTQ0OSAxMi4xNTg3IDguNDE4MyAxMi4xOTkySDEwLjAwMjVDMTAuNDIxNCAxMi4xOTkyIDEwLjc3MzUgMTEuOTEzIDEwLjg3MzggMTEuNTI1NEMxMC43NDUgMTEuNTQ5IDEwLjYxMjEgMTEuNTYwOCAxMC40NzU2IDExLjU2MDhIMTAuMDE0MkM5Ljc1NDIgMTEuNTYwOCA5LjUzMTk0IDExLjQ1MTkgOS4zNjU3NSAxMS4yODU3QzkuMjI5NjggMTEuMTQ5NyA5LjE0MjQ0IDEwLjk4MDkgOS4xMTIzOSAxMC43OTQ2TDguNzUwNTMgMTAuNzk4NkM4LjUxNTcyIDEwLjc5ODYgOC4yNzg1NyAxMC43MjAxIDguMDkyMDIgMTAuNTMzNUM3LjkwNTQ3IDEwLjM0NyA3LjgyNjk3IDEwLjEwOTggNy44MjY5NyA5Ljg3NTAzQzcuODI2OTcgOS42OTgzMyA3Ljg3MTQyIDkuNTIwMzIgNy45NzI5MSA5LjM2MzUzQzcuODcxNDIgOS4yMDY3NCA3LjgyNjk3IDkuMDI4NzIgNy44MjY5NyA4Ljg1MjAzQzcuODI2OTcgOC42MTcyMiA3LjkwNTQ3IDguMzgwMDcgOC4wOTIwMiA4LjE5MzUyQzguMjgzMTkgOC4wMDIzNCA4LjUyNDc3IDcuOTM4NSA4Ljc0MDUgNy45Mzg1TDkuMTEzNDUgNy45Mzg1QzkuMTQyNCA3Ljc1ODg4IDkuMjIxOTkgNy41ODUwNyA5LjM2NTc1IDcuNDQxMzJDOS41NDI0NiA3LjI2NDYgOS43NzQ3OSA3LjE2NzE4IDEwLjAzMTIgNy4xNzU5OEwxMC40NjkzIDcuMTY2MjRIMTAuNDc1NkMxMC42MjIxIDcuMTY2MjQgMTAuNzY0NyA3LjE3OTI3IDEwLjkwMjUgNy4yMDU4MVY2LjA2NzYxQzEwLjg3NTEgNi4wNjk2IDEwLjg0NzEgNi4wNjgyOCAxMC44MTg5IDYuMDYzMjlDMTAuNjI4OSA2LjAyOTcxIDEwLjQzMzIgNi4wMTIxNiAxMC4yMzMxIDYuMDEyMTZDMTAuMDMyOSA2LjAxMjE2IDkuODM3MTcgNi4wMjk3MSA5LjY0NzE4IDYuMDYzMjlDOS40NjM2MyA2LjA5NTczIDkuMjg4NTQgNS45NzMyMyA5LjI1NjEgNS43ODk2OEM5LjIyMzY2IDUuNjA2MTMgOS4zNDYxNiA1LjQzMTAzIDkuNTI5NzEgNS4zOTg1OUM5Ljc1ODMxIDUuMzU4MTkgOS45OTMzNiA1LjMzNzE2IDEwLjIzMzEgNS4zMzcxNkMxMC40NjA5IDUuMzM3MTYgMTAuNjg0NiA1LjM1NjE3IDEwLjkwMjUgNS4zOTI3NVY0LjExNjhDMTAuOTAyNSAzLjYxOTc0IDEwLjQ5OTUgMy4yMTY4IDEwLjAwMjUgMy4yMTY4Wk04LjQwMzk1IDYuMTQzMTFDOC41MTA3NiA2LjI5NTg2IDguNDczNTIgNi41MDYyOCA4LjMyMDc2IDYuNjEzMUM3Ljk5ODYxIDYuODM4MzcgNy43MTc5NSA3LjExOTAyIDcuNDkyNjggNy40NDExOEM3LjM4NTg3IDcuNTkzOTMgNy4xNzU0NSA3LjYzMTE4IDcuMDIyNjkgNy41MjQzNkM2Ljg2OTk0IDcuNDE3NTUgNi44MzI2OSA3LjIwNzEzIDYuOTM5NTEgNy4wNTQzN0M3LjIxMDA2IDYuNjY3NDUgNy41NDcwMyA2LjMzMDQ4IDcuOTMzOTUgNi4wNTk5MkM4LjA4NjcxIDUuOTUzMTEgOC4yOTcxMyA1Ljk5MDM1IDguNDAzOTUgNi4xNDMxMVpNNi42NjkyNyA4LjM3NjUxQzYuODUyODIgOC40MDg5NSA2Ljk3NTMyIDguNTg0MDUgNi45NDI4OCA4Ljc2NzZDNi45MDkzIDguOTU3NTkgNi44OTE3NSA5LjE1MzM0IDYuODkxNzUgOS4zNTM0N0M2Ljg5MTc1IDkuNTUzNiA2LjkwOTMgOS43NDkzNSA2Ljk0Mjg4IDkuOTM5MzRDNi45NzUzMiAxMC4xMjI5IDYuODUyODIgMTAuMjk4IDYuNjY5MjcgMTAuMzMwNEM2LjQ4NTcyIDEwLjM2MjkgNi4zMTA2MiAxMC4yNDA0IDYuMjc4MTggMTAuMDU2OEM2LjIzNzc4IDkuODI4MjEgNi4yMTY3NSA5LjU5MzE2IDYuMjE2NzUgOS4zNTM0N0M2LjIxNjc1IDkuMTEzNzggNi4yMzc3OCA4Ljg3ODczIDYuMjc4MTggOC42NTAxM0M2LjMxMDYyIDguNDY2NTcgNi40ODU3MiA4LjM0NDA3IDYuNjY5MjcgOC4zNzY1MVoiIGNsaXAtcnVsZT0iZXZlbm9kZCIgZmlsbC1ydWxlPSJldmVub2RkIi8+JiN4YTs8cGF0aCBmaWxsPSJ1cmwoI3BhaW50Ml9saW5lYXJfMzUxNF80MDIwNSkiIGQ9Ik04LjQ4OTk0IDguNTkxMjlDOC40MjMwOCA4LjY1ODE1IDguMzg5NjUgOC43NDUwNyA4LjM4OTY1IDguODUyMDVDOC4zODk2NSA4Ljk1OTAzIDguNDIzMDggOS4wNDU5NSA4LjQ4OTk0IDkuMTEyODFDOC41NTY4MSA5LjE3OTY4IDguNjQzNzMgOS4yMTMxMSA4Ljc1MDcxIDkuMjEzMTFMOS42NjMzOCA5LjIwMzA4TDkuNjYzMzggOS41MjQwMkw4Ljc1MDcxIDkuNTEzOTlDOC42NDM3MyA5LjUxMzk5IDguNTU2ODEgOS41NDc0MiA4LjQ4OTk0IDkuNjE0MjhDOC40MjMwOCA5LjY4MTE1IDguMzg5NjUgOS43NjgwNyA4LjM4OTY1IDkuODc1MDVDOC4zODk2NSA5Ljk4MjAzIDguNDIzMDggMTAuMDY4OSA4LjQ4OTk0IDEwLjEzNThDOC41NTY4MSAxMC4yMDI3IDguNjQzNzMgMTAuMjM2MSA4Ljc1MDcxIDEwLjIzNjFMOS42NjMzOCAxMC4yMjYxVjEwLjY0NzNDOS42NjMzOCAxMC43NDA5IDkuNjk2ODEgMTAuODIxMiA5Ljc2MzY3IDEwLjg4OEM5LjgzNzIyIDEwLjk2MTYgOS45MjA4IDEwLjk5ODMgMTAuMDE0NCAxMC45OTgzSDEwLjQ3NThDMTAuODYzNiAxMC45OTgzIDExLjE5NDUgMTAuODc0NiAxMS40Njg3IDEwLjYyNzNDMTEuNzQyOCAxMC4zNzk5IDExLjg5OTkgMTAuMDY4OSAxMS45NCA5LjY5NDUyTDEyLjg0MTMgOS42OTQ1MUMxMi45NDgzIDkuNjk0NTEgMTMuMDM1MiA5LjY2MTA4IDEzLjEwMjEgOS41OTQyMUMxMy4xNjIzIDkuNTM0MDQgMTMuMTkyNCA5LjQ1MDQ2IDEzLjE5MjQgOS4zNDM0OEMxMy4xOTI0IDkuMjM2NSAxMy4xNTg5IDkuMTQ5NTggMTMuMDkyMSA5LjA4MjcyQzEzLjAyNTIgOS4wMTU4NSAxMi45MzgzIDguOTgyNDIgMTIuODMxMyA4Ljk4MjQyTDExLjkzIDguOTgyNDNDMTEuODc2NSA4LjYyMTM3IDExLjcxNjEgOC4zMjA0OSAxMS40NDg2IDguMDc5NzlDMTEuMTg3OCA3Ljg0NTc3IDEwLjg2MzYgNy43Mjg3NiAxMC40NzU4IDcuNzI4NzZMMTAuMDI0NCA3LjczODc5QzkuOTI0MTQgNy43MzIxIDkuODM3MjIgNy43NjU1MyA5Ljc2MzY3IDcuODM5MDhDOS42OTY4MSA3LjkwNTk1IDkuNjYzMzggNy45OTI4NyA5LjY2MzM4IDguMDk5ODVMOS42NjMzOCA4LjUwMTAyTDguNzQwNjggOC41MDEwMkM4LjYzMzcgOC41MDEwMiA4LjU1MDEyIDguNTMxMTEgOC40ODk5NCA4LjU5MTI5WiIvPiYjeGE7PHBhdGggZmlsbD0idXJsKCNwYWludDNfbGluZWFyXzM1MTRfNDAyMDUpIiBkPSJNNi41NTQzMSA0Ljg1MTM4VjMuODUzNTJMNC43OTY4OCA1LjYxMDk1SDUuNzk0NzRDNi4wMDMyNSA1LjYxMDk1IDYuMTgxOTcgNS41MzY0OCA2LjMzMDkxIDUuMzg3NTVDNi40Nzk4NCA1LjIzODYxIDYuNTU0MzEgNS4wNTk4OSA2LjU1NDMxIDQuODUxMzhaIi8+JiN4YTs8L2c+JiN4YTs8ZGVmcz4mI3hhOzxsaW5lYXJHcmFkaWVudCBncmFkaWVudFVuaXRzPSJ1c2VyU3BhY2VPblVzZSIgeTI9IjE0Ljc0NyIgeDI9IjEzLjY4NjQiIHkxPSIyLjI3MDE2IiB4MT0iMS40NDk0NiIgaWQ9InBhaW50MF9saW5lYXJfMzUxNF80MDIwNSI+JiN4YTs8c3RvcCBzdG9wLWNvbG9yPSJ3aGl0ZSIvPiYjeGE7PHN0b3Agc3RvcC1jb2xvcj0iI0VBRUNFRSIgb2Zmc2V0PSIxIi8+JiN4YTs8L2xpbmVhckdyYWRpZW50PiYjeGE7PGxpbmVhckdyYWRpZW50IGdyYWRpZW50VW5pdHM9InVzZXJTcGFjZU9uVXNlIiB5Mj0iOS4wOTUyMSIgeDI9IjExLjIxMDciIHkxPSI0LjU2MDA2IiB4MT0iNS4xNzA4NiIgaWQ9InBhaW50MV9saW5lYXJfMzUxNF80MDIwNSI+JiN4YTs8c3RvcCBzdG9wLWNvbG9yPSIjMDE5NUZGIi8+JiN4YTs8c3RvcCBzdG9wLWNvbG9yPSIjMTE0N0U5IiBvZmZzZXQ9IjAuOTkxMDI4Ii8+JiN4YTs8L2xpbmVhckdyYWRpZW50PiYjeGE7PGxpbmVhckdyYWRpZW50IGdyYWRpZW50VW5pdHM9InVzZXJTcGFjZU9uVXNlIiB5Mj0iMTEuMzQ1NCIgeDI9IjExLjIyNTIiIHkxPSI4LjIwOTc5IiB4MT0iOS4wOTk3IiBpZD0icGFpbnQyX2xpbmVhcl8zNTE0XzQwMjA1Ij4mI3hhOzxzdG9wIHN0b3AtY29sb3I9IiMxMzQ4RkYiLz4mI3hhOzxzdG9wIHN0b3AtY29sb3I9IiMwNjIzOEQiIG9mZnNldD0iMSIvPiYjeGE7PC9saW5lYXJHcmFkaWVudD4mI3hhOzxsaW5lYXJHcmFkaWVudCBncmFkaWVudFVuaXRzPSJ1c2VyU3BhY2VPblVzZSIgeTI9IjUuMzQ3MzEiIHgyPSI2LjI4NjYzIiB5MT0iNC4xMTIwNyIgeDE9IjUuMDU2NyIgaWQ9InBhaW50M19saW5lYXJfMzUxNF80MDIwNSI+JiN4YTs8c3RvcCBzdG9wLWNvbG9yPSIjMTM0OEZGIi8+JiN4YTs8c3RvcCBzdG9wLWNvbG9yPSIjMDYyMzhEIiBvZmZzZXQ9IjEiLz4mI3hhOzwvbGluZWFyR3JhZGllbnQ+JiN4YTs8Y2xpcFBhdGggaWQ9ImNsaXAwXzM1MTRfNDAyMDUiPiYjeGE7PHJlY3QgdHJhbnNmb3JtPSJ0cmFuc2xhdGUoNC4xOTg0OSAzLjE5OTIyKSIgZmlsbD0id2hpdGUiIGhlaWdodD0iOSIgd2lkdGg9IjkiLz4mI3hhOzwvY2xpcFBhdGg+JiN4YTs8L2RlZnM+JiN4YTs8L3N2Zz4=;points=[[0,0,0,0,0],[0,0.25,0,0,0],[0,0.5,0,0,0],[0,0.75,0,0,0],[0.25,0,0,0,0],[0.5,0,0,0,0],[0.75,0,0,0,0],[1,0,0,0,0],[1,0.25,0,0,0],[1,0.5,0,0,0],[1,0.75,0,0,0]];" vertex="1" parent="16">
                    <mxGeometry x="461" y="228.5" width="48" height="48" as="geometry"/>
                </mxCell>
                <mxCell id="22" value="&lt;b style=&quot;border-color: var(--border-color); font-size: 14px;&quot;&gt;&lt;font style=&quot;border-color: var(--border-color);&quot; color=&quot;#1d2d3e&quot;&gt;SAP Destination service&lt;/font&gt;&lt;/b&gt;&lt;font color=&quot;#1d2d3e&quot; size=&quot;1&quot; face=&quot;arial&quot; style=&quot;&quot;&gt;&lt;b style=&quot;font-size: 14px;&quot;&gt;&lt;br&gt;&lt;/b&gt;&lt;/font&gt;" style="text;html=1;align=center;verticalAlign=top;resizable=1;points=[[0,0.5,0,0,0],[0.21,1,0,0,0],[0.5,1,0,0,0],[0.85,1,0,0,0],[1,0.5,0,0,0]];autosize=0;strokeColor=none;fillColor=none;fontSize=12;fontColor=default;fontFamily=Arial;fixedWidth=1;imageWidth=24;whiteSpace=wrap;labelBackgroundColor=none;" vertex="1" parent="16">
                    <mxGeometry x="430" y="276.5000000000001" width="110" height="46" as="geometry"/>
                </mxCell>
                <mxCell id="23" value="" style="group" vertex="1" connectable="0" parent="16">
                    <mxGeometry x="260" y="228.5" width="110" height="95.00000000000011" as="geometry"/>
                </mxCell>
                <mxCell id="24" value="" style="shape=image;verticalLabelPosition=bottom;verticalAlign=top;imageAspect=0;aspect=fixed;image=data:image/svg+xml,PHN2ZyB4bWxucz0iaHR0cDovL3d3dy53My5vcmcvMjAwMC9zdmciIGZpbGw9Im5vbmUiIHZpZXdCb3g9IjAgMCA0OSA0OSIgaGVpZ2h0PSI0OSIgd2lkdGg9IjQ5Ij4mI3hhOzxnIGNsaXAtcGF0aD0idXJsKCNjbGlwMF8yNjIyXzM2NTQpIj4mI3hhOzxjaXJjbGUgc3Ryb2tlLXdpZHRoPSIwLjg1NzE0MyIgc3Ryb2tlPSIjRDVEQUREIiBmaWxsPSJ1cmwoI3BhaW50MF9saW5lYXJfMjYyMl8zNjU0KSIgcj0iMjMuNTcxNCIgY3k9IjI0LjAzNDkiIGN4PSIyNC41Ii8+JiN4YTs8ZyBjbGlwLXBhdGg9InVybCgjY2xpcDFfMjYyMl8zNjU0KSI+JiN4YTs8cGF0aCBmaWxsPSJ1cmwoI3BhaW50MV9yYWRpYWxfMjYyMl8zNjU0KSIgZD0iTTIzLjU5OTUgMTMuOTg0OUMyMC41MTU1IDEzLjk4NDkgMTguMjA3MSAxNi45NzU4IDE4LjQyMDQgMTkuODA4OUMxOC40NTE2IDIwLjIyNCAxOC4yODk2IDIwLjYzMDMgMTcuOTgxMyAyMC45MUMxNy42NzMgMjEuMTg5NyAxNy4yNTMgMjEuMzExNiAxNi44NDI4IDIxLjI0MDJDMTUuNTU2NyAyMS4wMTY2IDE0LjYyMjQgMjEuMzYxMyAxNC4wMDU2IDIxLjkyOUMxMy4zNjc3IDIyLjUxNjEgMTIuOTUgMjMuNDU0MSAxMi45NSAyNC42MDQ0QzEyLjk1IDI1Ljc0MDUgMTMuMjg4MSAyNi41NzY3IDEzLjgyMDYgMjcuMTIzMUMxNC4zNDU4IDI3LjY2MjEgMTUuMjA3NCAyOC4wNzA0IDE2LjU2MDQgMjguMDcwNEgxOS43NTg0QzIwLjUwNCAyOC4wNzA0IDIxLjEwODQgMjguNjc0OCAyMS4xMDg0IDI5LjQyMDRDMjEuMTA4NCAzMC4xNjYgMjAuNTA0IDMwLjc3MDQgMTkuNzU4NCAzMC43NzA0SDE2LjU2MDRDMTQuNjQyOSAzMC43NzA0IDEzLjAyNDIgMzAuMTc0NSAxMS44ODY5IDI5LjAwNzRDMTAuNzU2OCAyNy44NDc4IDEwLjI1IDI2LjI3NiAxMC4yNSAyNC42MDQ0QzEwLjI1IDIyLjgwODIgMTAuOTA4MyAyMS4xMTAyIDEyLjE3NyAxOS45NDI0QzEzLjEzMTkgMTkuMDYzNiAxNC4zNjc5IDE4LjU0NTMgMTUuNzcxNSAxOC40NzkxQzE2LjI0NDIgMTQuODE1MiAxOS4yOTc4IDExLjI4NDkgMjMuNTk5NSAxMS4yODQ5QzI2Ljk4OSAxMS4yODQ5IDI5LjUzMSAxMy4xNzg2IDMwLjkwODIgMTYuMDA3OEMzMy40MTY0IDE2LjAyODMgMzUuNzU0OSAxNy40OTUgMzYuNTQ2NCAyMC4zMzE0QzM2Ljc0NjggMjEuMDQ5NiAzNi4zMjcxIDIxLjc5NDIgMzUuNjA5IDIxLjk5NDZDMzQuODkwOSAyMi4xOTUxIDM0LjE0NjIgMjEuNzc1NCAzMy45NDU4IDIxLjA1NzJDMzMuNDU1OSAxOS4zMDE3IDMxLjk2MTcgMTguNDkxIDMwLjI1MDggMTguNzU0M0MyOS42MTc5IDE4Ljg1MTcgMjkuMDAzNyAxOC40OTEgMjguNzgwMyAxNy44OTA5QzI3Ljg1OCAxNS40MTM0IDI2LjAzMjYgMTMuOTg0OSAyMy41OTk1IDEzLjk4NDlaIiBjbGlwLXJ1bGU9ImV2ZW5vZGQiIGZpbGwtcnVsZT0iZXZlbm9kZCIvPiYjeGE7PHBhdGggZmlsbD0idXJsKCNwYWludDJfcmFkaWFsXzI2MjJfMzY1NCkiIGQ9Ik0yNS40OTk1IDI0LjA3MjdIMjYuMTUwMlYyNC43ODQ5SDI2Ljg2MDlWMjIuNjU4MkgyNi4xNTAyVjIzLjM2MDVIMjUuNDk5NVYyMi42NTgySDI0Ljc4ODlWMjQuNzg0OUgyNS40OTk1VjI0LjA3MjdaTTI3Ljc5NiAyNC43ODQ5SDI4LjUwNzJWMjMuMzYzNkgyOS4xMzMyVjIyLjY1ODJIMjcuMTdWMjMuMzYzNkgyNy43OTZWMjQuNzg0OVpNMzAuNjI5NiAyNC40ODY5TDMwLjE0MDIgMjMuNzMwNVYyNC43ODQ5SDI5LjQ0NDhWMjIuNjU4MkgzMC4xODZMMzAuNjQyMiAyMy40MDUxTDMxLjA5NzQgMjIuNjU4MkgzMS44MzkxVjI0Ljc4NDlIMzEuMTMxMVYyMy43MzA1TDMwLjY0MjIgMjQuNDg2OUgzMC42Mjk2Wk0zMy44NTg5IDI0LjA4MTZIMzIuODU5MVYyMi42NTgySDMyLjE0NzlWMjQuNzg0OUgzMy44NTg5VjI0LjA4MTZaTTI0Ljc2NTcgMzcuMDE4MUwyMy43NDkxIDI1LjYxNzJIMzQuOTI0TDMzLjkwNTkgMzcuMDE2NkwyOS4zMjk4IDM4LjI4NDlMMjQuNzY1NyAzNy4wMTgxWk0yNi42MDI2IDI5LjAxNjNMMjYuODczMyAzMi4wNTI4SDI5LjMzMjJIMjkuMzM5NUgzMC42ODk0TDMwLjU2MTYgMzMuNDgxNUwyOS4zMzIyIDMzLjgxMzJMMjguMTAzOCAzMy40ODI1TDI4LjAyNDkgMzIuNjAzN0gyNy40Mjg5SDI2LjkxODVMMjcuMDczIDM0LjMzMzVMMjkuMzMxMSAzNC45NjAxTDI5LjMzNTkgMzQuOTU4NUwzMS41OTE5IDM0LjMzMzVMMzEuNjA4MiAzNC4xNDc1TDMxLjg2NzMgMzEuMjQ3TDMxLjg5NDEgMzAuOTUxMUgzMS41OTcxSDI5LjMzOTVIMjkuMzMyMkgyNy44ODE0TDI3Ljc4MDUgMjkuODIyNkgyOS4zMzU5SDI5LjMzOTVIMzEuOTk0NUgzMS45OTgyTDMyLjAyMDMgMjkuNTc1TDMyLjA3MDcgMjkuMDE2M0wzMi4wOTcgMjguNzIwOUgyOS4zMzk1SDI5LjMzNTlIMjYuNTc2M0wyNi42MDI2IDI5LjAxNjNaIiBjbGlwLXJ1bGU9ImV2ZW5vZGQiIGZpbGwtcnVsZT0iZXZlbm9kZCIvPiYjeGE7PC9nPiYjeGE7PC9nPiYjeGE7PGRlZnM+JiN4YTs8bGluZWFyR3JhZGllbnQgZ3JhZGllbnRVbml0cz0idXNlclNwYWNlT25Vc2UiIHkyPSI0NC4yNzkyIiB4Mj0iNDEuNTY0NSIgeTE9IjYuODQ3NzUiIHgxPSI0Ljg1Mjg3IiBpZD0icGFpbnQwX2xpbmVhcl8yNjIyXzM2NTQiPiYjeGE7PHN0b3Agc3RvcC1jb2xvcj0id2hpdGUiLz4mI3hhOzxzdG9wIHN0b3AtY29sb3I9IiNFQUVDRUUiIG9mZnNldD0iMSIvPiYjeGE7PC9saW5lYXJHcmFkaWVudD4mI3hhOzxyYWRpYWxHcmFkaWVudCBncmFkaWVudFRyYW5zZm9ybT0idHJhbnNsYXRlKDE0LjMzNTYgMTQuMTQ2KSByb3RhdGUoMzYuNzkwNykgc2NhbGUoMjIuNzc3NSA0MS4yODQpIiBncmFkaWVudFVuaXRzPSJ1c2VyU3BhY2VPblVzZSIgcj0iMSIgY3k9IjAiIGN4PSIwIiBpZD0icGFpbnQxX3JhZGlhbF8yNjIyXzM2NTQiPiYjeGE7PHN0b3Agc3RvcC1jb2xvcj0iIzAxOTVGRiIvPiYjeGE7PHN0b3Agc3RvcC1jb2xvcj0iIzExNDdFOSIgb2Zmc2V0PSIxIi8+JiN4YTs8L3JhZGlhbEdyYWRpZW50PiYjeGE7PHJhZGlhbEdyYWRpZW50IGdyYWRpZW50VHJhbnNmb3JtPSJ0cmFuc2xhdGUoMjUuNDc5NiAyNS4wMDkpIHJvdGF0ZSg1NC40MzA5KSBzY2FsZSgxMy4zODIxIDExLjUzOTcpIiBncmFkaWVudFVuaXRzPSJ1c2VyU3BhY2VPblVzZSIgcj0iMSIgY3k9IjAiIGN4PSIwIiBpZD0icGFpbnQyX3JhZGlhbF8yNjIyXzM2NTQiPiYjeGE7PHN0b3Agc3RvcC1jb2xvcj0iIzEzNDhGRiIvPiYjeGE7PHN0b3Agc3RvcC1jb2xvcj0iIzA2MjM4RCIgb2Zmc2V0PSIxIi8+JiN4YTs8L3JhZGlhbEdyYWRpZW50PiYjeGE7PGNsaXBQYXRoIGlkPSJjbGlwMF8yNjIyXzM2NTQiPiYjeGE7PHJlY3QgdHJhbnNmb3JtPSJ0cmFuc2xhdGUoMC41IDAuMDM0OTEyMSkiIGZpbGw9IndoaXRlIiBoZWlnaHQ9IjQ4IiB3aWR0aD0iNDgiLz4mI3hhOzwvY2xpcFBhdGg+JiN4YTs8Y2xpcFBhdGggaWQ9ImNsaXAxXzI2MjJfMzY1NCI+JiN4YTs8cmVjdCB0cmFuc2Zvcm09InRyYW5zbGF0ZSgxMC4yNSAxMS4yODQ5KSIgZmlsbD0id2hpdGUiIGhlaWdodD0iMjciIHdpZHRoPSIyNyIvPiYjeGE7PC9jbGlwUGF0aD4mI3hhOzwvZGVmcz4mI3hhOzwvc3ZnPg==;points=[[0,0,0,0,0],[0,0.25,0,0,0],[0,0.5,0,0,0],[0,0.75,0,0,0],[0.25,0,0,0,0],[0.5,0,0,0,0],[0.75,0,0,0,0],[1,0,0,0,0],[1,0.25,0,0,0],[1,0.5,0,0,0],[1,0.75,0,0,0]];" vertex="1" parent="23">
                    <mxGeometry x="30.499999999999773" width="49" height="49" as="geometry"/>
                </mxCell>
                <mxCell id="25" value="&lt;b style=&quot;border-color: var(--border-color); font-size: 14px;&quot;&gt;&lt;font style=&quot;border-color: var(--border-color);&quot; color=&quot;#1d2d3e&quot;&gt;HTML5 App Repository&lt;/font&gt;&lt;/b&gt;&lt;font color=&quot;#1d2d3e&quot; size=&quot;1&quot; face=&quot;arial&quot; style=&quot;&quot;&gt;&lt;b style=&quot;font-size: 14px;&quot;&gt;&lt;br&gt;&lt;/b&gt;&lt;/font&gt;" style="text;html=1;align=center;verticalAlign=top;resizable=1;points=[[0,0.5,0,0,0],[0.21,1,0,0,0],[0.5,1,0,0,0],[0.85,1,0,0,0],[1,0.5,0,0,0]];autosize=0;strokeColor=none;fillColor=none;fontSize=12;fontColor=default;fontFamily=Helvetica;fixedWidth=1;imageWidth=24;whiteSpace=wrap;labelBackgroundColor=none;" vertex="1" parent="23">
                    <mxGeometry y="49.000000000000114" width="110" height="46" as="geometry"/>
                </mxCell>
                <mxCell id="26" value="" style="group" vertex="1" connectable="0" parent="16">
                    <mxGeometry x="70" y="140" width="110" height="100" as="geometry"/>
                </mxCell>
                <mxCell id="27" value="" style="shape=image;verticalLabelPosition=bottom;labelBackgroundColor=default;verticalAlign=top;aspect=fixed;imageAspect=0;image=data:image/svg+xml,PHN2ZyB4bWxucz0iaHR0cDovL3d3dy53My5vcmcvMjAwMC9zdmciIGZpbGw9Im5vbmUiIHZpZXdCb3g9IjAgMCAxNiAxNiIgaGVpZ2h0PSIxNiIgd2lkdGg9IjE2Ij4mI3hhOzxnIGNsaXAtcGF0aD0idXJsKCNjbGlwMF8zMTA2XzI3MTAxKSI+JiN4YTs8Y2lyY2xlIHN0cm9rZS13aWR0aD0iMC4yNzM4MDkiIHN0cm9rZT0iI0Q1REFERCIgZmlsbD0idXJsKCNwYWludDBfbGluZWFyXzMxMDZfMjcxMDEpIiByPSI3LjUyOTc0IiBjeT0iNy45OTk4OSIgY3g9IjcuOTk4OTIiLz4mI3hhOzxnIGNsaXAtcGF0aD0idXJsKCNjbGlwMV8zMTA2XzI3MTAxKSI+JiN4YTs8bWFzayBoZWlnaHQ9IjEzIiB3aWR0aD0iMTIiIHk9IjIiIHg9IjIiIG1hc2tVbml0cz0idXNlclNwYWNlT25Vc2UiIHN0eWxlPSJtYXNrLXR5cGU6YWxwaGEiIGlkPSJtYXNrMF8zMTA2XzI3MTAxIj4mI3hhOzxwYXRoIGZpbGw9ImJsYWNrIiBkPSJNOC40MjExOCAxMC43MzMzQzguNjQxMDYgMTEuMzUyNCA5LjI4Njc1IDExLjcwNDcgMTAuMDEwNSAxMS43MDQ3QzEwLjczNDIgMTEuNzA0NyAxMS4zNDY4IDExLjE3OTEgMTEuNTE5NyAxMC43MDdMMTIuODg3NyA2LjkzODQ5QzEzLjE2MDEgNi4xODgwNCAxMi43NzQyIDUuMzU4MjQgMTIuMDI1OCA1LjA4NTFDMTEuMzM3NCA0LjgzMzg5IDEwLjU4MjIgNS4xNDEgMTAuMjUzNCA1Ljc3NTcyQzEwLjIwMTEgNS44OTQwOSAxMC4xNDc1IDYuMDcyMTYgMTAuMjExNiA2LjI2MTc3TDEwLjg5OTYgOC4xNjUzMUMxMC45MzQxIDguMjYwNzUgMTAuODg5NSA4LjM2NjczIDEwLjc5NzIgOC40MDg0NUMxMC42ODMzIDguNDU5OTMgMTAuNTQ2OCA4LjM5MjYzIDEwLjUxNjggOC4yNzEwNkMxMC4yOTc0IDcuMzgyODcgOS41NjI3OCA2LjgxNjE3IDguNjU0NiA3LjE1MDYzQzcuNzQ2NDIgNy40ODUxIDcuNTU1MjEgOC4zNDc3MiA3LjgyNzYzIDkuMDk4MThMOC40MjExOCAxMC43MzMzWiIvPiYjeGE7PHBhdGggZmlsbD0iYmxhY2siIGQ9Ik0zLjQ3MjEzIDYuOTMyNDVDMy4xOTk3MiA2LjE4MTk5IDMuNTg1NjIgNS4zNTIyIDQuMzM0MDYgNS4wNzkwNkM1LjA4MjUxIDQuODA1OTEgNS45MTAwOCA1LjE5Mjg1IDYuMTgyNSA1Ljk0MzMxTDcuNTQ5NzQgOS43MDk4MkM3LjgyMjE1IDEwLjQ2MDMgNy40MzYyNiAxMS4yOTAxIDYuNjg3ODEgMTEuNTYzMkM1LjkzOTM2IDExLjgzNjQgNS4xMTE3OSAxMS40NDk0IDQuODM5MzcgMTAuNjk5TDMuNDcyMTMgNi45MzI0NVoiLz4mI3hhOzwvbWFzaz4mI3hhOzxnIG1hc2s9InVybCgjbWFzazBfMzEwNl8yNzEwMSkiPiYjeGE7PGcgZmlsdGVyPSJ1cmwoI2ZpbHRlcjBfZF8zMTA2XzI3MTAxKSI+JiN4YTs8cGF0aCBmaWxsPSJ1cmwoI3BhaW50MV9yYWRpYWxfMzEwNl8yNzEwMSkiIGQ9Ik02LjYzNDM0IDAuODcxOTU0QzguNjcyNDkgMC4yOTI4MzUgMTEuMDgyMyAxLjI5MTgzIDEyLjU1MTQgMy45Mzg4NEMxNi4zMzM1IDkuMDE5NDkgMTkuNzUzNyAxNC45MTk2IDExLjk2MDkgMTcuNjc2OEM0LjE2ODEzIDIwLjQzNCA0LjM1MDY3IDE0Ljc3ODIgMS43NTIyNSAxMC4wOTY0Qy0wLjg0NjE2NyA1LjQxNDU1IDQuNTk2MTkgMS40NTEwNyA2LjYzNDM0IDAuODcxOTU0WiIvPiYjeGE7PC9nPiYjeGE7PGcgZmlsdGVyPSJ1cmwoI2ZpbHRlcjFfZF8zMTA2XzI3MTAxKSI+JiN4YTs8cGF0aCBmaWxsPSJ1cmwoI3BhaW50Ml9yYWRpYWxfMzEwNl8yNzEwMSkiIGQ9Ik0xMi42NTQyIDEwLjI3OThDMTEuODQ2MiAxMi4wMTA3IDkuNTMyOTggMTQuMDk2MSA3Ljk2MzgxIDE0LjIzNTdDNC43NDYwMyAxNC45MzE0IC0wLjI2MjI1NSAxMS43NDczIDAuMTY2MTEgOS41ODQ4MUMwLjU5NDQ3NSA3LjQyMjM3IDQuNjY1NjUgNi4zNjU5OSA3LjQ1MjY5IDYuMzg5OTNDMTAuMjM5NyA2LjQxMzg4IDEzLjQ2MjEgOC41NDg5NSAxMi42NTQyIDEwLjI3OThaIi8+JiN4YTs8L2c+JiN4YTs8ZyBmaWx0ZXI9InVybCgjZmlsdGVyMl9kXzMxMDZfMjcxMDEpIj4mI3hhOzxwYXRoIGZpbGw9InVybCgjcGFpbnQzX3JhZGlhbF8zMTA2XzI3MTAxKSIgZD0iTTMuMzUzNjEgOC4zOTkzNkM2Ljk2MjAxIDcuNDQ1NTcgMTAuMTEwOSA3LjMwNjg2IDEwLjQ4NjcgMTAuNjg5NkMxMC43OTE3IDEzLjQzNDkgNi45NTY4IDE1LjY1NzggNC4yMTE0NyAxNS45NjI4QzEuNDY2MTQgMTYuMjY3OCAtMC4xMDIyOTYgOS4zMTI4NCAzLjM1MzYxIDguMzk5MzZaIi8+JiN4YTs8L2c+JiN4YTs8L2c+JiN4YTs8L2c+JiN4YTs8L2c+JiN4YTs8ZGVmcz4mI3hhOzxmaWx0ZXIgY29sb3ItaW50ZXJwb2xhdGlvbi1maWx0ZXJzPSJzUkdCIiBmaWx0ZXJVbml0cz0idXNlclNwYWNlT25Vc2UiIGhlaWdodD0iMTkuMDM1MiIgd2lkdGg9IjE2Ljk0MTQiIHk9IjAuMDg1MTI1NCIgeD0iMC42MTQ4MjkiIGlkPSJmaWx0ZXIwX2RfMzEwNl8yNzEwMSI+JiN4YTs8ZmVGbG9vZCByZXN1bHQ9IkJhY2tncm91bmRJbWFnZUZpeCIgZmxvb2Qtb3BhY2l0eT0iMCIvPiYjeGE7PGZlQ29sb3JNYXRyaXggcmVzdWx0PSJoYXJkQWxwaGEiIHZhbHVlcz0iMCAwIDAgMCAwIDAgMCAwIDAgMCAwIDAgMCAwIDAgMCAwIDAgMTI3IDAiIHR5cGU9Im1hdHJpeCIgaW49IlNvdXJjZUFscGhhIi8+JiN4YTs8ZmVPZmZzZXQgZHk9IjAuMDQ0ODQwNCIgZHg9IjAuMjI0MjAyIi8+JiN4YTs8ZmVHYXVzc2lhbkJsdXIgc3RkRGV2aWF0aW9uPSIwLjMzNjMwMyIvPiYjeGE7PGZlQ29tcG9zaXRlIG9wZXJhdG9yPSJvdXQiIGluMj0iaGFyZEFscGhhIi8+JiN4YTs8ZmVDb2xvck1hdHJpeCB2YWx1ZXM9IjAgMCAwIDAgMCAwIDAgMCAwIDAgMCAwIDAgMCAwIDAgMCAwIDAuNCAwIiB0eXBlPSJtYXRyaXgiLz4mI3hhOzxmZUJsZW5kIHJlc3VsdD0iZWZmZWN0MV9kcm9wU2hhZG93XzMxMDZfMjcxMDEiIGluMj0iQmFja2dyb3VuZEltYWdlRml4IiBtb2RlPSJub3JtYWwiLz4mI3hhOzxmZUJsZW5kIHJlc3VsdD0ic2hhcGUiIGluMj0iZWZmZWN0MV9kcm9wU2hhZG93XzMxMDZfMjcxMDEiIGluPSJTb3VyY2VHcmFwaGljIiBtb2RlPSJub3JtYWwiLz4mI3hhOzwvZmlsdGVyPiYjeGE7PGZpbHRlciBjb2xvci1pbnRlcnBvbGF0aW9uLWZpbHRlcnM9InNSR0IiIGZpbHRlclVuaXRzPSJ1c2VyU3BhY2VPblVzZSIgaGVpZ2h0PSI5LjI4ODU3IiB3aWR0aD0iMTMuOTg1MyIgeT0iNS43NjE4OCIgeD0iLTAuMzA4MDIzIiBpZD0iZmlsdGVyMV9kXzMxMDZfMjcxMDEiPiYjeGE7PGZlRmxvb2QgcmVzdWx0PSJCYWNrZ3JvdW5kSW1hZ2VGaXgiIGZsb29kLW9wYWNpdHk9IjAiLz4mI3hhOzxmZUNvbG9yTWF0cml4IHJlc3VsdD0iaGFyZEFscGhhIiB2YWx1ZXM9IjAgMCAwIDAgMCAwIDAgMCAwIDAgMCAwIDAgMCAwIDAgMCAwIDEyNyAwIiB0eXBlPSJtYXRyaXgiIGluPSJTb3VyY2VBbHBoYSIvPiYjeGE7PGZlT2Zmc2V0IGR5PSIwLjA0NDg0MDQiIGR4PSIwLjIyNDIwMiIvPiYjeGE7PGZlR2F1c3NpYW5CbHVyIHN0ZERldmlhdGlvbj0iMC4zMzYzMDMiLz4mI3hhOzxmZUNvbXBvc2l0ZSBvcGVyYXRvcj0ib3V0IiBpbjI9ImhhcmRBbHBoYSIvPiYjeGE7PGZlQ29sb3JNYXRyaXggdmFsdWVzPSIwIDAgMCAwIDAgMCAwIDAgMCAwIDAgMCAwIDAgMCAwIDAgMCAwLjQgMCIgdHlwZT0ibWF0cml4Ii8+JiN4YTs8ZmVCbGVuZCByZXN1bHQ9ImVmZmVjdDFfZHJvcFNoYWRvd18zMTA2XzI3MTAxIiBpbjI9IkJhY2tncm91bmRJbWFnZUZpeCIgbW9kZT0ibm9ybWFsIi8+JiN4YTs8ZmVCbGVuZCByZXN1bHQ9InNoYXBlIiBpbjI9ImVmZmVjdDFfZHJvcFNoYWRvd18zMTA2XzI3MTAxIiBpbj0iU291cmNlR3JhcGhpYyIgbW9kZT0ibm9ybWFsIi8+JiN4YTs8L2ZpbHRlcj4mI3hhOzxmaWx0ZXIgY29sb3ItaW50ZXJwb2xhdGlvbi1maWx0ZXJzPSJzUkdCIiBmaWx0ZXJVbml0cz0idXNlclNwYWNlT25Vc2UiIGhlaWdodD0iOS41MDUzNyIgd2lkdGg9IjEwLjQ3NzgiIHk9IjcuMTg0NDkiIHg9IjAuOTIyOTM0IiBpZD0iZmlsdGVyMl9kXzMxMDZfMjcxMDEiPiYjeGE7PGZlRmxvb2QgcmVzdWx0PSJCYWNrZ3JvdW5kSW1hZ2VGaXgiIGZsb29kLW9wYWNpdHk9IjAiLz4mI3hhOzxmZUNvbG9yTWF0cml4IHJlc3VsdD0iaGFyZEFscGhhIiB2YWx1ZXM9IjAgMCAwIDAgMCAwIDAgMCAwIDAgMCAwIDAgMCAwIDAgMCAwIDEyNyAwIiB0eXBlPSJtYXRyaXgiIGluPSJTb3VyY2VBbHBoYSIvPiYjeGE7PGZlT2Zmc2V0IGR5PSIwLjA0NDg0MDQiIGR4PSIwLjIyNDIwMiIvPiYjeGE7PGZlR2F1c3NpYW5CbHVyIHN0ZERldmlhdGlvbj0iMC4zMzYzMDMiLz4mI3hhOzxmZUNvbXBvc2l0ZSBvcGVyYXRvcj0ib3V0IiBpbjI9ImhhcmRBbHBoYSIvPiYjeGE7PGZlQ29sb3JNYXRyaXggdmFsdWVzPSIwIDAgMCAwIDAgMCAwIDAgMCAwIDAgMCAwIDAgMCAwIDAgMCAwLjQgMCIgdHlwZT0ibWF0cml4Ii8+JiN4YTs8ZmVCbGVuZCByZXN1bHQ9ImVmZmVjdDFfZHJvcFNoYWRvd18zMTA2XzI3MTAxIiBpbjI9IkJhY2tncm91bmRJbWFnZUZpeCIgbW9kZT0ibm9ybWFsIi8+JiN4YTs8ZmVCbGVuZCByZXN1bHQ9InNoYXBlIiBpbjI9ImVmZmVjdDFfZHJvcFNoYWRvd18zMTA2XzI3MTAxIiBpbj0iU291cmNlR3JhcGhpYyIgbW9kZT0ibm9ybWFsIi8+JiN4YTs8L2ZpbHRlcj4mI3hhOzxsaW5lYXJHcmFkaWVudCBncmFkaWVudFVuaXRzPSJ1c2VyU3BhY2VPblVzZSIgeTI9IjE0LjQ2NjgiIHgyPSIxMy40NTAxIiB5MT0iMi41MDk1NyIgeDE9IjEuNzIyNzciIGlkPSJwYWludDBfbGluZWFyXzMxMDZfMjcxMDEiPiYjeGE7PHN0b3Agc3RvcC1jb2xvcj0id2hpdGUiLz4mI3hhOzxzdG9wIHN0b3AtY29sb3I9IiNFQUVDRUUiIG9mZnNldD0iMSIvPiYjeGE7PC9saW5lYXJHcmFkaWVudD4mI3hhOzxyYWRpYWxHcmFkaWVudCBncmFkaWVudFRyYW5zZm9ybT0idHJhbnNsYXRlKDcuMTQyMiAxMC41MTEzKSByb3RhdGUoLTc1LjY1MTMpIHNjYWxlKDE1Ljk3MDUgMTUuNzQ5OCkiIGdyYWRpZW50VW5pdHM9InVzZXJTcGFjZU9uVXNlIiByPSIxIiBjeT0iMCIgY3g9IjAiIGlkPSJwYWludDFfcmFkaWFsXzMxMDZfMjcxMDEiPiYjeGE7PHN0b3Agc3RvcC1jb2xvcj0iIzEzNDhGRiIvPiYjeGE7PHN0b3Agc3RvcC1jb2xvcj0iIzA2MjM4RCIgb2Zmc2V0PSIxIi8+JiN4YTs8L3JhZGlhbEdyYWRpZW50PiYjeGE7PHJhZGlhbEdyYWRpZW50IGdyYWRpZW50VHJhbnNmb3JtPSJ0cmFuc2xhdGUoMy4xOTI5OSA3LjMwMjE1KSByb3RhdGUoMzEuOTgpIHNjYWxlKDE1LjI2ODUgMjcuNTc2KSIgZ3JhZGllbnRVbml0cz0idXNlclNwYWNlT25Vc2UiIHI9IjEiIGN5PSIwIiBjeD0iMCIgaWQ9InBhaW50Ml9yYWRpYWxfMzEwNl8yNzEwMSI+JiN4YTs8c3RvcCBzdG9wLWNvbG9yPSIjMDE5NUZGIi8+JiN4YTs8c3RvcCBzdG9wLWNvbG9yPSIjMTE0N0U5IiBvZmZzZXQ9IjEiLz4mI3hhOzwvcmFkaWFsR3JhZGllbnQ+JiN4YTs8cmFkaWFsR3JhZGllbnQgZ3JhZGllbnRUcmFuc2Zvcm09InRyYW5zbGF0ZSgzLjg2NDM3IDE1LjI1NDIpIHJvdGF0ZSgtNDYuOTU3OSkgc2NhbGUoMTEuNzY0NCAxNi4xODIpIiBncmFkaWVudFVuaXRzPSJ1c2VyU3BhY2VPblVzZSIgcj0iMSIgY3k9IjAiIGN4PSIwIiBpZD0icGFpbnQzX3JhZGlhbF8zMTA2XzI3MTAxIj4mI3hhOzxzdG9wIHN0b3AtY29sb3I9IiMwMEJCRkYiLz4mI3hhOzxzdG9wIHN0b3AtY29sb3I9IiMwMDhCRkYiIG9mZnNldD0iMSIvPiYjeGE7PC9yYWRpYWxHcmFkaWVudD4mI3hhOzxjbGlwUGF0aCBpZD0iY2xpcDBfMzEwNl8yNzEwMSI+JiN4YTs8cmVjdCB0cmFuc2Zvcm09InRyYW5zbGF0ZSgtMC4wMDA5NzY1NjIpIiBmaWxsPSJ3aGl0ZSIgaGVpZ2h0PSIxNS45OTk5IiB3aWR0aD0iMTUuOTk5OSIvPiYjeGE7PC9jbGlwUGF0aD4mI3hhOzxjbGlwUGF0aCBpZD0iY2xpcDFfMzEwNl8yNzEwMSI+JiN4YTs8cmVjdCB0cmFuc2Zvcm09InRyYW5zbGF0ZSgzLjMzMjI4IDMuNSkiIGZpbGw9IndoaXRlIiBoZWlnaHQ9IjkuNjY2NjQiIHdpZHRoPSI5LjY2NjY0Ii8+JiN4YTs8L2NsaXBQYXRoPiYjeGE7PC9kZWZzPiYjeGE7PC9zdmc+;points=[[0,0,0,0,0],[0,0.25,0,0,0],[0,0.5,0,0,0],[0,0.75,0,0,0],[0.25,0,0,0,0],[0.5,0,0,0,0],[0.75,0,0,0,0],[1,0,0,0,0],[1,0.25,0,0,0],[1,0.5,0,0,0],[1,0.75,0,0,0]];" vertex="1" parent="26">
                    <mxGeometry x="30.5" width="49" height="49" as="geometry"/>
                </mxCell>
                <mxCell id="28" value="&lt;font color=&quot;#1d2d3e&quot; size=&quot;1&quot; face=&quot;arial&quot; style=&quot;&quot;&gt;&lt;b style=&quot;font-size: 14px;&quot;&gt;SAP Build Work Zone&lt;br&gt;&lt;/b&gt;&lt;/font&gt;" style="text;html=1;align=center;verticalAlign=top;resizable=1;points=[[0,0.5,0,0,0],[0.21,1,0,0,0],[0.5,1,0,0,0],[0.85,1,0,0,0],[1,0.5,0,0,0]];autosize=0;strokeColor=none;fillColor=none;fontSize=12;fontColor=default;fontFamily=Helvetica;fixedWidth=1;imageWidth=24;whiteSpace=wrap;labelBackgroundColor=none;" vertex="1" parent="26">
                    <mxGeometry y="49" width="110" height="46" as="geometry"/>
                </mxCell>
                <mxCell id="29" value="&lt;div style=&quot;&quot;&gt;&lt;font face=&quot;arial&quot;&gt;&lt;i&gt;(Optional)&lt;/i&gt;&lt;/font&gt;&lt;/div&gt;" style="text;html=1;align=center;verticalAlign=middle;resizable=0;points=[];autosize=1;strokeColor=none;fillColor=none;fontSize=12;fontColor=#556B82;fontFamily=Helvetica;" vertex="1" parent="26">
                    <mxGeometry x="15" y="86" width="80" height="30" as="geometry"/>
                </mxCell>
                <mxCell id="30" style="edgeStyle=none;curved=1;rounded=0;orthogonalLoop=1;jettySize=auto;html=1;fontSize=12;startSize=8;endSize=8;" edge="1" parent="16" source="31">
                    <mxGeometry relative="1" as="geometry">
                        <mxPoint x="314.909090909091" y="324" as="targetPoint"/>
                    </mxGeometry>
                </mxCell>
                <mxCell id="31" value="" style="shape=image;verticalLabelPosition=bottom;verticalAlign=top;imageAspect=0;aspect=fixed;image=data:image/svg+xml,PHN2ZyB4bWxucz0iaHR0cDovL3d3dy53My5vcmcvMjAwMC9zdmciIGZpbGw9Im5vbmUiIHZpZXdCb3g9IjAgMCAxNiAxNiIgaGVpZ2h0PSIxNiIgd2lkdGg9IjE2Ij4mI3hhOzxjaXJjbGUgc3Ryb2tlLXdpZHRoPSIwLjI4NTcwOCIgc3Ryb2tlPSIjRDVEQUREIiBmaWxsPSJ1cmwoI3BhaW50MF9saW5lYXJfMzUxNF80MDIxOCkiIHI9IjcuODU2OTYiIGN5PSI3Ljk5ODg0IiBjeD0iNy45OTkzMyIvPiYjeGE7PHBhdGggZmlsbD0idXJsKCNwYWludDFfbGluZWFyXzM1MTRfNDAyMTgpIiBkPSJNNS45MDM5NyA0LjU4OTg4QzYuNTI5MjYgNC4zMTE0NyA3LjIwNjkxIDQuMTcwMTcgNy44OTEzNiA0LjE3NTQ3SDcuODkwMjZDOC41NzQ2NSA0LjE4MDggOS4yNDk5NyA0LjMzMjU4IDkuODcwODEgNC42MjA2MkMxMC40OTE3IDQuOTA4NjYgMTEuMDQzNiA1LjMyNjI4IDExLjQ4OTcgNS44NDU0MUMxMS41MjY5IDUuODg5OTEgMTEuNTcyNSA1LjkyNjU5IDExLjYyNCA1Ljk1MzNDMTEuNjc1NSA1Ljk4MDAyIDExLjczMTggNS45OTYyNCAxMS43ODk2IDYuMDAxMDNDMTEuODQ3NCA2LjAwNTgyIDExLjkwNTYgNS45OTkwNyAxMS45NjA3IDUuOTgxMkMxMi4wMTU5IDUuOTYzMzIgMTIuMDY3IDUuOTM0NjYgMTIuMTExIDUuODk2ODhDMTIuMTU1IDUuODU5MSAxMi4xOTExIDUuODEyOTYgMTIuMjE3MSA1Ljc2MTEyQzEyLjI0MzIgNS43MDkyOSAxMi4yNTg3IDUuNjUyOCAxMi4yNjI3IDUuNTk0OTRDMTIuMjY2NyA1LjUzNzA4IDEyLjI1OTIgNS40Nzg5OSAxMi4yNDA2IDUuNDI0MDVDMTIuMjIyIDUuMzY5MTEgMTIuMTkyNyA1LjMxODQxIDEyLjE1NDMgNS4yNzQ4OUMxMS42MjY5IDQuNjYwNzcgMTAuOTc0MSA0LjE2NjcxIDEwLjIzOTggMy44MjU5NEM5LjUwNTQ5IDMuNDg1MTYgOC43MDY3MyAzLjMwNTU3IDcuODk3MjMgMy4yOTkyNUM3LjA4Nzc0IDMuMjkyOTIgNi4yODYyNyAzLjQ2IDUuNTQ2NzMgMy43ODkyNUM0LjgwNzE5IDQuMTE4NTEgNC4xNDY3MyA0LjYwMjMgMy42MDk3NiA1LjIwODA5QzMuNTMyNjUgNS4yOTUxNSAzLjQ5MzI4IDUuNDA5MjcgMy41MDAzMiA1LjUyNTM1QzMuNTA3MzUgNS42NDE0MyAzLjU2MDIxIDUuNzQ5OTYgMy42NDcyNiA1LjgyNzA2QzMuNzM0MzEgNS45MDQxNyAzLjg0ODQzIDUuOTQzNTQgMy45NjQ1MSA1LjkzNjVDNC4wODA1OSA1LjkyOTQ3IDQuMTg5MTIgNS44NzY2MSA0LjI2NjIzIDUuNzg5NTZDNC43MjAyNiA1LjI3NzM1IDUuMjc4NjkgNC44NjgyOSA1LjkwMzk3IDQuNTg5ODhaIi8+JiN4YTs8cGF0aCBmaWxsPSJ1cmwoI3BhaW50Ml9saW5lYXJfMzUxNF80MDIxOCkiIGQ9Ik02Ljk5MTQ3IDYuMDM1MDRDNy41NDA2NCA1Ljg3MzY4IDguMTI0MDYgNS44Njk2MyA4LjY3NTQxIDYuMDIzMzVDOS4zMTcxNyA2LjIwMjI1IDkuODgyOTcgNi41ODU4MSAxMC4yODY4IDcuMTE1NzNDMTAuNjkwNiA3LjY0NTY0IDEwLjkxMDMgOC4yOTI5MiAxMC45MTI2IDguOTU5MTVDMTAuOTEzOCA5LjAxNDQxIDEwLjkwNCA5LjA2OTM2IDEwLjg4NCA5LjEyMDg2QzEwLjg2NCA5LjE3MjM2IDEwLjgzNCA5LjIxOTQyIDEwLjc5NTcgOS4yNTkzM0MxMC43NTc1IDkuMjk5MjQgMTAuNzExOCA5LjMzMTIzIDEwLjY2MTIgOS4zNTM0N0MxMC42MTA2IDkuMzc1NzEgMTAuNTU2MSA5LjM4Nzc3IDEwLjUwMDggOS4zODg5NUMxMC40NDU2IDkuMzkwMTQgMTAuMzkwNiA5LjM4MDQzIDEwLjMzOTEgOS4zNjAzOEMxMC4yODc2IDkuMzQwMzMgMTAuMjQwNiA5LjMxMDMzIDEwLjIwMDcgOS4yNzIxQzEwLjE2MDggOS4yMzM4NyAxMC4xMjg4IDkuMTg4MTUgMTAuMTA2NSA5LjEzNzU1QzEwLjA4NDMgOS4wODY5NiAxMC4wNzIyIDkuMDMyNDggMTAuMDcxIDguOTc3MjJDMTAuMDcxNSA4LjY4NjAyIDEwLjAxNDYgOC4zOTc1OCA5LjkwMzYgOC4xMjgzN0M5Ljc5MjYgNy44NTkxNSA5LjYyOTY1IDcuNjE0NDQgOS40MjQwNyA3LjQwODJDOS4yMTg0OSA3LjIwMTk2IDguOTc0MzEgNy4wMzgyMyA4LjcwNTQ1IDYuOTI2MzZDOC40MzY2IDYuODE0NDkgOC4xNDgzNCA2Ljc1NjY3IDcuODU3MTQgNi43NTYyMUM3LjU2NTk0IDYuNzU1NzQgNy4yNzc1IDYuODEyNjMgNy4wMDgyOCA2LjkyMzY0QzYuNzM5MDcgNy4wMzQ2NCA2LjQ5NDM2IDcuMTk3NTkgNi4yODgxMiA3LjQwMzE3QzYuMDgxODggNy42MDg3NSA1LjkxODE1IDcuODUyOTMgNS44MDYyOCA4LjEyMTc5QzUuNjk0NDEgOC4zOTA2NCA1LjYzNjU5IDguNjc4OSA1LjYzNjEzIDguOTcwMUM1LjY0MDA1IDkuNDY3MzQgNS43MTMzOSA5Ljk2MTYgNS44NTQwNCAxMC40Mzg1QzYuMDA3MzQgMTAuOTU0OSA2LjI2MTM5IDExLjQ5OCA2LjY2NjU2IDExLjkwMzJDNi43NDg3NSAxMS45ODUzIDYuODYwMTkgMTIuMDMxNCA2Ljk3NjM3IDEyLjAzMTNDNy4wOTI1NiAxMi4wMzEzIDcuMjAzOTYgMTEuOTg1MSA3LjI4NjA4IDExLjkwMjlDNy4zNjgxOSAxMS44MjA3IDcuNDE0MyAxMS43MDkzIDcuNDE0MjUgMTEuNTkzMUM3LjQxNDE5IDExLjQ3NjkgNy4zNjc5OSAxMS4zNjU1IDcuMjg1OCAxMS4yODM0QzcuMDIxMzUgMTEuMDE4OSA2LjgyMzcgMTAuNjI3NCA2LjY5MzkzIDEwLjE4OTRDNi41NjQ3MiA5Ljc1NDcgNi41MTIxNiA5LjMwODQ3IDYuNTEyMTYgOC45NzAxQzYuNTExMjEgOC42MTQzMyA2LjY1MTY0IDguMjcyNzYgNi45MDI1MyA4LjAyMDUzQzcuMTUzNDMgNy43NjgzIDcuNDk0MjUgNy42MjYwNiA3Ljg1MDAyIDcuNjI1MTJDOC4yMDU3OSA3LjYyNDE4IDguNTQ3MzYgNy43NjQ2IDguNzk5NTkgOC4wMTU1QzkuMDUxODMgOC4yNjY0IDkuMTk0MDYgOC42MDcyMiA5LjE5NSA4Ljk2Mjk4VjguOTc5OTZDOS4xOTUgOS4wMDUxNCA5LjE5MzkxIDkuMDMwODggOS4xOTIyNyA5LjA1NjYxQzkuMTg3ODQgOS4xMjU2IDkuMTk5ODUgOS4xOTQ2NSA5LjIyNzMxIDkuMjU4MUM5LjI5MjY1IDkuNTQyMzkgOS40NTE4NyA5Ljc5NjM3IDkuNjc5MjcgOS45NzkwNUM5LjkwNjY4IDEwLjE2MTcgMTAuMTg5IDEwLjI2MjUgMTAuNDgwNyAxMC4yNjVDMTAuNzcyNCAxMC4yNjc1IDExLjA1NjQgMTAuMTcxNyAxMS4yODcgOS45OTNDMTEuNTE3NSA5LjgxNDI5IDExLjY4MTEgOS41NjMxMSAxMS43NTE0IDkuMjhDMTEuNzcxOSA5LjIzMTIgMTEuNzgzNCA5LjE3OTA2IDExLjc4NTMgOS4xMjYxNEMxMS44MDkgOC41Mzg3NiAxMS43MDA3IDcuOTUzNTQgMTEuNDY4NCA3LjQxMzQ5QzExLjIzNjIgNi44NzM0NCAxMC44ODU5IDYuMzkyMjggMTAuNDQzNCA2LjAwNTM3QzEwLjAwMDggNS42MTg0NiA5LjQ3NzEyIDUuMzM1NjMgOC45MTA4OCA1LjE3NzY3QzguMzQ0NjQgNS4wMTk3IDcuNzUwMiA0Ljk5MDYxIDcuMTcxMjQgNS4wOTI1M0M2LjU5MjI4IDUuMTk0NDUgNi4wNDM1MSA1LjQyNDc5IDUuNTY1MjYgNS43NjY2M0M1LjA4NzAxIDYuMTA4NDggNC42OTE0MiA2LjU1MzEzIDQuNDA3NTcgNy4wNjc5MkM0LjEyMzcyIDcuNTgyNzEgMy45NTg4MiA4LjE1NDU2IDMuOTI0OTggOC43NDE0NUMzLjg5MTE0IDkuMzI4MzQgMy45ODkyMiA5LjkxNTM1IDQuMjEyMDMgMTAuNDU5NEM0LjI1ODM2IDEwLjU2MzQgNC4zNDMzNyAxMC42NDUzIDQuNDQ5MDQgMTAuNjg3N0M0LjU1NDcyIDEwLjczMDEgNC42NzI3NSAxMC43Mjk2IDQuNzc4MTIgMTAuNjg2NUM0Ljg4MzUgMTAuNjQzMyA0Ljk2NzkzIDEwLjU2MDkgNS4wMTM1MiAxMC40NTY1QzUuMDU5MTEgMTAuMzUyMiA1LjA2MjI4IDEwLjIzNDIgNS4wMjIzNiAxMC4xMjc2QzQuODA1NzUgOS41OTc3NSA0Ljc0MjE0IDkuMDE3NzkgNC44Mzg3NiA4LjQ1MzYyQzQuOTM1MzcgNy44ODk0NSA1LjE4ODMzIDcuMzYzNzEgNS41Njg4OCA2LjkzNjE2QzUuOTQ5NDMgNi41MDg2MSA2LjQ0MjMxIDYuMTk2NDEgNi45OTE0NyA2LjAzNTA0WiIvPiYjeGE7PHBhdGggZmlsbD0idXJsKCNwYWludDNfbGluZWFyXzM1MTRfNDAyMTgpIiBkPSJNOC4zODMxNiA4Ljk3MDAxQzguMzgzMTUgOC43MjgzOCA4LjE4NzI3IDguNTMyNTEgNy45NDU2NSA4LjUzMjUyQzcuNzA0MDMgOC41MzI1MyA3LjUwODE2IDguNzI4NDEgNy41MDgxNiA4Ljk3MDAzQzcuNTA4MTggOS42MTQ3NSA3LjYzNDQ0IDEwLjAwNTcgNy44ODgxMyAxMC40MTE4QzguMDE2MTUgMTAuNjE2NyA4LjI4NjA1IDEwLjY3OSA4LjQ5MDk3IDEwLjU1MUM4LjY5NTkgMTAuNDIzIDguNzU4MjQgMTAuMTUzMSA4LjYzMDIyIDkuOTQ4MTdDOC40Njk0OSA5LjY5MDg4IDguMzgzMTcgOS40NjI3MiA4LjM4MzE2IDguOTcwMDFaIi8+JiN4YTs8cGF0aCBmaWxsPSJ1cmwoI3BhaW50NF9saW5lYXJfMzUxNF80MDIxOCkiIGQ9Ik0xMi41ODg0IDEwLjEwMjNDMTIuNDQ3MiAxMC4xMDIzIDEyLjMyMDIgMTAuMTU4OCAxMi4yMDczIDEwLjI3MTdMMTAuNDUwMSAxMi4wMjg5TDkuNzUxNDMgMTEuMzMwMkM5LjY1MjYzIDExLjIxNzMgOS41MzI2NiAxMS4xNjA5IDkuMzkxNTIgMTEuMTYwOUM5LjI1MDM4IDExLjE2MDkgOS4xMjMzNSAxMS4yMTczIDkuMDEwNDQgMTEuMzMwMkM4Ljg5NzUyIDExLjQ0MzEgOC44NDEwNiAxMS41NzAyIDguODQxMDYgMTEuNzExM0M4Ljg0MTA2IDExLjg1MjUgOC44OTc1MiAxMS45Nzk1IDkuMDEwNDQgMTIuMDkyNEwxMC4wNjkgMTMuMTUxQzEwLjE2NzggMTMuMjQ5OCAxMC4yOTQ4IDEzLjI5OTIgMTAuNDUwMSAxMy4yOTkyQzEwLjYwNTMgMTMuMjk5MiAxMC43MzI0IDEzLjI0OTggMTAuODMxMiAxMy4xNTFMMTIuOTY5NSAxMS4wMTI3QzEzLjA2ODMgMTAuODk5NyAxMy4xMTc3IDEwLjc3MjcgMTMuMTE3NyAxMC42MzE2QzEzLjExNzcgMTAuNDkwNCAxMy4wNjgzIDEwLjM3MDUgMTIuOTY5NSAxMC4yNzE3QzEyLjg1NjYgMTAuMTU4OCAxMi43Mjk1IDEwLjEwMjMgMTIuNTg4NCAxMC4xMDIzWiIvPiYjeGE7PGRlZnM+JiN4YTs8bGluZWFyR3JhZGllbnQgZ3JhZGllbnRVbml0cz0idXNlclNwYWNlT25Vc2UiIHkyPSIxNC43NDY4IiB4Mj0iMTMuNjg3NCIgeTE9IjIuMjY5OTIiIHgxPSIxLjQ1MDQzIiBpZD0icGFpbnQwX2xpbmVhcl8zNTE0XzQwMjE4Ij4mI3hhOzxzdG9wIHN0b3AtY29sb3I9IndoaXRlIi8+JiN4YTs8c3RvcCBzdG9wLWNvbG9yPSIjRUFFQ0VFIiBvZmZzZXQ9IjEiLz4mI3hhOzwvbGluZWFyR3JhZGllbnQ+JiN4YTs8bGluZWFyR3JhZGllbnQgZ3JhZGllbnRVbml0cz0idXNlclNwYWNlT25Vc2UiIHkyPSIxMC43NDM3IiB4Mj0iMTAuOTI3NiIgeTE9IjQuNjA0OTMiIHgxPSI0LjgxMzMxIiBpZD0icGFpbnQxX2xpbmVhcl8zNTE0XzQwMjE4Ij4mI3hhOzxzdG9wIHN0b3AtY29sb3I9IiMwMTk1RkYiLz4mI3hhOzxzdG9wIHN0b3AtY29sb3I9IiMxMTQ3RTkiIG9mZnNldD0iMC45OTEwMjgiLz4mI3hhOzwvbGluZWFyR3JhZGllbnQ+JiN4YTs8bGluZWFyR3JhZGllbnQgZ3JhZGllbnRVbml0cz0idXNlclNwYWNlT25Vc2UiIHkyPSIxMC43NDM3IiB4Mj0iMTAuOTI3NiIgeTE9IjQuNjA0OTMiIHgxPSI0LjgxMzMxIiBpZD0icGFpbnQyX2xpbmVhcl8zNTE0XzQwMjE4Ij4mI3hhOzxzdG9wIHN0b3AtY29sb3I9IiMwMTk1RkYiLz4mI3hhOzxzdG9wIHN0b3AtY29sb3I9IiMxMTQ3RTkiIG9mZnNldD0iMC45OTEwMjgiLz4mI3hhOzwvbGluZWFyR3JhZGllbnQ+JiN4YTs8bGluZWFyR3JhZGllbnQgZ3JhZGllbnRVbml0cz0idXNlclNwYWNlT25Vc2UiIHkyPSIxMC43NDM3IiB4Mj0iMTAuOTI3NiIgeTE9IjQuNjA0OTMiIHgxPSI0LjgxMzMxIiBpZD0icGFpbnQzX2xpbmVhcl8zNTE0XzQwMjE4Ij4mI3hhOzxzdG9wIHN0b3AtY29sb3I9IiMwMTk1RkYiLz4mI3hhOzxzdG9wIHN0b3AtY29sb3I9IiMxMTQ3RTkiIG9mZnNldD0iMC45OTEwMjgiLz4mI3hhOzwvbGluZWFyR3JhZGllbnQ+JiN4YTs8bGluZWFyR3JhZGllbnQgZ3JhZGllbnRVbml0cz0idXNlclNwYWNlT25Vc2UiIHkyPSIxMy40NTIxIiB4Mj0iMTEuNjE2NSIgeTE9IjEwLjU3MjYiIHgxPSI5LjQ3MzMzIiBpZD0icGFpbnQ0X2xpbmVhcl8zNTE0XzQwMjE4Ij4mI3hhOzxzdG9wIHN0b3AtY29sb3I9IiMxMzQ4RkYiLz4mI3hhOzxzdG9wIHN0b3AtY29sb3I9IiMwNjIzOEQiIG9mZnNldD0iMSIvPiYjeGE7PC9saW5lYXJHcmFkaWVudD4mI3hhOzwvZGVmcz4mI3hhOzwvc3ZnPg==;points=[[0,0,0,0,0],[0,0.25,0,0,0],[0,0.5,0,0,0],[0,0.75,0,0,0],[0.25,0,0,0,0],[0.5,0,0,0,0],[0.75,0,0,0,0],[1,0,0,0,0],[1,0.25,0,0,0],[1,0.5,0,0,0],[1,0.75,0,0,0]];" vertex="1" parent="16">
                    <mxGeometry x="291.5000000000002" y="375.0000000000002" width="48" height="48" as="geometry"/>
                </mxCell>
                <mxCell id="32" value="&lt;b style=&quot;border-color: var(--border-color); font-size: 14px;&quot;&gt;&lt;font style=&quot;border-color: var(--border-color);&quot; color=&quot;#1d2d3e&quot;&gt;SAP Auth &amp;amp; Trust&lt;/font&gt;&lt;/b&gt;&lt;font color=&quot;#1d2d3e&quot; size=&quot;1&quot; face=&quot;arial&quot; style=&quot;&quot;&gt;&lt;b style=&quot;font-size: 14px;&quot;&gt;&lt;br&gt;&lt;/b&gt;&lt;/font&gt;" style="text;html=1;align=center;verticalAlign=top;resizable=1;points=[[0,0.5,0,0,0],[0.21,1,0,0,0],[0.5,1,0,0,0],[0.85,1,0,0,0],[1,0.5,0,0,0]];autosize=0;strokeColor=none;fillColor=none;fontSize=12;fontColor=default;fontFamily=Arial;fixedWidth=1;imageWidth=24;whiteSpace=wrap;labelBackgroundColor=none;" vertex="1" parent="16">
                    <mxGeometry x="260.0000000000002" y="424.00000000000045" width="110" height="46" as="geometry"/>
                </mxCell>
                <mxCell id="33" value="" style="rounded=1;whiteSpace=wrap;html=1;strokeColor=#0070F2;fillColor=#ffffff;arcSize=24;absoluteArcSize=1;imageWidth=64;imageHeight=64;strokeWidth=1.5;" vertex="1" parent="16">
                    <mxGeometry x="610" y="61" width="210" height="430" as="geometry"/>
                </mxCell>
                <mxCell id="34" value="" style="shape=image;verticalLabelPosition=bottom;labelBackgroundColor=default;verticalAlign=top;aspect=fixed;imageAspect=0;image=data:image/png,iVBORw0KGgoAAAANSUhEUgAAAMAAAADACAYAAABS3GwHAAAACXBIWXMAACxLAAAsSwGlPZapAAAAAXNSR0IArs4c6QAAAARnQU1BAACxjwv8YQUAAHx4SURBVHgB7b0JtGZXdR649//eq3nSWCVUJSQkISMVSLJ7dVSAV2SwEfGwkA3CQ2wLDB7S3WkkQZy0kwVSu5e7jUESmdqOwYg4sWPARiTEzZAEkQSEV1YsAZIIGpCEBEIC1Ty+V+/ffc89e/j2ufeVSvN4pFf/f+8994x7+PZw70/0QnmhPI8L0wvlCSk33XTThrm51afSDJ1HzBuE+FSe8HoW2dAt86ldlQ19Re4/NyzRzE6S7q8rwnJPPcX3iEzv5e78dDq9h3my8/DBvTeff/75O+mF8rjLCwzwKIsT+ixfWImczmXi82hpon6yyk4huVmm9BUm6ZiEbn75y868gV4oj6q8wACPUHqCX7H6YuHJeRPmv9mt2Hn0TC4dI0xFviDTxRsWeXrz+S972T30QlmyvMAATSkEP7tiTYExF3cE/4ZuhU6lx1BmZ2dpZjKhyYRpbm62EGb97JdcuvPl2kxfdzpdpOnitN7ILAuHF/p9WVg43F2b0sLhxf7zMZWOIboub148fPiTi4f23/ACdMrlBQYglfIr17yFJvyGRwNnCpEvX7aMlneEvaz7nJmZdMdzNNedL4RMIpXauyPBG/GAy/+dpVBOSjkSO9l9rbd21/p9Onz4MM13THFofp4WO6Y42H0udOcOd9+PuohcvzidfnKRFm94QTs8jxnAoE0npi/tCPDCR6pfJPaqFSto1coVtGL5sp7QqwSvBMsdEJdC8D3hV0JWUu6ZoVwrJztq5lJXm+We7CujdBcm3fUpa4t95Z4XapskWq/eabqEeu1RmOHgwUP954GDBzuNIY80pdLxDd29H1k8uO/656tmeN4xwNe+fseFPbyZ8KV0BElfCL5I9zWrV9FqJXqqMtkJOYvyUmw5g76L9Ga9D4S73k/1rDKFSGqEQnmIMUVlJFaNYW1G92K3HZw/xAc6hijMUD4fgSEK8V9fmOH5Zkg/LxiggTgXLlWvEP2GtWt6oi8EX46tiIlz/9KfrR8u9Xs5rReN+LnebtIbJDdVbupbVMLW9qNP54y8U9affrEulWOck9iuy/6DB3n33n09QxwRMgndszhdvOoVL3vpdfQ8KM9pBiiEv2zVund0s7yMlpD2PdGv64h+1SpatWqlSdAgIrYzbBBEJTb3cMXIudSe9JK5HFYolCBLbaU5CBNB1UpqDyoN22hkf1UpymzKeADCKmPqHYUJdu/b12uGJZmhY4Tu1hvmF+evei7bCs9JBrjp618/dZbnLjsSzCl4/vjjNkj36WvgRFyp2KmTALs79FFpbdAEYUrfGIh5vdelfrpuDFaJvxJvGcNUeIio/B7QAMqkAmxTWcF653QP9FvmuW///u7vAO3Zt5+OUK57rjLCc4oBCuHPTeau7Ajo0rHrRdofs34dHbdhvcKbLESJwnjtzyTjVQkzMQIpYQHxmgQXNV4pGa8GlBihizS2BIPnx3B/U0Gc8rFtUoLHNmTgdPI+3bjuTnceJtl/4CDv2L37SBDpOccIzwkGeCSoUzw3xx+zof/MLsZSWHE7O36XIfBA87cyRk+GmXAFviQmwTJgGIrKjwSbVIob8wARO86p8Iuokfo6XGGCe5zjCd20Qrv37KNde/Z2LtcFWqI8ZxjhWc8At37jrvcckfCP3dB5cVY2BIt7b6fCbw8mp3EGWsFEifiE0ERFw7PeNmViztyhNSnwevLucNgbaYimKRigklJ9g/kldeX8DFCptlHXgAncR34DF1tBtu/cxQcPzdOgdDaCLE4/sPXsM6+lZ3F51jJAcWd2MObDNBKpNcJftWIlDexIx8/ZIh3g9OTxCXdkbcOhESXcLuDy1HbJm1IbIRiNaAQCOeSJS8nbIw3Bor2gRJ27FqfnjLp6eTBVBQRQLdkllYsPHjpE23fu7j8H5VnuNXrWMUCBO8vXrPtwt9MXt9d6w7YQ/sqVeWYOX/qDdE9IxyrNtaglzEoc4l6hjG0CZxufqFtTe1NKcoIH6a8Ce4DZKbQISGsagz2oEcj5DINlimyM+cjHCR5W0DQ5YhHGu65F8Rp97+HtdHhx1EZ4VsKiZxUD3PI/7rqMJ/QeauBOybEpGH/DurUI1X2zDborhaIErqI9yWzJEpET5NabwgImJSKlE5XEeRhGgP0d2r+yVyP9rf6Q5rPRKiP75vjGKD20FBCxVWCFX2RHBJpIUR4a/Bio29PFE3bs2j1khGehNnhWMEDv3ZmZ+/BYEKtI/GPXr+/zcHKwKkpjXLqMY5B9FEQLxEJNioObBO4+wfZdOSSYFWkSqG1sPM6VZqXo+QlPOmQzZQxySYJOGa8H+YfnxzWbsYCovWH2EDfwTrIiiJ5iPazfbnCyc/fe3ms0Up412uAZzwC3fOPuS5mnxdBKUr/g/JNOPEETz+q5IF4rzQYHjgfIENif/diCXMg8AVGCeQKqOAYfZQTS27IUd0OZJLGi5wGN3eO2BqRDRAfU9klOy2ooN1HllIjnK2NiHwduWhQcA933krn6vYd30MBQfpZog2csA/RYf/W693QLfRmeL/77Ezq4c8wx6xX7isObkkxWj1Fip5LkXimpDTAUHeezHYb0NQpDpiGUklilVnBaQlsD3aTqAQqBS+juJEoGb+3DBpwQWWuBG9RJ8YSuHeV+9vG69ULhIgV7gUJy9KenyiBmeHewiMdgUVfl2kP7dl/1TE22e0YyQIE8yybLPk+Nh6cYuSdtPIGW9Xn1fTF40h9kYly6IEA3yhT7hwkIXpmDiDOFRzP2nQbpEVbHpbXhbbAvQmt4q0Dv4a4ccXl6PEKlN9wf8KoxjkPCO+QhX7iwT6jxilJGXMYW3BrZi4cX5aHtO3jgLeq0wfx0/keeiZDoGccAY5AnS/20LUq4gbXroUs6AmnrdzHyQDBQUHqt7IYqlExIBCMRoXCPJk3gYyVlCGAlEO7J/ZkwVB0XZ3iXxbxDuVgSYXJU4zPx/kHj1Klq3435RCn9g5LUyGsNdYsm2Ll7DzVlpxyeXvVMixs8oxjg1m/c/R7i6ZV4rnh4Nm/aSCuWL1dpSpT98H0BgnZkANi7FqDCdKWNwLrY9HvCdpDG02ONWRveF7gqUQNAB9nDCd2pOrHOUGMoMhkZLyevj3tsxrRhhkO6JMFALjPifh+e6QG0IpJBL3pPSad44KHvj3mKrjznrNOvomdIeUYwQJ+uvHrtJ1ovz/q1a2jTicfLxJ15CYZk776mEysmYCfa7Hbszw1dpaFBpM3ITJoj4fQgrjF/Oxi4TXBLR5+WoA3HsgwIN6QuWVZqIHigTsl9GN7PmifBQFzcfHO9UqpNq3FvbVJqRVrTupbyGOfDO3bS3v0HqGn6+vn9u9/6TLALnnYGWArvbzz+WDp2w3rfBQl87s5yLzzU3cgpeBxQloKEEOVTZaBGaxjScqkZGsArOi42GDSI8GJmpvWfvwOkybYDTML/TdKgLgMEyDwjlCOolqVImiPrMqegXch0h0l1vZOQgahaXcapULhfSTpIxANI9AyxC55WBhgj/oL3N590YsnPFwFvCWBzLUlmgeBlkJKRcCYZd3OIPm6YgczorBtpvWFCmXc9UCUUfaYUaXc/gvvSERgQfMJFqTjZe+eMUK73gIFmkOQKFUoGPww7ML5rzrhLF95lvC2YyNAmae/XWaryli6KzN/fviNDomcAEzxtDHDL7befxzTzeQJjt+D9F5/8IpqdnUmS3rIvQR4lN14j7R0ORBvkBjKRRX45NglVCybFqXGqcIgTBHImYnR4InAYen7C8xL3DL02ZH24ehABI5lRBZq70mmy1wAJkECiXWOwkuQsUBs5RZt2or9xijEOKOb9svFPtT9fa22kEP+IXbBT5hd/ZOvWl95MT0N5WhhgjPjLI4gvPvkkfwwxEzBKYm787pLrt501J5K3OwXHlOYr0ZNkleA9YJDM4Q589q0qXlbO4Rh3GJ7o5RmV+KRMZMavJ8XlyWlHbnyGtmkMVoBqIgmxDNo06CM6boM5BGtsmbD9gk6nEXcB6FPXLqd8F+P4oYcf7t9uAeVpY4IJPcWld3PSzE0ExF+M3VOU+EXC+IwN0E8nIsvXSYxBSgNVkgqlTWcml+StyiAIhmk9J3nvhM3NqsRVN5STJuqDVIKEyu1DMTY7ZgYAI4THZPN3m4KSAZ1sGyB+v1IHxQ4D60IquTvE17kqnkq+f2mhZA16cSypebwk3MgWMWSfL2ho5Top2n3TCcfTmtUrcbYbeNnMTV/vaIOe4vKUagD18V+H5wrxv2jjiUJh7IXwR0mfXJtVwACDACBlyNw0WUYOUeJ+F3U+FjC0g+jwFodIGTObFCeTvYjzre8kxSU0mYPzEJzJYMZFQbikr1BZMlcIRoDSngh1ZqwlJbkNV93nb/xgGs2HLLH8bgOIC4fcLAGMpe07d1F5UB/LRCZvedlZp32EnqLylDGAwp6b8FxJZDvxuGMJjF0P0AT8UKjLGKMaMktVxZLgfGYeUrs2oIpLSgI2QO2QcFiznaaNvIuhxwZhT3L6N+nMRM39QIStBmGMjRlbJ8GgtzbJdwTPI2BbAgl+raXcMhCNF1gUCZHDEK3GSDfZc6P1/M7dJWi2Nzc4v3j+UwWHnhIIBJjfywkd8Z9w7DEqKlTdVlJh0+u2gHau1kgBIPvOBIZfck44kUsYZ/WYQ11HVbgtBKWzY8+IQgQRX0cUYj4aY66kBRLkCeMTYVCS+BVy9cTEIpI873q5n3Fh+mp8uhIUG0L0J7lzP03sUItMP4W0x1uYx9Rl/4WRY83+CKHmBnEsrYS22rBuXY8CsHRw6PO33HL7U/IO1iddA/SuzpllCfMX4j/+2GP9VSBjnpryjwMKokaKRJBLiUOlpONaCggjgzE1yh9klgt7M2r9BHpFAPIQ0UDCEQ2jvAoViFpY4x4e/d4qGho1VgejjjWpDAtw0cdDSb47do/OzJ9PYETD3Fyh4HezqJe4Z4kSTdn9JX2iPIcMZef84vz5T7aL9EnVAO7nB+I/dsO6jviPIZTAzPHQiiTXHDnxZ7oxqOASnI3glaE4CTKuEpJyu2lHGd3qRAaTxMY3rX15agMlBaQNccI0bitIFXk239IGK9wxIqqaraVyjv7jFOWkHUHliRNkszAIx1knJWBUR1uOMU0Ta9+clwoL+lVTnbJ+A8PeR2jTduNfjlm/TlavyoZxoZ1CQ/QklieNAfo3NTRBrqLqNh5/nBIPkdmroJVJ9SihCvVGzbdcv/uuoHODxkyvQZ5P2MmGrKpBCcU9L0xT9J9ThSv6F0Mz3ki0qiPq0xGyy10DZUgyEB8TXRN2xnHAYY9nVrdMT+Sl/WnK7QmarTaDgPRnchvI1phiLYyRFIKaQNLFhD3RhavNSPTssQIQcK7sYB9MwxL5HMtTfYkJOtrpmaCjJXqSypPGAOW5XST+4uffdMJxBOQqo7gdydBtAy75QBHpVKwJXBMS0DfVG3QAIV7bjWU9BTDEKBzgS4PfowEfJxHGBsgMXFYpXo/ZxxWms0ATXp/JLX7kyXDtmg++GuFqB+D4rLVwSbJqIq1T56/tuBfT18DdnlKZN0nuVGC7APdTI0t8HfXQb0iNluvHrl+H6e49EyxfvfYT9CSVJ4UBSlanwEPrfUbnSRvtZVRGpiYd+sJqQuaVC6NVUnTWMa0tdv/V2sB2VXAZkvcNM2jlVcy8JTYRBoJLMIrQS/equkwa1hZ1UBxuzhEPE6UIaZKIOgaPZUXpO2VVd4ZNBDVAxEvqIkleHx25QTfSIWRoGeth866Iq94bLwZgHQfFRla2ZNuHFvoITohxcmH/VcO50EhBCbMzM3A3X9i//uZJKExPcNEH16+x45recFL/Ln2qE+wCh7qHkyqB1CBT8U7uP2lBMVFKwmokZFuXiDil6vr9jjSUXgwCWS1w9GvLcd5kt1dLBjOc1CoMD7KksYXGs+FYUpm7LGFm4oMV87VLzCfLZ9Cr2F9dU3t/qUIVWFfXFLE4hCsaq+HaN7lUlzSA0/mWOZYymEvE+DsPfS9JgicjRvCEMsCYx+eUkzeVF1PZoQoiquFzE6eMIs9RKFNKKPNNEYEAGQaHwvthjOKdkoHg1I1dULitlQ3vsjFhUjtAE2wYncLl4+fju/v3R0R7Q08xhuAPhQppeYCH3csUUXLrVzmHYxV0AcBzJCkmQDzit6eQ/EPfvgF+uOyjbO8l0DIm8bVDgnN+6uChQ/zg9x/GoTzhnqEnDAK50QvE3xs1HfHDlvcbVIm/FMGFaOIB/fWemCv2Id1vpcW+PhB/3dxRtwN7z9A2kHE9rnga+3WJDn5tMoTcnZ72P2bRBLjIfaBihNrDKoMfZhfUC9ioMYLDEMN8PtyUngBpBuTSWyAy3BK/UZlqXdMCDK+NaSSyQqFSZzJhzxWpp6yKr6rRM9yeiB+1gH4Yx6gt7bdVRi524zHr1hKUDU+0UfyEMUB5gJ3Q47NuDZ1w3DH9d6YxTMvkwJ/C21F1NQaoKjyq1ZUolYxcnYCynmgkWQjVtxJgPtkXl9QpN6dCFlfrjYsSJ6MEJ+pZ4tRBZUhGNyijCFeCV+oxAiS3NdwuiofYq2RXoVntV1FXZV9ZCSrZRqAR69oaC3u/YIxzg9Sqx0efxzBBoDb+wNXpsFRsTZNaYHZhkglCXcLGTNDmurVrpPUM9bT2BJUnhAG++vXb3yLw9oaC+zcdf5xfrxhfN1fdZCbOXbT3hf0fKEJhhHLwDYV4t3wU0lRc21DTGuCS8yYp2KfduH4Q6nI1icqR9lyvhRQnZTjOmAulrzcCRrNXS6ihvtlCr0/DpQhNM0HwrBK9+VTJ5mQ9GGG5kHEPEq54s96hicEzpDEMRTLm/nTnBDetmWZwDRafieGa4trPvpe5dZ4hmUlGMV32RCXOMT3OMvZQyxmnbsEfiuv7STjSxJH52t3opdHPxB92wnzZRGhzksEXNDqrWqGQgHUgAFg5ta1ClAb5OZzGgoEuYxSwR/R+kRR06oxtcr1BoYFS423/bZ9oN1AMN1OVDTjWF4uvcYv51UZArA8QJu4fsRX6eEQHb9v6Y7bDeEHbDecu/ZuqH/r+9v51LFqeEHvgcWuA8j5+JP6C+zviFw6/vcnNRHRusEkSkUnU+RYqOvfveh3VuoAhLOj5EQosLAiQVaqTDUdjpBJibkD8wSIk6u6UeOY3YJPLfp+OuPOXiEJ6jxA/HLq0rLJXQEAyc6Zp8VmJz46cm8n7Zejf9gFgjLN0YH2mIWQhGiNkI3IKCLQk8ac+R3SmQi+/tGxuroPVa3EQG5bPzH2YHmd5XAxQoA/Dj1HYW5lVNSZNr0DXqoLAAq8AAQxJQtnShoQoFtFwjrclljQXgq/RcXjChlV7MfuiejMlmAW3icLHX3F3OGsoj1zIbA63j81Pb48umvqr6DBjaYZxCyOMQwpgpvCASijEqcM5iJ2RtkFD4s3HnGfeEP4I1fs3uGwaX7LAG+3ThGTA0J5hQmhaWbt6FZcfLowO+cJbbrvjMnoc5TEzQIE+M5OZ99hxwf0nnXi8Dpgd64qF012quKQyMUv1E41OO0cmjYCsUUckdCSaz4MOzeDBtE9G/uQmpxuh0KhCEK0virw4mCNgTl/FNAep4UgeBcaRknLERJw8Qy4KVElicaJMZ3MVD5xpMiBz5liPF1DTO5SQsDI4TdQmR8loO1mrOxGbp6e9v3U2LFXUVgRtVO89rrwbCpiCZyfveTxeocfMAC30OXbdul5NkbsnuKHV0Nkpt6ZReyiE/W5Xh9EWag5SIxTxN7nDMQSTqyJ20ai7xLGoIMcM0tifjpHMq0ND4Sh1SIy4AzgLvoRHqPKnP00Gc7OLXJPxRCLz1eGiaU5xsx4INdzLw7QGcmGV/jEelwhOwD2SiI+Tsw1doKpwBD1BWcrDMoMAyQa/YT0x+ujovTOGN+T06fLrQB+mx1geEwN89Rt3Xpygz4oVdGzHmbASgtK7nrV9CRxq94MUH6pYKDL2HZfSjgVPqValkFJkuINcTwfGZb0YbfX+/ipjo02IDvcbb9rCe2LjeoRsQtmjA/CAM45KsllwLtq9eDJeaCNua1bqAS0chgRZ186Q0bPo/pjLMoRLSmOYejzH11Vanz/eA3ve4FB128rg2QEznty+KWXtmtWEUKi7eHH/+8+PoTwmBpghvgaPT9p4vI6DUjDLOb8J4JQD0AJBy2IBGuK0TUl9Vo9fQHWLxA40qtKPmBQzSS/96056SmB2ZhTXRpL88BXrA1/14jGNmxSSkJG9GeVVHwi6q2JwKh3rQimNCdK/f5FGlyZlWDVcvXWqsgUbSFjEsDVeTfzAunFiNkdLkBwpD34PGLucDWYmZJjGDnBYK2Rqn2KoREQ5JsFwX3lnFF6j/teCHkN51AxQcn1o4PWZ8+tmaLGhBTLMDETEHhZQBW/Ewa2P3xknvEpuCCb3p1hAli0pDqkNeSx7agjSAVzYWKsGoygISGtYhYhPtGMmjzTFMMhVD1ngzDWSYPBOMVwTZLIB+5dJCmDV5LjqxpJwZGWOqsiGk9Ax6R9269DD45K9k/oGTVR8OEMY3EHYRcMSZEDk8FZ8uLB1/QGaItY198ly6xAKdTT5tW/ccSU9ysKPpnLr8y+G72lbTqb+1YVO1MN30GBx2WBJX1I3Mr1ag5yHhsM1/K6Qgl36NtK1dlLH08YFqsTnL3yH6D8/wPSVh7u/7Sz37gbi4kS7IYZFN7uRwuznffMiwC/QmIl0kUSVNB0R84L167n1y4lO2cD0io1Erz6V6Mdf1oHgFZHZGYLChUBliZDqvja16yWS4pr5N3saamekHGH//b54lb0pjxG3qk6gjy+IMG5O0eIlpvLA9x6mxXjP0M75fbtPezSvXHxUDHDLN+68DrF/gT7r16xxX28QKLg20bvjhOqgMBmTZnwBI3h1lZ4SQSfxvdRq2pf+sgoGynQ5bbsK0f9f/31CX/jOI0+/H9PUhiEBgZw4x4nfcZy9XW5KNoza1lRC/yNDTalhlrbd+Cz3rF/B9OM/IPQPXjOhLRv8rsTsYjEXcp+8sUUSWElojBOxXYt2iMBYdfHtco5i2khsft0UlEopXaC6/8600JhJRhvbvv0HafuuXd5wt/dXvfysM6+koyxHzQCa6Xm3HRfpf/qLtzgqyPO21jmINyQT2R2pesAWjBKbbhz1ncE+hBbQ740G6Bu6dw/R278wQ//5OzyU8EcqJoUpE+4YIXva0FTxlOT7nSHa84pWuJH8JNh+cw6Y6pSO+H/nxztmONtZtGJPdqGPm1T5OgemSJJcAuIFZwZHYIyRAY64fGEEx3G4xG12kbAEe+6sSlDR26zTeejhHXRo3n+h5lFFiI/aBujdnlB6n7+BZjbszu4rUZHv9SW5t8bxjVaoBqRrEomkF3KZrtiHGBSlNk4YbfB1+8rDRD/2qUr8zdAGAyAaSgYNasQEChGMEDNBvQHxW58S39nby8TPPitO9ZEhxPrq/r61Q+iX/tWU3vsfgisiQS8JYHeZGl6vzTqRGs62qZtjo/JctQEYXKCi9offb1PC1WMzSpz9BIm/DilOsa2NEb/Jl5BbbEIz2wLFLTqz7D10lOWoNEAr/UvE95QXnaRONrf22maNoduLDoVC0oQAYEbj0ZgpVYKGvLtGlTtU6j+/qsS/89BRK7zUvmN5O2dSGL4TQKPA/ng/gZTP7S1dP8671JPxe+Ic0d//Uabf/NEJQFAlPLcTyI1JGeTzZOkfa2GkGDCIiAg9PmnTyJmJSJ8mYw1oZsJv4BYGE3sGngIzYj1Yw+7goYe3oxagTgucdjRa4Kg0QCv9i+dHZ5DyNWLu4v+iQFMhZ8Rfa1UPuzPLVEy01RYsJKptUMr05LphCK1CzPUX+N69RG/67KMnftcpyHFAfBX34/kgfmkIUwQkLOX2WIbHMkLcAgSODOReJfGO6Hc/N6U/+K9T17pK0Bidq81K4xiwumK0KbECOQBmMIgatzdbWwaTyDS4bZ+YxwnfywRMWDWrp7m4QCQLpkksCCxcowVolueOKkXiERmgSH9u8n1Wr1qpD40LDEH/ZbdrdNhRkEoTbnSVip5ydPF5kpC40cyGACQYw6SGJ8kR/eoXZuTePY9S8lOsL0IUAiILWOO86lI6wAMRLYnhYa7TIPYsfu1806eNTBmLg8D8tt/65JRu+Q7sj8iSgSi9jhSOGD95e8yTNLZgEozDDJFzBkmS3EspvSLttw9OYF1M6iHksrJ82VwKjk0mfOnRpEg8IgO00l/f5jYIkkwg2GWqTkW8JIVgqktdkb1oaj0VFIlfYRfUTwdcUJ8iHYIIKOGP72D6wrf5iNTvhgfDzUKNYUsjBEiuwhIMSfepJT8dZwL/DteGXqZoV5q2kwZJ99T+/uH1i34Hu2eFqDVKdf5I1Yb7BbwMBKOlVosIuRYJqQ6iELQC9OLCi0JTaP82J8pMr+OvAMK1T/WTrV+7BuewYXbVmkfUAo/IAF2Xf9O+L1++rNcAFuioxmod3rRRY3VcJI0aJsDLrELaiV1vJgyihBTwf+rcCTLdzKZQcGB5+L/93x8Z4YWEiU/b0RbKoEFqMAQ/U/0gkBGmoAHxJ8i1xF+OPQBhjI5T6It3dX93+uOnLm45xwD0O3GrIQRcnnYco0ZaC+1HwXAhqcW9RiC5WUIDOL0M+DpmJUSgPETBM0HsaNncHBdNYGXCk3c8khY4IoWUdGeCqG95Z0vl4thHDjmIe6pRPtPz9UoyYCgvoRlMfU0N6efRKNMYA3E8OYHgSlMj+L90vv7HAn2QWJN01U/D50EUU1XrLQGL2wpjTOHtwo628Kr+AcPAWBJTOWNqZ9Dmez8z9dtUMwsSsggoF323kQBoH4E7Sy2q8XqGV6FtDL7a4BjnUnt0MCcq4bNRrvNji3hrL9pRz2CtR2hu5Zq30BHKERmgTXfe4A8k2Pg4+ZJxMor9LAgAV2MqitvjXiVldveS3Y9SQtOIVep7+lkE1PvyyXsePfEnSUqZoJWhYQZ6vgxjaoQX7XDsL7RtTMFDwu+/c8hXIULpn8aXzlFqq41Q3/LtKe3anzwtg80gXb36IU1MADJlaam8IDtGWaFGLiNUqlAnNI27YU2qcgoPuObwzU/94UIYE5RfE0Vo19kCb6AjlCUZoM+uA+nfYX/lRPbJiwWc7ByYYzrqsPRq/o3YYrDfZgFAu0QUKURxv4sVfCd+1YGCa1GlB0tJb2gLPwJPeDYmClIgusQQTCOESImJHMeCaJRE+DRkIop2xKQ7RbvcjIlSH0x5LZh27ye6b8fIXLlFGVGMCew7XOGmXt1ByL0yjE6xoiDh6gxCaApNXdszTAc4ioBSYjHY6KZuhcXK+0RHXrt6VYyR+MIjZYouyQA84bfg8coe+9cm49/w+KjUN5eXIwT/88SyVmFgwIYRTngLlciD8XBNKRxEbEGcPuq7dzgnWXLLK2FZlmgQMXhrhIga4vX0vob4g/ApMZNITqVAcUxptQBLtAxIyKjihD7sMzjka/cLrJ2tBeL5YD0MgEHdfK93IcjrQyMX4jPaEBM886sB1OhLp+TRa90DHT08D6yaxO5RA9ocI2tWBQPoxC+mJcooA9x0990beDJx1VFecTI3M5P9kqJvOAZyZIvQxq7XfHhpBUFaQEsE1YmILxxJaIxYUYTVzhgqEZxA+VHh/6n6tIkySSRpq0IOor9AY37OoBIyjBEzZwGa60mcTJrGzzG1jBb9ZWazlbH2798uIpLejGHGTKvHBouGBjOcq5o2MI/gHrVFmhQYpXm2NwRKaA9B9BtsWTcjWhZFFAkv2eDKGyQkGcNHcInOjp2cObhwMc3M+A09R0GCkmbmOVyESUTUghktLVgAQUkm5vK0uoo/2RSeSx+JbEd2JvCYQL2HVXrUXkc5AHFqf2xVWyJUnC4SAM+IU0DsZcLVOhLHLhGn2L4uGDCJnS8Znj982qQnqF0HhP7yNqJv7SjVppSe54JPHpxT08nlkKjINIzv5KQSmhLuj7XSZxS0VXZPRV00uMaJENhhrXtpjPDZeaBoALPeYAlJ5WsINXZ/B1rE1rbLU3dY9a2uW7OGvrfdsd+GmdWrixa4jpoyygCTmdlLbTWL8dtjKojaRY/6qRN3PVYJIZgAQ+iEe1cJ2Bc/DNnaspisiYUkcM4kYnAgJEcU/RnSkm86iig0UofQghrGACYiafpCrWIDjDZwHKesJ/pnFxfin7GJ9ET6Oz9O9L99XOhP/3pKCMH6hWwzR3Ws2fMURGrUPJ1C2kjkSbRjb9aR9WEXQtjSrrU66H3OQtK2az6OqFqbD21mU2DKZluGVy6QSTCirFzVueyTC3eWJpfSCAMMIFAf+SW50I7L447E4bONmbOBgrx6niSlcEVdlwppCCRBTMz0h9sJRAOLNUQWdMVjz6gS09IG3rBR5WLilgYy0RNicEowxbEvEHd91ouVSKM99n5z2596K3fSn205PGennPhnl7C86rQ8Jhkxmofjr4wUEjYHMBsJ74VHvQUqENj3gCnbC5rJqbC3ToQly5a0rVkZ2cLE2NSPYt25b0S1i07bdAgK3nod3klbGr5wDAYNGGCGZi7E4/73m2JSzaqTjTAsRXe1qXvSGYVB/GPqN0liIYsfwzrhePqFMQVBgsxD+uzuiPQaKQBz3ADW8wLElKS8EnvO8YNEmxC25Jma3pfdT5lRuo9fOLc+5MIA5ew23Uv++6/NjJoYyEUOjEPrcnAdujRrVffiMC4wjTHFcPkCr1hbed3FO/IOSXnSCN+Yqt9KXyu2TyUS9ugvTJ3Q95TTOKq9031duWJ5GvNYTGDAAJPJJN7rPztbIr9iSt7WWIcOKmygCcmWn/LLogwNQRiX/FHG8O8TqmUXi/qpORSO/6w7dRiLM9GSxZuWxNKuuyTqiUg69g4b4ou2xQk7iQsJRgkirWD3FZvS88ANOqoHW0+aJKYZ67vVQngsLnIGIyYz5vo1oOHatSgruUjFPT+C/n1sq+6iZ4YSN9m70mQLaH2YfWgOFH7AQ+RSEJTMss4QfqSYwIABuhu8Ukl70HkYN4NJBDEqPY6B+HrBsgsjbRG0Q74u9X7NVpdED+1mEzBKwCePT9BSRWgkQku+kW0gKZNMJjBPvmjqh0s1NmlouITEXrc820bcMnDXzvoVQYWJ0EmDazqWhOexDnhzpHGB+jrqdcotoKQbIXYbM4PmFV8KUuKx95x6vVSfwHlhLzJWKiDKZls6Yic3o8Z6PaBwA4POa2FQYoDyuhM8blNMY7BkWE3Tm1upofNmY5p4uscnwVBXUFerNGqJ2HSozoUVE+rMYhGElixDoicgZnIjzM/5iLI0DQkMLJrF9pAxSplmhjJi3XUwDRPQhSd79QKBYawxJ11hhXBDaCTWl+N/FBJ2nNYJQ40mfirDOwFLE9NphtWeF90dxcPhz8LxGEggCLiJCraMytIJZX9jgliGUsor1qFsmF2xJv386qQ5cAaYmUw6I2KF9RB0EpwNcpc4jGSpjKijJxMgdcwDRQuqjN1mUKtBr3MaRL2FxbUSk0Eo633UCNY1M12bpKONp7mOeD3lBSXitlEwtSqO8RviiIZZ/vLrNnRpjMQghJLUlnSuADCl4byyvCDH/2PaccSH784xddkwcyPn1GdPoxHleHUkmBy+oFXQDFAijTQEHK0LFHrS20q4TYJpC40UL2Zj4yQhnxigq3iufe+9P9CozwPHg14bRw/oluqpUxQtxK0cc2D1MCHGt2ZYfSlW1+fseyEmnfurHhHlRhpJLLG58gaSHHfC75GG+A2DSiNh65/gOf1gE3vITNqGMd5//abQv74J3MxM4D6scOAf/ruIL6DwQCbN4891CSSupGS4XmQIVNEfFMeVs1SdBJ04PD4WnbcVhZ+qTYyNQTWPcjLQMaGcYYND7EqElWjI7jeh7OkQTGEfSm/Tph/da+0AZwD9PVZXD4r/+7EwMyygM6LznZ0zGldVKXA7LnCGLroARrPOY9PwJiHcEV/UWFDz9yaokkpIZyaQnEbjA4ZQmS7AcS1hEyUidkZJkp4avE7eYVv37358Su/9j0L37cxp5l+8S/gNfzClW74d8+qvTJt2m37ztbgNNAAHoQwjtQJ9ofSXoNPQ57bxsD7envhPrRJBQItUuNUNtNcixn06WmAiiluFTNylRYjpCmOO2PJlyRt0KtoBzhozk7mEjar3p+4VT0wwSzJ0vDsBMc1OvG7B2AJajkcE9FBquOCuAjBkRNI+Gl3lqOvyuX6v94UGQMLEBVbiRFUhYMRGJa1nO4UPt1Bcc6Zo+0S5JuJM5fUhteJ3/4N0f4u8ZX29tvsAlUxOGhrnCaxQI1CSreN2TGAal8JLOQuMcgz6OGWGNWy4qJ+GvbMnHJMyBrd8s8nEZ9hQPJWgF80DwDvZacvWVMxItmgxpT0XzzoVXrFsGe2G5jAq7AwwYbrQK3RqY/ny5a6OjaBVHKTQtkdoY5EZJUIl+vrSKxeYlurgcjQ4Fone14crEUzKO39IH5I22aUBtipNZID/bfOTiFPCRok/JCxntkRsNmKCJSGYCUp+Tgzjk6/rTSAcRAgWp2ZvSvSXxm72CVGeqY8dGc73pMpMgD/JWwZ7SMEorvA4uAZXVrLI1iEIDT1x4LHXI8YxZtKNpdTNs+guZ4EScbg+9RzaM4+S0V1nByRG5unEhf0kxghPfnUcI2NeGAkwD5vCREyCUsjVGZCHAPfr10h7qByrBEy2AOidAAJXuAP9aVs1q1RjDOVvCpK2IRb/NAxPaJWJEyUSdDCKboK0beBypbyVqEfWHqU+EEr5Avh4GshFlGIJIUqwLx1HjTW0kj65QvVHC4UAUmIBdY1nK47BvlyyUxLIQdEE6CFen1j3OrYqUQucIoc8db8TAwqoF/dwTURbkvy88ORv+neYkXPFysD/ZJBFKVLcE8H+sL9USY8kHhkKQkbo4tdsAiad26WNOUGOBxEstDNJMndDoplO5DBAfTACW22tcYqgLqURErMI5Xu0TpyXoS9qjGGadr0dyjEGc3NmRjRGpVHirzBBWsKIVh3DW/Q0hbjJdq6R6Gk1WbnPhCuB8eAODpPiuFxMCJVFWuUrPnOdCZG50wfjDkZAMWsZCv0U0q/Pk3g8oGeA9oEBMIBjQNa8WvCkuM98y2kCdZROeQy5RMY0SppxXaA7XGLqn+2MkxoxthyBINRwQvWTnzbUZ0SWCNcISOK4mXh/zWCMylpuiMzH6swWTpwUXW77kEY7pbrQLlkUmQftMDX1sW0hMAW9BBMoQ0gvLCeBIpCopP1lGnZlpJolQQWukiePKO9vbbYExiYcCFMGo9Nps7Iq4CRxYaC2h7p4tWfIFOiJv5wtP9uF/c/NrT61fPYMwLOTZACX4IE7flrlqROy5VFL3H39ukTiv7xurjL0NAjAHaMsRxUhQUgbVXiDtKB605irSgdfNDZIEQyCzdrqmqR1JqgNJ+YY1wBwjgiZkMTbJWegROSwrGPEn8dCmdlojEGNIDgxITreRqR3CmD2K9D/uB25VvDVYosz2xBNqBEhGjNOVWFSr8ZeqXbhgLXOenmZ9VpEnCi+D+27cDCDrVP3oac/sQfNu3jAXO5jli8sHxUCiZxq54vfdGYyU808f17TtkLq2k0jJdqWxL7bPvhETNLrk1wmQ9V6z0RPXkWH5bieYJEJuUZpyfzFYpCsJf6QlO0f4KhEbECgibCI4vcFoBjDmOdOkAKwTrTZvlpR16bpd3wcwz7ifJ0nA9NnQF23o36IM4NibVddJpEk3TzAQTKAWHiVDCnYfjvs0fgQ26azOf7ESN7aclYQCoeH0k1fT6EOOTqp4086sfP/08xMIP7utlP783rZA2DVAJ6yqT7y7E7bB+FE5BTOMf0BOCVi9+qw3sColAUeZvENheeGa3vm4rJK7Ozm0rbyD46VMG7gE1aeaIk8ERkeD5ghCNO8UOg25UYC215ivSBIaAegWmJcGzRJQ/whMms7PGCgmDDcN/JV78ZFEXDqkwsazstlc1D4IWbFprQKEXBiYOoFpE17NXuU1RhRyd06R0nji9cMRmJU6FwBOkm/Y9HxQk/zE+0jDOCSO9F4AWKFzRuOWi++m9uJDJK4fVAX1znVNCjStQqCptPk1kSZ5icFXbRKG8kCV7CKRE6tESuet28b6+KjfHpimx3bhKFiIvJgDNtZG3rWQtGm2wqUCTqNo7knHcN8ExMBF+ua9+sqA2yvRBmWmTci2UIDXoagXTXGOVzcQOQaDNX5AOkCoROsMUcKvULCRAeS/8EpRmuh2ZWPWIp7P+pxT/OT8vxvVzsiY+UHro2B0HDVu0wqmwQTC3srv9mAWBWfGSq2CPW9jw6bbO4M9zJ81s1y/kBfddJwId1t4YVGvTRGHPlunS4QkIsnYBzRThCSpFecEPZDTsQERE0S7UQbOgS7pn8iQ01k9cYZSNI6RH8tG5BKZ5UYKr0p5fVgOEri7Qess+nbNTsPJs5A32yPeJPJIQriItX4LEZXRIoAJNCGNHuKa1F/ZAOPKSRsHai4J3Fa84KgbCieoAktLJyKZ3sIFCsXZB34moHQbE1jR03+i1AIDsX8Qu4eVZhiE/X/QreSuebsBpyp+FZoXY5xVCknvl82WEpER0FoIdW1IyewLKxYGujjbVPeGMrXUGu3DES6Tmj4jrWBGkYStwPjwP12DzfLZ65EkUhREZWyprEB+jikYQcUtgXkNNGjFIA+WRDqyrF/97GqkKk2q51QHM+wmOUE56Q7sbnop3XN4TBxe0PHzzKZZIYpnqDO3J2ciidnOmNh4hAoPnvJPR0LjvmQ2OIEtgTcLDwKCz0WW1bFj0RBGmxahE0O+81gbAkZ7FGcKa51jMaHRC5AgI2EbzC4eBuUiJCJMgOZtpDGL0+8xLtBcXUb92b5f9rUJ1xTTtfQ02TjsrY3H8e0dUv0zsrWnqrAGG0gwljBFGBSHVa8fkRsH8R+GM/235qq3sHKn702ATvAhKkN1zyFKOaUJghcpb6pTujSGnsJMtffUDPXKM/NzjDWncxNTp3trONTsY3lNX9anHkrGQT0sYGI9widUxJAlqdBAZmCcyXfS6D22PUgR0sWLNH7HB6wq3920mDbnFgzH6PASIFIeQw+pCEmw5saXEEm2cK2wPYpEXcdnk2E0lgYV1GgXxwXSFDx6Qbxr1vJ9KuvnaFtZ03oVT8QwX7rsl8+gbfFYSqE7UH//IG9pobz5uq4meHtDwRzI2RuI6IppwX1qbJirUAMTjfgEomgVugiofwgEYzfKQHaotmZ2UR1HYOfOtv5fzeUbLdSzEiYerKZwJSc49iIDASN4nQbnN0hwAT1mIKb0ya49PfgiqUq6v3TWNG00DH7KmbKIAA54ecAO/sWBUHpansf+DNEbtC2jGL1252IxSEncuw+tTN0ZwbzyCjux/GUz62bmd78qln62W0TWlsehAqNCrwlSrsQ3XVjNbRMr+19N/NypaP+JoOkDpmB0KpP3jw9tWnw1rEJg8RjkeTGabuciercue+bXQaox9J0T50UE4jb4gpdXJzapVNnu6unWuuzaiSApGPgrzBGHbz4cCVegKIYj+3/4B5royS1GfFTqEGfeG3Z+lUmN/gZ+5+8SCKx7pK8e8lPTejzH2Bn+Euao5Hc2EY9H2Jt0I41P4023U9PAF3AtTqYqG8Bngt8v6WDOddeOkuvPGui08zReWloMoif7QVPVdiwxnicdMl8PLUZg006DiVb8EbbGlFODmBYn2pyuxi0WI+2wLFTzgTkKhAQuKMEe5CszobcjqRGk/RzKQMra1QZoEM/62c7oPRim8qkvwhmuLrCbK2ZKUIOJJGVie4042Ylboc7dUSmb31J2wlJyuhUyvaMqboJRJ6GoWsjsWU4DiUe2wqPDrelka6ZYaAOngfCjGPdJD12/mltABphOpLMeMagzRh18fu5rOuk/Lt+cqaHO/5MRGjT6gMhTYTUY5xK7E1POmEEVznNpCg4SNt+yjYttLpBg/7Z0YHumZOxQy2nCSf+cJEDCQuIvqR6pDWAmRrmsEVijrhDV7kExCj25ZjkF1o+Nxt4XwK7wx6YRnJJz8R5kxglDIVQhrFRoivdFEBb8XIriY3SReU4ZyqUIx12KDUzAetJ9eO7HQEFoQYD0aVFcGI3prJ7mJBTrB5TaA+gvuhHm/N2lSwQ15sQt9lfdO4M/eNfnpF1qyq1T6fT3i3IajVargKGdHxfdG8mHsSKpa5BUKVR33CjQAahVY1c8vEREywJLqkb2uJmm3OLLkafF+SWp9pvvvSxpJU+3W3qrsXwTrKJbEcs7NZE9y/GAmgiG2Y7NjjNVkkg+5Jh3fMAEvciBxqeawdNKoZEyCyZhupI++nbkIxPoS1fOGMUMJi1hpJgjEGQmEuZZimKOBuHlTg1ETwOWOB+najwKKGnDW8khtd3Qge3qBLiRGuvX0H025fM0Zu3TYjScCqxT6cUGpOoVWpWt9+KsEXEl8TwDyjK4D7CeVRlHhmdXI0vWyP2JSEHCtTYhManpO0wdMzDddJZGuF7vzJtnDTOjA636zlOwY3uy+TFSQP0QbBYJRCPsH2CWykIXZTQKREv+mVJ3VcSFWFB2HtME0I2MAAkRqCEMIgKgkMInXedgCi1EuTihO/YtbbSN/rgZJwZJJgqDQD5XBqmxzYE1nyavATRc/d968lMH/6N2R7zD1KBVXIqptdTgfWJ4gkwEPhsQlfPiy+P87dZAYqCBcWNcDSWosrhXeqrEXolqoOFDcaEtUmmACiWgEJrSJAg9kR5oxshln4LmYoRPENYZnkyWU8gbfoRUkO4WY+6KFB47p1Vr6+BJHLCCvqXsA3sGqxZvcnQVfZM1B2oY7LxwUxF96bKTxcrVSKbFOaslaJb8Q6iRwlvKtbL0IRAwgMj2iomRoljEtAUFEyoGC/GA/f87AUT+u03zVAHeXQ4ZkWz34JagzlJLZeWBNLTh9X9e/9DdWL3P2Rb2LlTV3d2xhqmzSeYwPJbEm/bMPv7HAUwLB7eww5jdNo20jo2oiA/VybBt4gwLBPBXKJjg0OBLMIt4i0QSDY0cwm5jxvkrQPxAf2K5zgZXnfrxWlDiRGMXL2vLoB7mdTvbIqCKARWM4EgBtZAi6h6d08LwhGdExqw6dPlIDAFSbPbjdSGz/4NzonQQ3on96kgo1AQv7eT67/rJ2bo7/3kbIaFOhRvn5ka/mZbbZ14T/i79xHdejfRbd3fl2+R7vuUvv2QQa7yAt6IwPn+d+fOfsmETjmR6WWnTWjby+foglfMqUY26tX6IREdQbqrm1jA2A2yr0cACpxxKYv3vAkodJxdMrlqA24LJQhEPQNAKRYyUGbToB1wjEoI/a2APZEFQxKDvcBoOwgbE7gsi/uVOexmDjQVC0boCaKMJaEdJyw/F2M3IvTjprjLVFRHN/fU6zzot9Y1pkDGGk6VkEl0vQvxl78MK8mnyGOwAAVJd9+ujuj/6laWP/p3xIX4d+8LwnbCJ4H51+sVCtZrt921wLfdJfTpLwldU8/zRduW0UUXLKeLXrlCirYQMTXBiXQEnB5VC7VxgCkTMHAYtoZ8PKIbNoDJxDE4ZMsskEnsD5NlhuJbb7/LW9h0wvGdylvdtFa/W6Uhk0WkLbfsDKoDEmoMVm/JpTctwe+ABSnd7/JahxltrLl2hjJskWzSwHH46CUkN2oO8OELtInSXeweb3/pfpe61jLVu368Er8vQ3YOCCwO8IEJOaH7Ojjz5zfMUEf4tGufOGGTEv2Q+OO70DTqK7MsdX5dRzIXbVtBl//tdbR54wzlXRSiJr4gmYB8D8FWtCkw0p7PmBOpSAPphECzGOy2OvsPHKRde+Lng5rfB/A1BaJNp0gjb/03VXscEwETSdzBmzrw2IHeIRQGEyPuB96LTbVF8qmr4jE1yOBoUqa0eYwQIWrOTPyxmsWtwiAIGNYK6QDZ0RiD4E4SkNp+DOJKgr3L2UL8LexBu4jcC+LYsy5Etwbf/h7T1X864Y9/fmLgJBOt/rk4cvgjtuBkQBzvM3qQpp1de6f00c/tpY9+dg+9+cdW0+W/uL5jhNmYjyjzgi0i6KmrE2AXoxxzZecEdrJGGJUcveEjDwGs9V2LNBI2McB0atwytYE6vvQNxFekWL/sGFA3SOy8VHhiey4MXh+JOSjB6iQY+ZhTzMFAHxHwVWUDAmMniL9Nz6LG6EUsjsS9fjnRz58r9PKNHfbdYPeA8AXENRBpko/ck2L9W6SI1WzwEdaPYuiWtIYRzG/T9dQRscBX91egzh99asLdHxWsj1KaGikvDdFXYTKuHeoa1Xac+FO9YJSPfm53xwi76O0/vb5jhGM6RDEjDUGLMT0zRGqZG6JXYecSw+cqsFw8pfiZWpF4q0jIKg5DuKtjaRBWEgMsThfzooNKz0RdiRl3xAjWBmEMoRaNc3xklOJvuTBgDIKoCSeGggXQFbLLLhFcXqQCUhfP6fIkpiifW08k+tSlxeeO+g+LykHQFCAspCFcdTVW1+V0Oo3QrALdtg28FTjP5s3Gzkb85ZYv38r0rn8623lxbGzT9IlSnAbEP9WxK8TB+q4V4DwwFEMdZ4Tu+h/+xXb69Bd309Xv2sjbzl3thI+IAb+Xm0smwtSS5sgFW/0Owo3xmRRdDml2SLlMhSe54GXKSLvTkbyT2u01yU2ugkLrkRK/GDdTI/EQQDjrWsc1r7tx5lTuFKfDqtaTr4bcYJq618huNgRjaipOAKwhZVvD7q4NkF20zp/8HEsQv1+RGK7rE1svFxZDjG7rWX4S1DdXhsROfswpB38p720w2bUfnaGfe/eynvilJ2YjUJD8SvRV3Eoi/n4NWHosv7lj/s0nlM/OBbqKcjvtd1JGaq4Zsdz33Xl687u+RVf/y4fItiTZurFE/ZcgfsEPXRRdF49ZuCD2tTGvo2IfxiYS40TZWbJBd3UXNuASVy8iGK3u0eyvI4cGppPsh+1nOjVqc3+tSPLvBxQgcSTFwDA6QeU3ixST/lCfCtLoNuBWwtdEiYQ9NwfO29L9+FlEW9aDS458VrDQhNpIGZwkoqiis0YzIxwdInndoB3r2PKMPQgkhiUr3OmPC8z5Pz88Rx//TxMyKR0SGQm1Qpf+2rQeF0J/3d+Y0NmnzfR/p2yayNpVFu1ih6Tl+Na7FjrmWqQvf3WebvzqAbrtmwtKZlMaaBPrx/rtzl/9xw/RjV/Zyx+8cgutWzvrshViRCxI9OoNdLqyrVQrYYTo8y7BtivxBgzLMmdngkCHDx8mG1G9Vbxh1v3Joptww8km4pidm44jiuUEZ0NXCmCtpISj2+9CQOG/vqaeBPLBWY2J+kPaYQTXlYtWpIE9II9KefnGdJhX1KGppRJ44plRM40tDznPoLciL6WvgwjekxgVGIaLtP+19851/nyDPCYcmz/D7d31tauFfuUnJ3TJj871Ut7nQbbF6qJEyds1u/X0OTnnJXNcPD2dXpD7vnuYP3PjAfngJ3bx/Q8uULYjsl1hY/jSzXvool+/gz529em8edMyQdrp4aElNdezhm15VFNSGMXo9XIFSu4UMdHBKsalg/lJmHUQaHK3N9xsCcMmCWoBJnTbEmA1aQaYDJM6REb29X7ZhHyVHgDslIOl4RuIFTlUCCOcEZbaZmRQFaNXrhpeE5+OsyA1GFIC+tASJRN/E5iye6cW2dV7Gne1DaMniOLe/Ln3LKvELyHlYxxAkN1fieS+/x0TuuVPlsnlPz/THTvS6LUPCBHcqaQkw3vHvYfnbRev5Rs/cjK9/53HqesT7YdpshlsTPc9eIje9u5vUl1EIRSWNh6dvgB8TpIdV8O0Z42bxhspYC/ckapCmHMb03snHXfushMLhxcJ1Yuq9rEdUb5SYuew1pni/WUm+V0bAE6ncHmhb88Wuf478bbYe6XQCcwheENw6gJK1LcxkJ0rfy2U1bq749da3BlRrkwA7hyB2JHFjOiVfsxeEhQsQfBaT2/UYYr9MdoZv/be5X3KQhCYYe8gwFJ3XSfx3/02pi/+i1l6049MCGCqr30ldP9Zosqssd1mArLJV2k8fW/+sXV04x+fKu+/4gTaUlyfblelxbVNoFvv3Ec3dtrA6ESy1JG2fUKxABtTGZfTfiB0rhMQN3eM5aeSvUAFPLoRXFJqUzGxQEkMWmdKy+zcYHhNSNp8E38KSDU1g8bm0CBsEpL1JucNieGgVqqThI7q5GGpxEA4rCSQX8vWX3sAZh/Ma8/HBmU0EAa8UyAzkhAdKyDb2O2CXolb3BP76Y4L5i+SP7g+iIvVA1O+X7BV6C+vntDbfmoCbTgTBuSsJMIScoj37FeRIGlt2DU/ayq1Db27dslF6+nPfm8LXfK6dT6ubJCHZrjvu4eILOcau9ANGWB1B7NVeEqjoWzcg7YaHip1FuE9TEyTu2e7f0cZwA0HFxbcpj2Yy1MQ1julcvrUvBQyZxjGA4iciSiMHp+1cKhmUoaBiYXhqGPSnUGDBR5r7Afq3ERZA3T/f/Eeod+/kejXL9C4EgUloLHfGrLS+OwlJD1LlvrU1NVVEtsDd/UaHrD5/dGnZulDn5rpidyMXQZVZhrgsp8juuxnJ4qGQ7OEsOgZjO5/cJE+c+M833b3In3pK4do997FLn4wrfWUiM9+yWxnME9o2yuWdX8r6JzTl1V6Jnx2u9LHlk1zndvzRb0meP9HvlvHlaBQDXps3ti/e8roh0ALBF2EJeKMorNhxixXjSHoBQF7FCdORiKLi4u+8J02uLf8gNI91v9CZwSzJ5WBz7TKiDxgcYzghm+tCt59Zpf8Ewh06PgSwfRSqXGRqgg1w8/0daIc3QwyJtKV7mrXF+oG2BBqNRiqF0yL+K2/rJrgF85n2XoScQmK2bjY2VlQTAo1RcdusoFbhslTJ7epQG0ku+H+71XpL5Q9PWbgGux53/9OdMlrJmmtat2qVPfsK8GqQ/zZvyoenQXK0lmA4Wt7t911qPMCCX3mS3v7uptPnOErfukYuqBjhmILMMpXncflv3Qin3P6CrrsvffS7j2LPslS84IuJvDK89a598thMof9VteZ1U4g9xLmjde6DtoI3jZtArE/Esf/vm66R0I7ufwy5AzzJ+zkaVteBC/Hgk0CTUBNwCukORnbBU+AuLZxEgGwj8nlyzV6arjUCNAsJtBFFJ4gEsd763+XQ7oblSmhJ3cWagvUBtpJdZkycpvn7AtqE7inbYfaevr9zy+fo1e9lDEmgHozabdX/53lGuSCfB3JmP99f5foTa9pkUVsyLV/Ok8f+uTBTtIjLBlzZ6rKdA9SC2Okk/Iz9OaL1tFlv3icby/FcvfS6L4HF+SK372bC+Zfu3pCv/rGE+ntb9pEa9fMkAlXMRzWQOZE8BzCYEhzFS7WF67BzDm2S7VDb+N+f/uOaFbkp2cXeXrPDEXC1cFD87RmtkkRIuMqMunPySWkM+9fd62hbaPS2M08MBs0EbgXVJm4FAgXXUAOAp+xiTWbpKVKkMEDHhDhOPEjp8Y1s23IJOjUOuVoR4JqE8NBOy2TlFJSHQrxS9gWtQmn+fAQffzzM73nh9sENiDOd7+tI/7XThJks7257e6pvPPa/XzrNxdhkPY34st3xtD2ndM1aEaFuOc7mPM9+uind9BH3/9i2bJxmduAJpa6c/yxq88ioAKdIkBGVtcvE0G0tsJtF431qo/JZ2cQU50M2L84sZChg9bGnS5M75nQ3Nw9ab9ExMfbCJKMWepZHZZulncsaizZpzeidANYX4msNgDwycku0RROf4CibKbGQ83bl4moIX7S/ZYstYGwva/pFHrM+lhAu0TbBrEkj1zb/dXX6GtZGX97V6w9h0vls0R6jTB9OSUmcNnPEv3KT02UgWyi1Yb70L9doDf/H3uD+KUJkEnDEBjNtboMTCGmMepkCiNs+9vf4Pd/5EF2IeTTNcZW2GwwrwknWX3x9u1m/9eFaA0lMcgb/8oU34QY5WS9sNDHuaIsLOy7Z3L+aaftJEiHODS/QL6QgreLYxZTQ0LtqwsF6QMNQwMIuiiUXIFp06yWBBzOqQF1kSMNSGCsvWpReAYEJyGFYeWohToD4jdPi4llqvVamknMItDONLSFM0X3uW4F0evPtYezQz+Ct8abKhmd9z1IQLg51WHziUKX//xEbHnA3crX/skhuuoPD6b8/7pmU0oemiaSmzxMYveZjWDnFut51RBX/8sHur8HlXljP0t6gwBjCD6dBu5Yo5vkVEhmmnvgAm5TRMynAKDrvUPaaxLhdp5//vk1EtwN5eau0oXl+/zCQoX5MibvQxENjLngQSdCFcgmGWwwwBgaeWTYdP2G7bPEa1AUELJJFvaMWDEp4nolzukaC5KbM5p+Zydcq7OuM35P2WBJcUbEDG3U4cd3bdWgkukwp63aR3l/z3p/tHHKCH/q8pHZo730r9pd170h2H/z2/jGY3LsXPD+Nd1fJvx6D8P3xM0C59PTYUShneI12olRur+rP/JAX/OKS08ikqyipckfE9xw1YRep75m30QcWWaAwW/tm5WJmABaxs5iqftwePEwnJl+pXz2DDDtDrp2Lizf54sGMBAExnRKb0AiFiVWQ0Pmq2oGJCbkgix63/pkYoQugH9NmlG4AcIG6KfubxFQKh4wjmEtMunPhAvFLWwh07j1n998DdFv/PCMdEzQAEGdUHxHyOIQBBgYRQMKDZP6HAxNNuy+zsc/z9xLfyB6AaJ902tq8lqMrgqdz/7VYbr6Tw6REzsBkadj6hPgzn7JXP9Ay7ZXLJd1qydcIrtFa3zru/O9F+jGr+6nj31mN7UPzDhZAqy6+iPf4S0b5+SS1x+f1xtBY+B/lWeeVqJMEEvGLhPYTTIGLWD0UJlXNQsE9GDtO8gDDDDlm8unvgouu0J7X/REg8u+W+KEjtFZxW0hdUEVwc74MpgSEZPqU+GWYTFpjPUtci6JVK2AgE83EnqjnMChYtWRBDSAtNE3+4/fSPS3/6eZrOF8gj4nRvZB3zQ33A8cEOo/js1fp7weCXId/GGUznXeQWzF18/Jvdy5Sx+a0pX/4iAhofr9ykRlefu8oDesordfvIbWrZnY4iq6FS6POG49fXn/V4Jbl3feno99dmfHCDu7+MEhsihm1iS1/Xf/s3t527lr6eRNy8jhsu4ZGH6mrdjRgRu7lOjIXPOw8v33XoAyJyqoa0chybSzqT/+6d3fUz57/bkgizcQlP0HDxKGqeGTiVJGZ3RTyZp9IYl8YSJPQwxAu/Q2eqyEoRKwlwg1qU1/64lAiEanbCFxopi12gsg2VviT/SJmJ1KJqjQL/wQpA24pCZqb7MF9zUlE1Xu5RANpoGZMxFpAmds7cC5+x4S/vIt5cLUiY1Q+v9IN9aNE9Q4veAokr885O5agyJmYG2c/ZIZ+vQ/PZ6u+MV1nQaY2ERg7zyW6ATYSXV65y+fUDw+XQxgFbmxal4iCYN6z57DdNn/c6eJa7GgalovYzYobuNxTZs3mOsXGxvJ2xPKalqcVu0MHT68SGn/ZqjXAHX2jSeot5adhAUlFhnxihMyAzcg1elAjdBr3ADGaRg+7nAVZrqRBrpBtE5agLpZEtaOHidJLxGxXEr6lzo/cc7EGsH0ZuUTSVKEEOPqeRhHDJgIhHyGSw0zaJo3y423sEMVEfTP1zGUpDZ0HpTv93WR3Y//R8T9tUvH/N3fJa9dUYhfNp84G+KrRlNDntm2MSVPSqlwyqbl9LGrX0JX/PKJNHw2ILTOjTfvoi/dvFP3p/Hxg9EbgMxeqsVux/QEwAZ3lN50lWNMDq5d9LORjgs2lvn5ecLy8jPPvKF89rvde4KockQpBw4e0rFyqJ+GaMSHIeZ5V0+JEExYUvqAH+OaEqwNUUj8mKemW4Aa1EUD4gLY5G0hYRMSsJ2D5wIMcfZRX5OzlWg4/bAC+7xaZvAymYDAYEalw7AmUCUgkWmDz/4V0VgAqnw/5zShk09QyVIXv2//6n99qO6EmLTLcYPX/Y05ev8V6ylsFlj/7tzu/SLX/KvttO0X7+ZL3nW/vOf/fYi//LX9/X5WTVZZqdx1xS9voksuOiYzgWRmvfq6bxlBRzH2YnKEwUwJBweZCTf3uiwTm70L4B41VHqdKsM4UxB3zh1oiJ3WJ9G2fMG+FwZQzqWwzDnJY+vcICA7NLeNqfQuiZY97Vc3Ib1NTJloIknt1UV3qWltcUxO2+YEKVrWYhuZNNeEUrqEwPRU3fSPMaoDwBip0UzRWmJ4MU1iPVGCPwwZpjCavs8v31KlmS2wL3SBP6+ZAaav5+5/SOTj/2nehYZIuC3L5+aNTFf+xnoi1+gS2lNnfeU/f4jf/y+/z8W3f+NX9/GH/mI7XXLFPZ2f/3a65a4DBjcqsunauOp/3UKbNy2jcKmiRiC68aad9KWbdjCF0LPBoSfQ/hHYGBe6A+1ByjAu8EyLCG533WmLrYj0UWAr3X46rcObQqc3Q4UuHjCvbVV/rYA8hVEGrXHoqVBX6uYkE20a+PH7gQhsholjXDCKOMYOLQgaACRqJVr76gQusjThU1z/4l3TmFLEIcA9NRLE8RaHzCHgkcBNV+GRIKHyC932zfICq0pU5vY0t3k5d8FWdklowqIktTlMGokZXP4La0r6gugaxzjIqY9uvat6jgzT2wKWPP6Lfu32zgje7jOV3lCeoWt+81StD+QBMYYbOxhE7sYmx/1VqxuaFoPIIoY8NZjFHstVyIxp6WRiL2kPIxDbPFpYXEzaeobpBvvuDLAwN3c9QelhkHKgxpcjpsuYiuPRCsN6TI6zzVXF0tKfYUzBwAn5PWYA2aqa1iCoC/gbgT0T4n/2+4haSFT3SvRXIOvxrd8h+tb2lPPPRI0+YXWsuqGGioNg3OLjq0CF3ViPMfssrHUpaQ8k4fMXhRYFW/duy9M4CE4J6rNfXiCUwB6wIumN5Tf/2OpgOIafM/UgYzV0B4QMMYfL33sv3fiVPTBioQvOW0vbzltDHi2GN0eUMX/mv3wP1g22iEwwKMxhIpf6qmnCfvB09Ooo8FQcaWiiUSTqVZmfR/jTnZ7ODCFQsQO6xu614337DzqqcBvAcGBSX+yLQT4UoweLXYBfnwChqNlgHgzdiEoFoszkvnQnJu+hYkc7jLGQ6SMKJgjCzxGa4KL6fdcBoYt/f0r37SC3GST8+eTjouTtUcvdriXIJsx+M2gRTxOQPJROA9xdCZ+AiG3yZ5/mUzSF0RPIjV+bN8lMbR7+r7xhNQVEMMObTDr4AN79G8fT6165mjzmIOE2NW/PFb97D+3ae1gHXG+95KLjCTWGUm///ZY79nQxhcPGzUr+lLQk2QKF56evMbF0BpEQmL4Spr8oLZ9oO2L73d10KBnAfPPLXnbaPXaUs96YihZ4R/labipQaFKxvy62v/62biy5fiInuCB+k+YEhiln2GIEHlDJnqPH+0j80bdIHBP9eVYiCoM001K8kpByaTQBUHf/5b7tQj/0O4v0qpd0keBjdaCifbvg1iFD+6ZtVLFXz4q9BqY7Lr/Z9bOvipddTQMamN7s97p/Ua2Ox12NKlF7702aCNGXvxbP5abAl0KiC16+LMYTlhNT/ckUB7kln/+PrtrcT6G80aFAnmv69IZgpvIwy8c+83162xs3knn1/tarj6Mr5PY6Rh0vum5vuX0Pv/L8Y0L6kaICFalAH4Y4VFQJeAdG0sjJ2QAhslR6sSrCOQdIbsY2EgPIolzPM9wzgNkBK5cvr2OrXUiobtXqKl+ZEFKrkW6SzgiCgklEQCHakhA5FYwUJ/4lcLYyvLGnZEKvyxGgyok/cnVEbBT1+It3Cn1RBDQI1c0dtBt9Mfar62Zvgt5y3MROi4luW8lYC6Hde4UGrzZR4o7Ir6+n7NpX7xPUGHpfCWidc/qcj7HUKc8EfOgTO6Ujct72ipV9oEtMZKmdtnnTHF9x6aYuMjzDV/7z+2ABOljzxR309jduEoPHJb1580nL6f4HDhAh6SoD3v/dA12jx1ah5QvjUJAswGq4Xila0YEtowR5OJoy+WpOJEYe68vC4YVEL10nn8TrEzw4vGL2ZoLEuH37Dzjh6KcTK9CuiOBPJIUwUznMxqskmbKrJ4PVyDC0BH5dqFt3hgbE720RpQjsKevbqwSEKRSoQnMP9NM2kFSSu1rSa3VfAXvCfdxqGz8W1w7KNEzEvltwS796JQ0BJSi5DSBGGbCQ3Enlw9p244mR+kRXCJQqXTv3JhVvT3mD2+Xve4A++IkdZMRvO1ElKfHb33iCdJFiwoS4W+7Yq3OIXTvnjFVkDGJ9G2y674H99Z0/hiTqfWyUgl4xIzBMDSHwBLl9ERvpKoA8HYd9C/cfnE/0cvZZZyRbNzFAsQNKYpwd7967D3eGCMLOLinZsKBup5NyClBxTDrqi0d9nRxra5DbjV6XygNY3CujT54Z2hB6+SYeEDysors0cVl9ou0fNRYGUdIKoGB8oHhv+q6azCxS9w9C9FzMewMPu5tRu7lGf82U7r/v2TdCeARQiFliOsIf/9wenUOtf+PN+1zimrIJD5/0T3ehdtm9d4F27VnQNuqw166eIXTVpviAK2VzeLDSAIpLvc4MCxaSEVc+YgsWJ1CXuGAftaD/vyOSJP1LmbQnOo+3Vyow6MChQ3FRJKzvOnhBS13BLNhbktye4HmwD18dBs+SLoQZMozXxZeh3ivVR88Gpo2wtm4K6qvpMy1RZmiDsIZjx2A/xdFFGD7k1J98VuTePmjXRpMCZYmljei2nMh+uY4nNE7xAukwK1NyTWhzzeVMgJ4ggjl1xNq/8S1SF26760AsiUZqLX0BNZeYhO++r187B3Mg2rBmljwtwqV09SJt2biCojj9KH24RNVTEkpSxJeVffUCqXKzE9XLRsZWUogfnwHuqD1J/3qqKQuzk+vwuIdBHnABdtRAViIW1vOx1rapwgzcKWhM1vO2X64BSEPa4Pf1xaqjqPh6wim6bJVefRpTluAclGPpKwpbEjDz80T5AgH8qdfCQw3MZcSSGMIadoJyU8XHB3N902tnJD+eWBva0gWzLrpgWV1EWOO1q9g7k+Yh9PLiKjHsrZSEry8hfUtDF/gi5TT10vSGS58ReuPNu71uOdc//UUR0CwrcNGrjyOQFi4iC/FvO//YYMC+cXZA3z/KKOQzigCXWE6EBORjIoDAhv3Fgqpu59RSnm7EMrM4cwM1ZcAAPQwi9ooFBukkKUfbYk3tM6Cmb6oeinlQ0suLlFFdyojfXBnCIBJTLAqOFRiMERcX6uoYQF51KhFJe4fWkZCKupMxbp8M+3mT2RO7S/ca0TgytgNTk8bdMPfslwSXGsPOR3PBOcyX/VzxT0TuTzF+/8VvrfLhwkg7aWx9hffFGOG+jgH27J1WoaIS/XWvXENO0Fr/ivd+q2OWeWie+2d6L7n867lu18+289YTCpeyv9vOP0au+a2X9W98MI1RbIcP/d8/2BnIq1zCAz24K5bxWoViZAlxsVr6xUR8fy8n2ktwubs9wR+afgHdn1aGD//2y374I0wzF/bfFQatXLbcrXW0cStPOgKzJ3So/CBx2LyuwGKqcIoq4ElM1OQQsUkOvUG0josVx8USnqJ/8Fqmn7prGmso3tjgXLWlkFuA+KG+SKy4E20vqMUG4p/o0ih/5fXlGptRO00Xrq4Zqyjox3/5zy+jS147WxLc+tTkksFpSybofJMSGKvMEjg9PzN841cO0EWvXuPEcsnr1tM1f/wgGaOUpooW2PYLt3LJ9NyyaRl964FDJaHN1WiVxrXty99yii+K54p1/7359S+ii151At165+6O+GfplJNWy9o1s+xjxr1nf9GnGwR2ycGECTZ9VYyo1ldbVBdLRTFnT9HB+cPSwR8UFtfRSJmMneyjwuAN2rFzNxA/EUKDanyKDoiNc51SmLOsMGHuCxcXqlfITqC0b6CIBaDMmPS6zIlxXnkq0U+czZnQ66BdShkx28JHXSB+I3yYBppxOD7n2ET89dru/SG4dLhi7bLHW7w6bz6R+YKXz/bET5SaIg5e619PsvnEGSdQJ9ppxfkfvH6nUlOtXyK+b7v42KjngS/p39r20U9/v8/mdBtCwgh/+5tOpi0nLc97yLEE69fNySvPP07OOXN9cY8yjNijWUQQx1EvtOJpwAEq/Kb280nCII3MwQLYSOmnslvnwj+EaGHn1peecR2NlFEGqFHh6UfsuKRFwKu9o2DOthKJ215kCle1haC8DLep4TcKdzzBqlk/pABVJxrQBdIREjNYnX/ypolsgXdfW8fJb1tvzm5QvGzX4mlA0AQ2Ergek/NxlvO33rvop7VJVgwgPnZ3GvQrIS4cdWGCUMBP3v297oLliYMF4NCNX9lXXlUOGJHkyv9lU5/XT07kldDtXpP6uD7nnL6KrijSX3lWwD1pxCtquNp97KIChF3C8SEzyEGaDZPM1gH5A4GzLDDI7Lry9jfLaNYyMH6tTJa6UIJieLxjd3GdmcecyLiYAqYgBnNflCTGyapQBYLOBwS+a0AyIlLwbO5TIbCIScZjA/2SlR+W/re/PiPl2d5x4qbGU8MxCNh/QsZBIi9l6tRM1DIRtHH/96KxSP1QdGHrJ6ZVg2iY2jALqcQmd5Zf9MpVFE9/KfHbYLvjK973HZNHToAfe//p9PafOV4HOJbbb3GFKV3y+hPoYx94RQ9t6kIQ+EN0XyltdQjFfMHwqwTOV6YlLHYLPPAEeVecgrICd7EsLOTcnymHMG/Lkgzw8pedeQMaw+WHxXTlGdjeEK+pAPNPOz3YpirUbyW7bz4auz4XojZpi7ENjxeMFGSKzeuFr//1iTIB/knaKAJYxLC5mfhRKlJQpJ+OayxDbfDt74sFajiIuC7QmJFva6t5T0KJoIzRmLadW3+pkdI8grCLr/9Df/FwlceWct5rgs30savP7LD7ehLQAjbebeeuo49es5Wu+Qdn2bv9PUiWSbYugAcPTfnXPaIkWGA9/HX2es7mWBmiooNp+Pbx4SETDgp7p65J9loAt16/xx5+GStMRyi33HHXZVx+FVNL+RXJ1StXkIJJNzwNA4KOi6bdaCGbgGmK4dNSgQlBHQiB5agCz2COna7SUlLHw7KrW5d/9MlF+jf/TQh1b8sQDtTUsOWRa8N61dMzbEdSH1f/+jK55NUTFw72BBgacKbpTBH6Ckj7jHQo3/Ll6j/eTtf8q4frmKhJpZCK9T/z+2d0UduVTsDq71fYKtXlKaJG7ArpcbzzZ4SpUHPVWeqD/THsnoDZEEPYaQL7J+ZGFdBsYeTWupM2/SVoJHNW97U4bHbDr0B2Y3jrUvg/1nuJctPdd29YdljuJv0x7ZUrltOLNp4oCfYA7YdHI7r3TZQlBuCTqzxBrR4VIhneQ8FIgp7IMQZomI1LurP83qcX+c/+mwwIVoSGxu20JWbtZioN7KGRdiRpkF+5aIau/MW5NLigcCIDErhe3AoFFDGuBbl/ue3r/s699O0HF3TNM/FXwp70jzO+/WdOzMsTMR1xws1EF8MNBOoJgi69KPFuloPQFhybPeO/KGRBuFiDYAZPhKRcrPrDO3eyPf9bpP/ZL33JaXSEckQGKOVr37jryk5evceOT9p4gibIIa3hjPEUGj8wASfIep9JN+KGAUAa2GI0xE8iWQKMFOuXgAn6yvc+PKUv3Sn0pTu6gNH2jjEeFlDPrN4iCl8/EvgUpLxfG5H8es2Y6uxTmD70zuVBN7Wu4jt9nA+XlZwrhOFUcgjoyfLx5c7lecm77o3B4pNhZFHlDtO/7hh651tOLn57XzgBOUxCoZmQvutVjh4NmgJbmtZupFf5unvPAv3Zv7+L7v/OXtp61jHy5p88Pe2hBjXBH0RuL5Gkzpr++teeyPZdu5HPrj37padfTkcoj8gAo1rgxBNsZI69DMeZMLN3/thmIZJJA8gawNdKcgoESnA5gtHbcKFDLrell7rH4Ge0z42hxWP3ZyGXo5keE7GJe7DOU5M9pkIhIEIp2K312ogXjgKHKD30zHPlP/8ufbDH+6Xgo5EBi0rl4g59/Q8fI2/7mY28edNycg0Q0XzRTTbArTIHnt7Sz4H8ceqNRbrvgX30o7/4l7R79yGd/rQLkq2mv/j919PmTasHqxxRYey+Nh6wKTrasWsXzcO7fyaLk9PGgl95BY+i3HL7ndd2Hb7Djl904vG0YsWKPCBPR0ibSuRq84hEa4NJmrJezxoE6hJCfjOW7WdItc+jYBjuNyJiapQlIlEwEHhQlpqE5H+U+OEY7xshEmBJQicBkYtlHRq+nTtwRBnznn2Lcsk77+Zb7iyvt2nf8BzRZY8ad3XOOX0lnbxxOW09Y1V/ZusZa7rg2fHepwwGm4v7sa0K+VycRP7niz/ZMcGeZgxT2vaDm+jPf/9v+XolhqMW/jVCU7ssUd/qqfRy3TkvPf2t9AjlqBjg61+/+9TpzPRuO17hWiARuco5ZABdB1lSciuBZ6MHcZ7dx40BPCy62ksYG8nQjO/aRfXDY3UCLURLeJtMAbddEW4a4pao4owtTWP1ez0wf7/XcMMVmuSG+LTP+7+7IG+64k6u6Q1K+ClPqNEK8OijndvSaYWPf+AH5eRNywd7Gho/XLWuCeqaqQCqzV79wa/S+/7wq9qHRedrstz6NXP09f/0S0b0rj0b50AWjgICpjvqpD8/Wunf16OjKKWhbiAfseODXZDhoGeJVgewLk8ocMnjtC1jTgvJOjVbYMPqbFHdOkfNOs2wKEq/0BNJDTOnT2mTqNC3LuqOzBFm1SQckKW2GK5ZsTlUaoXm2AiNifQNBhz713AN5wXRpDhBvnGJx9BOypXhaKAcbt44xx97/0v6KDGmR/eMopJXKPz8Qfy6jCVJ7oEDdNnv3Jo1uvdohmisbzVewaWpfHn/d/dJJf6Q/P7gvGtZZ2oAFrZnSPqGVetN5Xt5ny0Sf1euOxriL+WoGKCUhWUzlxGmR+za7Qsitlk2UKf/eE2gSkTFSSyJBCJrDjmGgCAT4Q+0ALsP3eqRfaJk5PRswdTqo+yNr36vbbzdaq92YcLAhUgk8FFAFYrxC1BPlv4DjJtshJ5g1UOjUta5w+9vZlEvFgn+mT84qzd482OKkDck0IDBItAEN970cAepDkvVM1R8kgPhY8tWNUDYD2Xe931nH/3Mb3yOY/3iGQcb5+svfLE1YUoc10cs/5+byK9SHuNzK6V00v8qOspy1AxQ0iOmU/mAHZdQ8559+514Y3eTZOWlEckkpJexTET7/AKhzAnYgiVJco60ggEcEknPmNq9zlys0ck0H0Ye6SUcQFNrF4YShls7ZR+sd9rIgCpLKnOZllIVaD4RNtdvIcRvPTjPH/yL7XTV7z9IH/vcThCUbBGlzu05Q1f//VP7v/63uZJqVmaA9/pUeyjbCCDX8rxUU/vaZFnBu/ccprf95hfo/oL7laFIpT829K5f+0GxtZXk1fN1AW1jnsLa74GD8znn/1FI/1Jm6VGUw8sm13YeoXeQeoSKFli9ciWVsM7UAiGki6L4jwzXt7JigMdDuoNBqvXrhxI4o50k4OI0+ISGYjuHCcfvljHlYJzdq64Yo3MyTWYMjRHogTsW1bbPAOp7k/1PotWb2bVActfWAbp2U6ld6fLjn93Jl//ed7SrKk0/+PGH+vSGdWtn1IMUEdvy5oYLzl1LV193H33s0w+ReYJCK5gelz6Jzs5v7gzjmtRGGTfGzlSpZJJfF2733gV549/5HN96+8MkI/aFlXf+6vmdJ2gthc1ne6uKzpqV+hsAHNHPvq19B/bDcPgeXuSr6FEUpkdZ2rjAMevXdn/6AK6g77a67iJySTZwE4AtwQ8I1qfaGNBA7K33hqBNCa9UFroMN/CS9+JYlInBrUuSu0VGFn+Wm8WZTH38DJlQQi4YINpqbzz2BdIFc/jT5/i//te/2Qe+CAi4/8GMzrX5savP6D99FWG6ZSz3PXiwgza7Okb4bnlzm94bbZjXqGiPP/8nf0POPmNtE5ugzNQITbs5dLCHf+XvfYG+dvvDva3hxE9meNdGtr70OPrcn/y0i0ZTIDRit1XOr2sgymR79+/vGCB+2Lkb8uVbf+D0a+lRlEfNAKXcdvs37+4Gcqodn/Kik2RmZpLSInzULb0592bCGX66lE8MQyO4XY7s7vS++9SDcJOOMaIY0XnTSpxhywjCvjgW18xHdJU2fIOkj+IvCAw+q/FI/Nkv7aG3XXk/mSFZ2w1CK4bvNR3kKa8oR2Oh8dn39Fje8XPbHXvoS1/Z0QWnDtCuPfP9QLdsWklvv+SU+jALarPBRPJ0bvzrB+myq26s7s6GoVSL9vW2vGgN/cUf/IT00l81KHr/UkeqMQkeve20gXxv+w6GuT1i1HesPCoIZKXDXG+dzEw+b8cPbd/OJ51wPJnYMjUlLYM1BmkYh1hF1T1CCo7f0SLVFOjrx/sQZNh1rWwSWkdp96IpS5SJt24Ag/7ql1oP+tYwTuRGWnhnTFlRABo/p8zFqKAMZng2kH8G4e7cu8gGe+pSYyZneQ3JIbrk8v9Bb3/jif37e0qQS0czEB4b1s7RBedvoG3nH+MrEHTXMLKOZWKSmEIw7Nm9QO/rXJ1/+G/+Bw0ySx3+RFN/9L4foy0nrSV0m1fHhAUgmZEJVCjW792/OyHfp5TDsnDEiO9S5TFpgFJuu+OuT3QTutiOjztmQ6cyVzeaUpU31WFXCSxjmgKN0oTrrSDseeRZZb+9G8axX9bRkvcFMwM7NVpLbwIXHoTmItJrmt0ZBfQOxYZH3IN8rKANdeylkfIzp9t+6fZOWhfXX/MDGIbh1ZAtz+9e8ZaT6c2v3yjgQVJtJxFJ83VW+TUFrRoraaC8bkedi/zZv/smv/9DX6P7vrOXqIk223cs17znh+nnfuqlQpHaEEKkriJ7f65ow4NeYE+BP1COKug1Vh4zA7QpEpPJhE7edCLNzswQ85C2nCVkVIO2ECZJqXrfkPDBDlBpOqzT2AlaJQhZ67BjgpDeGTwTDD/1M0Rk7b022YxwcL4C/7atsoxJ4o9+Zjtd8Xv6wipBQhNlxMwY5THHKy49pX+ed/NJK4LsQ9pDXwlxZkjH9emlnbsP8Qf/7Hb6s099s/j5yd8OnYzdaV6Arrzz136w8/qcT2Dn67pCQC0xndfqR9kJUPr+jp3hvKiG7488Gs/PoOXHWtp06RIhLlAoiqjoSpjfiZYovDB+AzVKhCKfx863WP8R8P9juU/H5rCG8/2shKCvNxxEituoKFwhS+6Li0h8et3hY6JPJMrun54J3nsPJSbQKCu+V8gZQqoRetEPH0evf3XnFTpvQwdDVhozuJYh0gFNs0C5/4H99MW/fog++u/vplvv2NFpoEPk0WQZgzz5V1mu7ST/z/7kS32B014oE2DGXexESI4O+sih+XkQMEdOd36k8rgYoJTOIP58N4gL7biDQrJ+zWpHD/FDeHUDG9jjRLUEMabrRI8mKS4F2zjDmKyDPNJMlKQ1UYTkA4eahOIk3bBVwAiiBM4Ipzhy8ziM5sBFXlUcP+qgvAN3b9525wF627vv7HE/DYgxjGR0ewo8+ljSo7eesZbOObP8XNIMrV07S+vXzNKuvQu0uzOI7+8CWbv2ztOX/vp73bH10WqcqSqKYDKv05V1a5fRh3/vR+mVP3QSEU6HQeCJ/Y8JjFlT7923j9HrQ48D+hAs6eMqfZ7QrNxkUKiUF208kVYsmyMBDYDEn639vqDkT6VZBF7CBmhJhATxfsAkcknNo/k90A5mqdpZs8LE30UwlGW5odHLMTAyaibQNib72OfLeJ8qDG9b7vvuQX5TZ/R++7sHiYDAEY70w53mt0W0DFEte3geGDxM9oyxgK3hdgf2008rJP/Wlx7bGbw/Wn39NL6PCV7G+hLipPIbvx30gXseH/SxctSR4KVKGcDidJq48KGHt9Niv9hMYNv2JUnbYRH47P8yfq+EzDz2PIQDxfpdbLNIwIepOT394lboorfFUlv/9Taoo0NwpuGWzAEE+BdWP09ib69UI7xs60Ip0GRh4Dyq0EKVSLurxcvzV396Ll1+6ckEXjEyLYA/lIGM0aZI23VjjPp9SoTEP/ZHQ9hT9q0EuT73Jz/Te3s4p4YQDZeDbcttqXVh+qk2mZ7lp32verzEr6v7xJQ2ZXrN6lV0wrHHGBSgkKja8RE8Ooj5W8jDTSanXqwapatbfs8LFxkZiGhoByhkEYAp7i51HFKCee5BabJUURTb3MjhS/KxYNs+Hjf+YI3Yx6TthZYgCleuNJmY5fNbDxzgt/+jr9OtdxY3YfyuGD4XQCOE71Cp+V2xlMBGDezR80xhY5Rz235oE/32O7fJOWce24i/BOfbXYC1JRUeNWq/Z9++9JaH7uQHtv7AGZfRE1CeMAYoXqHlC3ITBsiO3bCe1q8tbyGjUbzOkeXpMInC9YWMsBTep3oR8I6dswu1oypQxpkuGImC4YjhSbV6ouw6A5Gn2/yaQRbfRG0TDACl5kGEl3LjTgQ+Bg6MnCdKAw3z0S7K+/4P393ZBgcp/5DddEjMDSOgRE8MIeLu1THGKXn97+w8PNt+8CQfis2amsK+Ozk2Q6q9rcL+zt25F3B/gT6H9vH5559/2k56AsoTxgCljNkD5UH6FcuXLUl8EODqjwkRcib6RKhLHYcBZacQd9ZzSSLVfyV5beoFoQDonDsFHJt1EXmevAZ1CJoJKsYQt/v6Azp5SsTENIIbvT4fGRqLZNFSFaOFOL988076w49+iz79Xx7SKU2HOL4lfmcICuwfL1Sl+NX6+rnthzaWhDYzci1WQO124yb7N2Ry9rBfvzwlzblmHVsDvHNymM9/IqBPO6YnrNzy9TvfwjP8YTvu4wOdUTw7OzOELll+2XmACeNSGyR+ihATEHnf6BG0h1UbquQMuXR4jdlZuyY4lcdNo9PM/MXBiqF0Gu+QPQATkGcAAX3V7MjD8KbC+raLJvjSXz9MH/3/7qcv37Sd0BNEyV4Y0QgJ509pbecl2nrmMfT6C0/p3JpnyLq1y5UZbW8Yta+vo2JIGugFyWtTyrRz+O/YvZuL8Rs78/hcnmPlCWeAUm79xl1XEiTMdcTfa4ISJIPiW1cWzN48N+7etDyQMQ0Rq+gEb2o07kvtBBIZ5USV4EFsXi88R0D1xA0fUMPPJukJGYHh6TcZeQtDDkzp2MLukBQtxci5dtOOwiZnw/niX3+/sxN20q237+r9+996YG/v9iy5QGYcr1s707lG5zojdlX3t5rOeemGzl16TO/ZWbdmWfKslc8JBiRH83pcvBvICYbRxexZrHOgFMlfHSm2INOrzjnrzCvpCS5PCgOU0qZKLOvcooUJJtmD02J9PRzLyCTb3TEtwkSWfeqENdQccZNuFKHtgEQNwl1y+ipW4oHiwPsaIhxqg8a4VaLp72RGs2QkEuypDHFunMpcGI8qWyI0PtP4aYn+uZm/CxpS7IYM2+yB1fVGtEX2WoXxduzak37Xq2vm+rPPPP2n6Ukoj9sNulQ5NDt5azFY7Lj8VOX2nb3dwvCXFqj3d4UbLyScf0nSV4gC3hjxU7/u4x6miq/qV99s1/mkLjqHDrW/nhQjjsZKaorDW2IxKSwm5Ylsg2243qeNMUZU5wL5SmLMIBwmQAzCxo5SlB1HxniC0IYrYWeYB1OxG4sXDFJEXFJb36aJq3bCpRA8osQ8BM3p0pb7u0hvJv5i9O6dvJWepPKkaYBSilEsM/J59AytWb2Sjt+wQaXUkFDbc0dwl7riEHB5prrwQAjDPUYk2JDWx80donlIcDPD1a4j9Rh8IRraBIL4BO9jG4q/Ya2BWgGXqOmPWtq1h4VoTAh4vk8E9DApTseGazvIz5GRoY8mtPEgr53gHphcz1179u2XAwcPAmJ7YoJdRypPKgOUMuYZ2rBurblHPQDEIc2RPPqi4tK9OfUwETpRQ8Tt/bVBBcG1Q90Xb5ckRSDD7cnAON6K0IggZUQYdT7tbEZ5WZmmYcBolUeJGcWwcjXwenMNtCXUyOhTAqClNBUaRNG16RzQXFJYtXtlvcDpMXfnk038pTxpEMhKfaME/wjBA/U7u6he/7JdW+QKfVpw6qWQReMujWsKRfpPTSXWK5IFVc6wF09z4IA+fW1DNhIGhzqjDAK1GorUGGSkU4s58WC8lU/68drw1O3jjFeJzl2qQMRaPRQKGYM4bCOCeRvzVDhHaUUow0WxtSaXCyyxPqYtdI0kPw9QT1tuiKTzpA37FCQTf/kZLiT+Qiud8/Wnn2zit2E9JeWW2+8+r1u/zy+hCRQRhUCZTluIgWnP3mzIO8zUJHerpDGE5PcEO5BYIJmidUpu0uhBJI/AKBhgQXr6akh7YtpPqHGJMnqAgAkC+jSAReACzoIHWalM2UODHDoOUNrHEKPKuHuTcalx7VDtwrrvax5rLMRfBObWl56WftD6ySpPugawUiYkh6fpqZ2iCR7e4YaxGcGM+NovJn+/ZVr22iNqeiBFGlUMLkIoCft7T/Udz0wcT+6YpBbXAAP5JoJAq2aA9uYzwH4B6e1Suave/4ZuDWyxYe46qsog0r4KRdwidRHR50i53jGm0qWbcEp4lki3gBWCNYC52G8VMOsykgskruuUDH4hBnQ4tR+ucxeAr3sZ7569+6jJ7izOjMufKuIv5SljgFK2vuyM62RR3opwqLzL/aGHd9jitOIoSMYBTVXFjUrm9KlSMW6prz5sJRiB/5n8m9oBus0uCSNKGRLU+8uwA2GIEyFqK1KC09kx5v2wPW7osJBdGKfhU04KrJrDoVwaESi2SnxGtRywzrsQFAjiP+nqw2PHqlLXGfvjmHi9MmELTNf1N+m/a88eTj/BWyT/kxDoeqTylEEgLGNwqMQJSvKcBctYH2AnIFzJ+ME9MkQ5XwfPtbCH4iFzI8HAs4OkOIA+AVlUGh9NUpx7T5JxWu+ZcqIXDHhBoGuppDggUxgzBNWoCZhJzCOMZo2dhGcos2wsrM9MQGyA1wyqxV6ER0ucSUpwqyN+sleY64I8pbAHy9PCAKUUJpiQfAJdpIX4N55wHM3MzKSBSez2GPwAiRz17AoZThaDwCbFtV6ON7BvNbTgEtIZDvJy4F8isGIHI2g+fVg5o9PnJJTIyjIjtbK7d1N9yvfgJY3SUnLfCtof7IKiCh9hTvzA42ufB2wCyNunGJZ0xM87du8mTG94Oolfx/X0lbE4QUmb6OIEsnz5Mkv2UtozAjYtGlIFkawToeQriSKas0MaHWZgquhlQpMvhfttBCbuIWGuoWbBei1h5YGIjDhUrJX+7XoiPDCkQ9STz0EoR3uJkl2qp/tTRrjDmEz/r1SpD35+TGNBaSDxzqcuENoFufY0TPHUuDqPVJ5WBihljAlK6TxEsm7Naic4PrIEQinvUnhE+A7aANJ0D1NoCoMrVTMYliUihPkczEAsSHiU1UgQNbza3Ckw4E2OSyQCxUYVeogxKGgXUmoVq8Ih5SNlBJlCBHxCABNNCKnmiLHAdxBUxnm6F/W+LrhVX6MJ5ZlA/KU8pUbwWCkLcGiOzy/5Hni+8xDxwzt3kXhaLhi9WZz36+8XRBkBEkMduIMdUOFAohlHM07QDBgeOiOsr16j3uNhxM9NFR2YXoeTVFlJYk4cz0iwzZsdNCW8zVqfbE7KPNGwepasujZYpbIMBwDQSJ0IzXILWBHitpAzLFWPT03dUBtuz759MiD+bq9LTv/TTfz9WOgZVNos0lKKXXDi8ceqcdyvuagYtfSVuq9a3/aw/0eaJC5MMQbjFbE0e8DMG+Eh7m/9680AHK81EwT4k5SIdabt6NgMJ1EoB2mZJ7RFPWENJ8M7KwfkUMn921VOYwLHERrUbPM05UoE+UILhxe5GLsJ7/eXnpyszsdanlEMUMott9/5lg7bXoMeolIqJFrDQUQN/UikMfBSKROpfqLRYdopwJVyzqCPhMcH7ep6OzBCw2RBgyZD29yeINykmZBVPCimfvxaDK7Y/X5ssppQuUkQK0zXukHYY/e3niAigrUO+BdQcN+BA7y3kfrV2C0+/jOuo2dQecYxQClL2QXlybLjNmzovESB3Iy+AyeMiOXGFRenwV2K/6iLdNq4N71Pr5aT4ijdA4QLIW2hcYZEDdIYinG1DgoYJ6jU5uP3BrulHsOWCtTizGb2DUA5gaS4UAfYbCQHFhdnCW7NNz9U/UzB+2PlabcBxorZBd0mfwDPHzw0Tw987/u0Z/9+QXWbyboUNoSsVeJdouXfmr7jt4gZBH2Qh83LEThBwTn0SUaojCMwN6X3Fb5bRcui6qWmWPuNifjtPsbZaVIOWWg5pY3UCYVm0LGzNY1GQ/HYZAYj03c2kBqVJkI7xFfCfaMapDNfwYEuort9564B8ZcH2J8peH+sPCM1AJYCiSY0eU+rDZbNzdHxx3baYFJsAwlvDZNL+1o0KNQ+TRX63OoRooF8BVyaTK7/ZZAjVHz1U4a00aG/Pto0zOLjQcgzGsyKzgJyQD/UjJyzCZBnZf0FlArPV3tZBT96xhQGyeLiYv8LLS3hF8hTXpfzirPOuJ6eweUZzwClFEi0OFm8slv4S9trJZlu7erV5QlyotboXYKgl6Z5PGgeR8yxgdRcU9igDoMbUc/l9Zb2rgz5A4VQAnSA+xz/C3pU8zwoDNhgCGu3dW9mnREDTUlxRZh0mqTk8XR4n2hQW74wszjzlmeq1MfyrGAAK0tpg+IhWrd2Na1etSph/aAEl7ZBXWQGLnABUFn6RpB/5LTngR5zt5poHoybjSfGHmYh8hSGNh5ANe+mH5UYPMEHWVALkGsOH014uXxFXJPx0Ni1dWmWIGCc2UwdFJVO6vPAwVAM3UW56tH+SMXTWZ5VDFDKkbRBYYSSYr1y5YocXKJxyKGWbLhGtSYReXozgVuUjBghGDQNLxEQ5BHSGio3ua+dsWVCL5NRLPIhofZpXKThmKRBEbjDs2rBk2n0HUZ9Q9v90cLC4fJach7AndrW9eXRxSfqfT1PVXnWMYCVr95558Wz08k1rTYoZfmyZb1GWNF9OhiwjTYIEcl0iusJiBJy3XnczemEiN4loiHcgfojbkwTzmhw8xC6OFMNBuHjzMQvPlwPIKbkQOCJftBiATd0J5s3bP5IhN95eBZ58a0vP/PMG+hZWJ61DGClvKJ9IvyOo2AE9dcRgXOGW0ImSJkRwAb28IreyW09RhGvpDgg+AzNyW2Fo02KIzO04zfISGRoZCvKD4ImJ/ilkuKSzaDwrgtmSefPHyX8Anc6t9cHzjnr9CvpWVye9QxQSg+LZhYvY3g3KZbeRlizprMRVjS4X0tIQCJ4FnhE4BJAJwJjdxT+DNKRrQ09DrsEi8RHNl0SE4X/vuGQ/t5gQOXAnLoNuT6V9/PtB+fnqbg1j0T48/sn1z7b4M5YeU4wgJUj2QelFEYoL+1duWKFzEwmjFRGROTZMvAooxH8ICmOGG91yDPq8ZGhlqjpzdPxpDgHM/rzrNORpLjUN+D/ZAVwZhdJv5Ms8Jtc/S+v7D94sH8+d2DcRrluft/k8ucC4Vt5TjGAlUdihFLK7xuvXLGclpf3lraWZK4aOF1jDA0DNOpkSPwGsxgwu9YjjPSG35+U7iX54Rucn4eosEcPRiEU0rUNujNsZSl8XytWiT+ZTq57Nrg1H215TjKAlQqNppdNiN8wZiOUUrTC8mVztGrVSlo+NwdIJT+wHtDh6JPiwN4Ynm9O+5E09yJOYszFzx26vVHbqeaODJ/IKqV4cw7OH+pfOb6ktH+OQZ2lynOaAbAsFUPAUplhGa1auUKWLZvj7GxZKimOMhPU+kDI7bMMDoQqoJpmL03cGZartE1Sk51Z2x0leFUlVN621mP7IxF9f498obvp+oW9k+uey4Rv5XnDAFa+dscdF/KU38KTyRuoyTjFUgi9pFusWL5MOg3B3ffw+dMwhRq9Le4xgtRrMg9UvSEZ0GGYUwtyGtwPz/DGsw1khiymKBzuCP5QB2sOHZrvXzV4JKIv0n66OP0Izcj1z1Z35mMtzzsGwNKnXpcX+DK/4ZHqGkMsm5vtmGK5zM7OMGZ5RsVwK3IjtlvA4wbvoLMk5ikBeQojWOD53flOuh9enPaem/J3RIInG3Yn7Wl63cK+ueufD9J+rDyvGcCKulEvPFpmsFKZYpbmZmf730EoDFKcS3Ozc9XDU5/ZJYTzS7alUj2ROnhqSinvzO+kORfpXrw2i4uLPbRJrxE/8oBLTv5Xnk8Q55HKCwwwUgwmdYRyXrdA59JjKIU5ik1RGGLCk54FZmcmSZaXt18UBjk8nSYP1KIeL04XaVFfH3LURN4WkXs7Xrm+wJvDe2dvfoHoc3mBAR6hFO2wMLd4Hh+mC3nCFz5WhniqSsc3X+nUzw08md78fIY2R1teYIDHUHoNQZPzZFFO7YT7eR3UOfdIBvWTUjrJ3pm798iUbuYZvodkcsPCPrrnBYJ/dOX/B4r84fvd8FRbAAAAAElFTkSuQmCC;points=[[0,0,0,0,0],[0,0.25,0,0,0],[0,0.5,0,0,0],[0,0.75,0,0,0],[0.25,0,0,0,0],[0.5,0,0,0,0],[0.75,0,0,0,0],[1,0,0,0,0],[1,0.25,0,0,0],[1,0.5,0,0,0],[1,0.75,0,0,0]];" vertex="1" parent="16">
                    <mxGeometry x="690.5" y="229" width="49" height="49" as="geometry"/>
                </mxCell>
                <mxCell id="35" style="edgeStyle=none;curved=1;rounded=0;orthogonalLoop=1;jettySize=auto;html=1;entryX=0.5;entryY=0;entryDx=0;entryDy=0;fontSize=12;startSize=8;endSize=8;" edge="1" parent="16" source="36" target="49">
                    <mxGeometry relative="1" as="geometry"/>
                </mxCell>
                <mxCell id="36" value="&lt;font color=&quot;#1d2d3e&quot; size=&quot;1&quot; face=&quot;arial&quot; style=&quot;&quot;&gt;&lt;b style=&quot;font-size: 14px;&quot;&gt;SAP AI Core&lt;br&gt;&lt;/b&gt;&lt;/font&gt;" style="text;html=1;align=center;verticalAlign=top;resizable=1;points=[[0,0.5,0,0,0],[0.21,1,0,0,0],[0.5,1,0,0,0],[0.85,1,0,0,0],[1,0.5,0,0,0]];autosize=0;strokeColor=none;fillColor=none;fontSize=12;fontColor=default;fontFamily=Helvetica;fixedWidth=1;imageWidth=24;whiteSpace=wrap;labelBackgroundColor=none;" vertex="1" parent="16">
                    <mxGeometry x="660" y="284" width="110" height="31" as="geometry"/>
                </mxCell>
                <mxCell id="37" value="" style="group" vertex="1" connectable="0" parent="16">
                    <mxGeometry x="78" y="298" width="90" height="121" as="geometry"/>
                </mxCell>
                <mxCell id="38" value="&lt;div&gt;&lt;font face=&quot;arial&quot; color=&quot;#1d2d3e&quot;&gt;&lt;span style=&quot;font-size: 14px;&quot;&gt;&lt;b&gt;Approuter&lt;/b&gt;&lt;/span&gt;&lt;/font&gt;&lt;/div&gt;" style="text;html=1;align=center;verticalAlign=middle;resizable=0;points=[];autosize=1;strokeColor=none;fillColor=none;fontSize=12;fontColor=default;fontFamily=Helvetica;" vertex="1" parent="37">
                    <mxGeometry y="52" width="90" height="30" as="geometry"/>
                </mxCell>
                <mxCell id="39" value="&lt;div style=&quot;&quot;&gt;&lt;span style=&quot;font-family: arial; background-color: initial;&quot;&gt;&lt;font size=&quot;1&quot; style=&quot;&quot;&gt;&lt;span style=&quot;font-size: 12px;&quot;&gt;Standalone&lt;/span&gt;&lt;/font&gt;&lt;/span&gt;&lt;/div&gt;" style="text;html=1;align=center;verticalAlign=middle;resizable=0;points=[];autosize=1;strokeColor=none;fillColor=none;fontSize=12;fontColor=#556B82;fontFamily=Helvetica;" vertex="1" parent="37">
                    <mxGeometry x="5" y="72" width="80" height="30" as="geometry"/>
                </mxCell>
                <mxCell id="40" value="&lt;div style=&quot;&quot;&gt;&lt;font face=&quot;arial&quot;&gt;&lt;i&gt;(Optional)&lt;/i&gt;&lt;/font&gt;&lt;/div&gt;" style="text;html=1;align=center;verticalAlign=middle;resizable=0;points=[];autosize=1;strokeColor=none;fillColor=none;fontSize=12;fontColor=#556B82;fontFamily=Helvetica;" vertex="1" parent="37">
                    <mxGeometry x="5" y="91" width="80" height="30" as="geometry"/>
                </mxCell>
                <mxCell id="41" value="" style="group" vertex="1" connectable="0" parent="16">
                    <mxGeometry x="260" y="110" width="110" height="69" as="geometry"/>
                </mxCell>
                <mxCell id="42" value="" style="shape=image;verticalLabelPosition=bottom;verticalAlign=top;imageAspect=0;aspect=fixed;image=data:image/svg+xml,PHN2ZyB4bWxucz0iaHR0cDovL3d3dy53My5vcmcvMjAwMC9zdmciIGZpbGw9Im5vbmUiIHZpZXdCb3g9IjAgMCAxNyAxNyIgaGVpZ2h0PSIxNyIgd2lkdGg9IjE3Ij4mI3hhOzxwYXRoIGZpbGw9InVybCgjcGFpbnQwX2xpbmVhcl8yXzI4ODA5KSIgZD0iTTE0Ljk2MzkgNS4wNTI3M0MxNS4xOTMgNS4xOTg1NyAxNS4zMDc2IDUuMzg2MDcgMTUuMzA3NiA1LjYxNTIzQzE1LjMwNzYgNS42Nzc3MyAxNS4yOTcyIDUuNzI5ODIgMTUuMjc2NCA1Ljc3MTQ4VjEyLjE0NjVDMTUuMjc2NCAxMi40NTkgMTUuMTQxIDEyLjY5ODYgMTQuODcwMSAxMi44NjUyTDguNTI2MzcgMTYuODM0QzguMzgwNTMgMTYuOTE3MyA4LjIyNDI4IDE2Ljk1OSA4LjA1NzYyIDE2Ljk1OUM3Ljg3MDEyIDE2Ljk1OSA3LjczNDcgMTYuOTE3MyA3LjY1MTM3IDE2LjgzNEwxLjI3NjM3IDEyLjg2NTJDMS4xNTEzNyAxMi43ODE5IDEuMDQ3MiAxMi42NjczIDAuOTYzODY3IDEyLjUyMTVDMC45MDEzNjcgMTIuMzc1NyAwLjg3MDExNyAxMi4yNTA3IDAuODcwMTE3IDEyLjE0NjVWNS43NzE0OEMwLjg3MDExNyA1LjQ1ODk4IDEuMDA1NTMgNS4yMTk0IDEuMjc2MzcgNS4wNTI3M0w0LjQ2Mzg3IDMuMDUyNzNDNC42MzA1MyAyLjk5MDIzIDQuNzg2NzggMi45NTg5OCA0LjkzMjYyIDIuOTU4OThDNS4wNzg0NSAyLjk1ODk4IDUuMjEzODcgMi45OTAyMyA1LjMzODg3IDMuMDUyNzNMMTEuNzEzOSA3LjA1MjczQzExLjgxOCA3LjA5NDQgMTEuOTAxNCA3LjE4ODE1IDExLjk2MzkgNy4zMzM5OEMxMi4wNDcyIDcuNDU4OTggMTIuMDg4OSA3LjU3MzU3IDEyLjA4ODkgNy42Nzc3M1YxMC40NTlDMTIuMDg4OSAxMS4wMDA3IDExLjgyODUgMTEuMjcxNSAxMS4zMDc2IDExLjI3MTVDMTEuMDc4NSAxMS4yNzE1IDEwLjg4MDUgMTEuMTk4NiAxMC43MTM5IDExLjA1MjdDMTAuNTY4IDEwLjkwNjkgMTAuNDk1MSAxMC43MDkgMTAuNDk1MSAxMC40NTlWOC4xNDY0OEw0LjkzMjYyIDQuNjQ2NDhMMi41NTc2MiA2LjE3NzczVjExLjY3NzdMOC4xMjAxMiAxNS4xNzc3TDEzLjY4MjYgMTEuNjc3N1Y2LjE3NzczTDcuNzEzODcgMi40Mjc3M0M3LjQ2Mzg3IDIuMjYxMDcgNy4zMzg4NyAyLjA0MjMyIDcuMzM4ODcgMS43NzE0OEM3LjMzODg3IDEuNjY3MzIgNy4zODA1MyAxLjUxMTA3IDcuNDYzODcgMS4zMDI3M0M3LjY1MTM3IDEuMDczNTcgNy44OTA5NSAwLjk1ODk4NCA4LjE4MjYyIDAuOTU4OTg0QzguMzQ5MjggMC45NTg5ODQgOC40ODQ3IDEuMDAwNjUgOC41ODg4NyAxLjA4Mzk4TDE0Ljk2MzkgNS4wNTI3M1pNNy4wMjYzNyAxMS4xNzc3QzcuMjc2MzcgMTEuMzIzNiA3LjQwMTM3IDExLjU0MjMgNy40MDEzNyAxMS44MzRDNy40MDEzNyAxMi4wMDA3IDcuMzU5NyAxMi4xNTY5IDcuMjc2MzcgMTIuMzAyN0M3LjEwOTcgMTIuNTMxOSA2Ljg3MDEyIDEyLjY0NjUgNi41NTc2MiAxMi42NDY1QzYuNDExNzggMTIuNjQ2NSA2LjI3NjM3IDEyLjYxNTIgNi4xNTEzNyAxMi41NTI3TDQuNTU3NjIgMTEuNTg0QzQuMzA3NjIgMTEuNDE3MyA0LjE4MjYyIDExLjIwOSA0LjE4MjYyIDEwLjk1OUM0LjE4MjYyIDEwLjc5MjMgNC4yMzQ3IDEwLjYyNTcgNC4zMzg4NyAxMC40NTlDNC41MjYzNyAxMC4yMjk4IDQuNzU1NTMgMTAuMTE1MiA1LjAyNjM3IDEwLjExNTJDNS4xOTMwMyAxMC4xMTUyIDUuMzI4NDUgMTAuMTU2OSA1LjQzMjYyIDEwLjI0MDJMNy4wMjYzNyAxMS4xNzc3WiIvPiYjeGE7PGRlZnM+JiN4YTs8bGluZWFyR3JhZGllbnQgZ3JhZGllbnRVbml0cz0idXNlclNwYWNlT25Vc2UiIHkyPSI5LjU0NDQ0IiB4Mj0iMTYuMTIwNCIgeTE9IjIuNDY0MDciIHgxPSIyLjczNjAzIiBpZD0icGFpbnQwX2xpbmVhcl8yXzI4ODA5Ij4mI3hhOzxzdG9wIHN0b3AtY29sb3I9IiMyMzk1RkYiLz4mI3hhOzxzdG9wIHN0b3AtY29sb3I9IiMwMDU3RDIiIG9mZnNldD0iMSIvPiYjeGE7PC9saW5lYXJHcmFkaWVudD4mI3hhOzwvZGVmcz4mI3hhOzwvc3ZnPg==" vertex="1" parent="41">
                    <mxGeometry x="36" width="38" height="38" as="geometry"/>
                </mxCell>
                <mxCell id="43" style="edgeStyle=none;curved=1;rounded=0;orthogonalLoop=1;jettySize=auto;html=1;fontSize=12;startSize=8;endSize=8;" edge="1" parent="41" source="44">
                    <mxGeometry relative="1" as="geometry">
                        <mxPoint x="55" y="115" as="targetPoint"/>
                    </mxGeometry>
                </mxCell>
                <mxCell id="44" value="&lt;font color=&quot;#1d2d3e&quot; size=&quot;1&quot; face=&quot;arial&quot; style=&quot;&quot;&gt;&lt;b style=&quot;font-size: 14px;&quot;&gt;App Content&lt;/b&gt;&lt;/font&gt;" style="text;html=1;align=center;verticalAlign=middle;resizable=0;points=[];autosize=1;strokeColor=none;fillColor=none;fontSize=12;fontColor=default;fontFamily=Helvetica;" vertex="1" parent="41">
                    <mxGeometry y="39" width="110" height="30" as="geometry"/>
                </mxCell>
                <mxCell id="45" style="edgeStyle=none;curved=0;rounded=0;orthogonalLoop=1;jettySize=auto;html=1;fontSize=12;startSize=8;endSize=8;exitX=1.022;exitY=0.363;exitDx=0;exitDy=0;exitPerimeter=0;dashed=1;" edge="1" parent="16" source="28">
                    <mxGeometry relative="1" as="geometry">
                        <mxPoint x="182" y="215" as="sourcePoint"/>
                        <mxPoint x="255" y="267" as="targetPoint"/>
                        <Array as="points">
                            <mxPoint x="211" y="206"/>
                            <mxPoint x="210" y="267"/>
                        </Array>
                    </mxGeometry>
                </mxCell>
                <mxCell id="46" style="edgeStyle=none;curved=0;rounded=0;orthogonalLoop=1;jettySize=auto;html=1;fontSize=12;startSize=8;endSize=8;dashed=1;" edge="1" parent="16">
                    <mxGeometry relative="1" as="geometry">
                        <mxPoint x="169" y="362" as="sourcePoint"/>
                        <mxPoint x="256" y="303" as="targetPoint"/>
                        <Array as="points">
                            <mxPoint x="210" y="363"/>
                            <mxPoint x="210" y="303"/>
                        </Array>
                    </mxGeometry>
                </mxCell>
                <mxCell id="47" style="edgeStyle=none;curved=1;rounded=0;orthogonalLoop=1;jettySize=auto;html=1;entryX=0;entryY=0.5;entryDx=0;entryDy=0;entryPerimeter=0;fontSize=12;startSize=8;endSize=8;" edge="1" parent="16" source="25" target="22">
                    <mxGeometry relative="1" as="geometry"/>
                </mxCell>
                <mxCell id="48" style="edgeStyle=none;curved=1;rounded=0;orthogonalLoop=1;jettySize=auto;html=1;entryX=0;entryY=0.5;entryDx=0;entryDy=0;entryPerimeter=0;fontSize=12;startSize=8;endSize=8;" edge="1" parent="16" source="22" target="36">
                    <mxGeometry relative="1" as="geometry"/>
                </mxCell>
                <mxCell id="49" value="" style="rounded=1;whiteSpace=wrap;html=1;strokeColor=#475E75;fillColor=#F5F6F7;arcSize=24;absoluteArcSize=1;imageWidth=64;imageHeight=64;strokeWidth=1.5;" vertex="1" parent="16">
                    <mxGeometry x="620" y="410" width="190" height="60" as="geometry"/>
                </mxCell>
                <mxCell id="50" value="&lt;font face=&quot;arial&quot; style=&quot;font-size: 16px;&quot;&gt;&lt;b style=&quot;font-size: 16px;&quot;&gt;Foundational Models&lt;/b&gt;&lt;/font&gt;" style="text;html=1;align=center;verticalAlign=middle;resizable=0;points=[[0,0.5,0,0,0],[0.5,0,0,0,0],[0.5,1,0,0,0],[1,0.5,0,0,0]];autosize=1;strokeColor=none;fillColor=none;fontSize=12;fontColor=#1D2D3E;fontFamily=Helvetica;" vertex="1" parent="16">
                    <mxGeometry x="625" y="414" width="180" height="30" as="geometry"/>
                </mxCell>
                <mxCell id="51" value="&lt;div style=&quot;&quot;&gt;&lt;span style=&quot;font-family: arial; background-color: initial;&quot;&gt;&lt;font size=&quot;1&quot; style=&quot;&quot;&gt;&lt;i style=&quot;font-size: 16px;&quot;&gt;SAP hosted&lt;/i&gt;&lt;/font&gt;&lt;/span&gt;&lt;/div&gt;" style="text;html=1;align=center;verticalAlign=middle;resizable=0;points=[];autosize=1;strokeColor=none;fillColor=none;fontSize=12;fontColor=#556B82;fontFamily=Helvetica;" vertex="1" parent="16">
                    <mxGeometry x="655" y="435" width="110" height="30" as="geometry"/>
                </mxCell>
                <mxCell id="52" value="" style="shape=image;verticalLabelPosition=bottom;verticalAlign=top;imageAspect=0;aspect=fixed;image=data:image/svg+xml,PHN2ZyB4bWxucz0iaHR0cDovL3d3dy53My5vcmcvMjAwMC9zdmciIGZpbGw9Im5vbmUiIHZpZXdCb3g9IjAgMCAxNiAxNiIgaGVpZ2h0PSIxNiIgd2lkdGg9IjE2Ij4mI3hhOzxnIGNsaXAtcGF0aD0idXJsKCNjbGlwMF82OTNfMTIyNikiPiYjeGE7PHBhdGggZmlsbD0idXJsKCNwYWludDBfbGluZWFyXzY5M18xMjI2KSIgZD0iTTEyLjgxMjUgOS42MjVDMTMuMjUgOS42MjUgMTMuNjU2MiA5LjcwODMzIDE0LjAzMTIgOS44NzVDMTQuNDI3MSAxMC4wNDE3IDE0Ljc3MDggMTAuMjcwOCAxNS4wNjI1IDEwLjU2MjVDMTUuMzU0MiAxMC44NTQyIDE1LjU4MzMgMTEuMTk3OSAxNS43NSAxMS41OTM4QzE1LjkxNjcgMTEuOTY4OCAxNiAxMi4zNzUgMTYgMTIuODEyNUMxNiAxMy4yNSAxNS45MTY3IDEzLjY2NjcgMTUuNzUgMTQuMDYyNUMxNS41ODMzIDE0LjQzNzUgMTUuMzU0MiAxNC43NjA0IDE1LjA2MjUgMTUuMDMxMkMxNC43NzA4IDE1LjMyMjkgMTQuNDI3MSAxNS41NTIxIDE0LjAzMTIgMTUuNzE4OEMxMy42NTYyIDE1Ljg4NTQgMTMuMjUgMTUuOTY4OCAxMi44MTI1IDE1Ljk2ODhDMTIuMzc1IDE1Ljk2ODggMTEuOTU4MyAxNS44ODU0IDExLjU2MjUgMTUuNzE4OEMxMS4xODc1IDE1LjU1MjEgMTAuODU0MiAxNS4zMjI5IDEwLjU2MjUgMTUuMDMxMkMxMC4yNzA4IDE0Ljc2MDQgMTAuMDQxNyAxNC40Mzc1IDkuODc1IDE0LjA2MjVDOS43MDgzMyAxMy42NjY3IDkuNjI1IDEzLjI1IDkuNjI1IDEyLjgxMjVWMTIuNDA2Mkw1LjQwNjI1IDEwLjM0MzhDNC43NjA0MiAxMC45MjcxIDQuMDIwODMgMTEuMjE4OCAzLjE4NzUgMTEuMjE4OEMyLjc1IDExLjIxODggMi4zMzMzMyAxMS4xMzU0IDEuOTM3NSAxMC45Njg4QzEuNTYyNSAxMC44MDIxIDEuMjI5MTcgMTAuNTcyOSAwLjkzNzUgMTAuMjgxMkMwLjY2NjY2NyA5Ljk4OTU4IDAuNDQ3OTE3IDkuNjU2MjUgMC4yODEyNSA5LjI4MTI1QzAuMTE0NTgzIDguODg1NDIgMC4wMzEyNSA4LjQ2ODc1IDAuMDMxMjUgOC4wMzEyNUMwLjAzMTI1IDcuNTkzNzUgMC4xMTQ1ODMgNy4xODc1IDAuMjgxMjUgNi44MTI1QzAuNDQ3OTE3IDYuNDE2NjcgMC42NjY2NjcgNi4wODMzMyAwLjkzNzUgNS44MTI1QzEuMjI5MTcgNS41MjA4MyAxLjU2MjUgNS4yOTE2NyAxLjkzNzUgNS4xMjVDMi4zMzMzMyA0Ljk1ODMzIDIuNzUgNC44NzUgMy4xODc1IDQuODc1QzMuNjI1IDQuODc1IDQuMDMxMjUgNC45NDc5MiA0LjQwNjI1IDUuMDkzNzVDNC44MDIwOCA1LjIzOTU4IDUuMTM1NDIgNS40NTgzMyA1LjQwNjI1IDUuNzVMOS42MjUgMy42NTYyNVYzLjI4MTI1QzkuNjI1IDIuODQzNzUgOS43MDgzMyAyLjQzNzUgOS44NzUgMi4wNjI1QzEwLjA0MTcgMS42NjY2NyAxMC4yNzA4IDEuMzIyOTIgMTAuNTYyNSAxLjAzMTI1QzEwLjg1NDIgMC43Mzk1ODMgMTEuMTg3NSAwLjUxMDQxNyAxMS41NjI1IDAuMzQzNzVDMTEuOTU4MyAwLjE3NzA4MyAxMi4zNzUgMC4wOTM3NSAxMi44MTI1IDAuMDkzNzVDMTMuMjUgMC4wOTM3NSAxMy42NTYyIDAuMTc3MDgzIDE0LjAzMTIgMC4zNDM3NUMxNC40MjcxIDAuNTEwNDE3IDE0Ljc3MDggMC43Mzk1ODMgMTUuMDYyNSAxLjAzMTI1QzE1LjM1NDIgMS4zMjI5MiAxNS41ODMzIDEuNjY2NjcgMTUuNzUgMi4wNjI1QzE1LjkxNjcgMi40Mzc1IDE2IDIuODQzNzUgMTYgMy4yODEyNUMxNiAzLjcxODc1IDE1LjkxNjcgNC4xMzU0MiAxNS43NSA0LjUzMTI1QzE1LjU4MzMgNC45MDYyNSAxNS4zNTQyIDUuMjM5NTggMTUuMDYyNSA1LjUzMTI1QzE0Ljc3MDggNS44MDIwOCAxNC40MjcxIDYuMDIwODMgMTQuMDMxMiA2LjE4NzVDMTMuNjU2MiA2LjM1NDE3IDEzLjI1IDYuNDM3NSAxMi44MTI1IDYuNDM3NUMxMi4yNSA2LjQzNzUgMTEuNzM5NiA2LjMyMjkyIDExLjI4MTIgNi4wOTM3NUMxMC44NDM4IDUuODQzNzUgMTAuNDc5MiA1LjUxMDQyIDEwLjE4NzUgNS4wOTM3NUw2LjI4MTI1IDcuMDkzNzVDNi4zODU0MiA3LjQ0NzkyIDYuNDM3NSA3Ljc2MDQyIDYuNDM3NSA4LjAzMTI1QzYuNDM3NSA4LjMyMjkyIDYuMzg1NDIgOC42NDU4MyA2LjI4MTI1IDlMMTAuMTg3NSAxMC45Njg4QzEwLjUgMTAuNTcyOSAxMC44NzUgMTAuMjUgMTEuMzEyNSAxMEMxMS43NSA5Ljc1IDEyLjI1IDkuNjI1IDEyLjgxMjUgOS42MjVaTTEyLjgxMjUgMS42ODc1QzEyLjM3NSAxLjY4NzUgMTIgMS44NDM3NSAxMS42ODc1IDIuMTU2MjVDMTEuMzc1IDIuNDY4NzUgMTEuMjE4OCAyLjg0Mzc1IDExLjIxODggMy4yODEyNUMxMS4yMTg4IDMuNzE4NzUgMTEuMzc1IDQuMDkzNzUgMTEuNjg3NSA0LjQwNjI1QzEyIDQuNzE4NzUgMTIuMzc1IDQuODc1IDEyLjgxMjUgNC44NzVDMTMuMjUgNC44NzUgMTMuNjI1IDQuNzE4NzUgMTMuOTM3NSA0LjQwNjI1QzE0LjI1IDQuMDkzNzUgMTQuNDA2MiAzLjcxODc1IDE0LjQwNjIgMy4yODEyNUMxNC40MDYyIDIuODQzNzUgMTQuMjUgMi40Njg3NSAxMy45Mzc1IDIuMTU2MjVDMTMuNjI1IDEuODQzNzUgMTMuMjUgMS42ODc1IDEyLjgxMjUgMS42ODc1Wk0zLjI4MTI1IDkuNjI1QzMuNzE4NzUgOS42MjUgNC4wOTM3NSA5LjQ2ODc1IDQuNDA2MjUgOS4xNTYyNUM0LjcxODc1IDguODQzNzUgNC44NzUgOC40Njg3NSA0Ljg3NSA4LjAzMTI1QzQuODc1IDcuNTkzNzUgNC43MTg3NSA3LjIxODc1IDQuNDA2MjUgNi45MDYyNUM0LjA5Mzc1IDYuNTkzNzUgMy43MTg3NSA2LjQzNzUgMy4yODEyNSA2LjQzNzVDMi44NDM3NSA2LjQzNzUgMi40Njg3NSA2LjU5Mzc1IDIuMTU2MjUgNi45MDYyNUMxLjg0Mzc1IDcuMjE4NzUgMS42ODc1IDcuNTkzNzUgMS42ODc1IDguMDMxMjVDMS42ODc1IDguNDY4NzUgMS44NDM3NSA4Ljg0Mzc1IDIuMTU2MjUgOS4xNTYyNUMyLjQ2ODc1IDkuNDY4NzUgMi44NDM3NSA5LjYyNSAzLjI4MTI1IDkuNjI1Wk0xMi44MTI1IDE0LjQwNjJDMTMuMjUgMTQuNDA2MiAxMy42MjUgMTQuMjUgMTMuOTM3NSAxMy45Mzc1QzE0LjI1IDEzLjYyNSAxNC40MDYyIDEzLjI1IDE0LjQwNjIgMTIuODEyNUMxNC40MDYyIDEyLjM3NSAxNC4yNSAxMiAxMy45Mzc1IDExLjY4NzVDMTMuNjI1IDExLjM3NSAxMy4yNSAxMS4yMTg4IDEyLjgxMjUgMTEuMjE4OEMxMi4zNzUgMTEuMjE4OCAxMiAxMS4zNzUgMTEuNjg3NSAxMS42ODc1QzExLjM3NSAxMiAxMS4yMTg4IDEyLjM3NSAxMS4yMTg4IDEyLjgxMjVDMTEuMjE4OCAxMy4yNSAxMS4zNzUgMTMuNjI1IDExLjY4NzUgMTMuOTM3NUMxMiAxNC4yNSAxMi4zNzUgMTQuNDA2MiAxMi44MTI1IDE0LjQwNjJaIi8+JiN4YTs8L2c+JiN4YTs8ZGVmcz4mI3hhOzxsaW5lYXJHcmFkaWVudCBncmFkaWVudFVuaXRzPSJ1c2VyU3BhY2VPblVzZSIgeTI9IjkuODc3MjMiIHgyPSIxNi4xNTI5IiB5MT0iMS41ODcwOCIgeDE9IjIuMDk1MDYiIGlkPSJwYWludDBfbGluZWFyXzY5M18xMjI2Ij4mI3hhOzxzdG9wIHN0b3AtY29sb3I9IiMyMzk1RkYiLz4mI3hhOzxzdG9wIHN0b3AtY29sb3I9IiMwMDU3RDIiIG9mZnNldD0iMSIvPiYjeGE7PC9saW5lYXJHcmFkaWVudD4mI3hhOzxjbGlwUGF0aCBpZD0iY2xpcDBfNjkzXzEyMjYiPiYjeGE7PHJlY3QgZmlsbD0id2hpdGUiIGhlaWdodD0iMTYiIHdpZHRoPSIxNiIvPiYjeGE7PC9jbGlwUGF0aD4mI3hhOzwvZGVmcz4mI3hhOzwvc3ZnPg==" vertex="1" parent="16">
                    <mxGeometry x="106.5" y="309" width="37" height="37" as="geometry"/>
                </mxCell>
                <mxCell id="53" value="&lt;font face=&quot;arial&quot; style=&quot;font-size: 16px;&quot;&gt;&lt;b style=&quot;font-size: 16px;&quot;&gt;Subaccount&lt;/b&gt;&lt;/font&gt;" style="text;html=1;align=center;verticalAlign=middle;resizable=0;points=[[0,0.5,0,0,0],[0.5,0,0,0,0],[0.5,1,0,0,0],[1,0.5,0,0,0]];autosize=1;strokeColor=none;fillColor=none;fontSize=12;fontColor=#1D2D3E;fontFamily=Helvetica;" vertex="1" parent="16">
                    <mxGeometry x="610" y="66" width="120" height="30" as="geometry"/>
                </mxCell>
                <mxCell id="54" value="&lt;div style=&quot;&quot;&gt;&lt;span style=&quot;font-family: arial; font-size: x-small; background-color: initial;&quot;&gt;&lt;font&gt;EU10/US10/AP10&lt;/font&gt;&lt;/span&gt;&lt;/div&gt;" style="text;html=1;align=left;verticalAlign=middle;resizable=0;points=[];autosize=1;strokeColor=none;fillColor=none;fontSize=12;fontColor=#556B82;fontFamily=Helvetica;" vertex="1" parent="16">
                    <mxGeometry x="623" y="88" width="98" height="26" as="geometry"/>
                </mxCell>
                <mxCell id="55" value="..." style="text;html=1;align=center;verticalAlign=middle;resizable=0;points=[];autosize=1;strokeColor=none;fillColor=none;fontSize=16;" vertex="1" parent="1">
                    <mxGeometry x="1186" y="510.5" width="40" height="30" as="geometry"/>
                </mxCell>
                <mxCell id="56" style="edgeStyle=none;curved=0;rounded=0;orthogonalLoop=1;jettySize=auto;html=1;entryX=-0.017;entryY=0.28;entryDx=0;entryDy=0;entryPerimeter=0;fontSize=12;startSize=8;endSize=8;dashed=1;" edge="1" parent="1" target="28">
                    <mxGeometry relative="1" as="geometry">
                        <mxPoint x="144" y="346" as="sourcePoint"/>
                        <Array as="points">
                            <mxPoint x="208" y="345"/>
                            <mxPoint x="209" y="272"/>
                        </Array>
                    </mxGeometry>
                </mxCell>
                <mxCell id="57" style="edgeStyle=none;curved=1;rounded=0;orthogonalLoop=1;jettySize=auto;html=1;entryX=-0.026;entryY=0.137;entryDx=0;entryDy=0;entryPerimeter=0;fontSize=12;startSize=8;endSize=8;" edge="1" parent="1" source="5" target="25">
                    <mxGeometry relative="1" as="geometry"/>
                </mxCell>
                <mxCell id="58" style="edgeStyle=none;curved=0;rounded=0;orthogonalLoop=1;jettySize=auto;html=1;fontSize=12;startSize=8;endSize=8;entryX=-0.017;entryY=0.498;entryDx=0;entryDy=0;entryPerimeter=0;dashed=1;" edge="1" parent="1" target="38">
                    <mxGeometry relative="1" as="geometry">
                        <mxPoint x="146" y="368" as="sourcePoint"/>
                        <mxPoint x="317" y="491" as="targetPoint"/>
                        <Array as="points">
                            <mxPoint x="208" y="369"/>
                            <mxPoint x="209" y="437"/>
                        </Array>
                    </mxGeometry>
                </mxCell>
            </root>
        </mxGraphModel>
    </diagram>
</mxfile>